<?xml version="1.0" standalone="no"?>
<!DOCTYPE svg PUBLIC "-//W3C//DTD SVG 1.1//EN" "http://www.w3.org/Graphics/SVG/1.1/DTD/svg11.dtd" >
<svg xmlns="http://www.w3.org/2000/svg">
<metadata></metadata>
<defs>
<font id="curlyshirleymedium" horiz-adv-x="1591" >
<font-face units-per-em="2048" ascent="1638" descent="-410" />
<missing-glyph horiz-adv-x="614" />
<glyph horiz-adv-x="0" />
<glyph unicode="&#xd;" horiz-adv-x="681" />
<glyph unicode=" "  horiz-adv-x="614" />
<glyph unicode="&#x09;" horiz-adv-x="614" />
<glyph unicode="&#xa0;" horiz-adv-x="614" />
<glyph unicode="!" horiz-adv-x="522" d="M13 107.5q5 52.5 29 93.5t58 75q57 53 121 70q80 18 133 -29q41 -41 27 -104q-12 -51 -55 -86q-49 -43 -105 -33q-61 10 -100 80q-45 -70 -10 -119q10 -16 39 -18q35 -2 83 14q86 29 156 82q12 10 29.5 8t28 -15t8.5 -30.5t-17 -27.5q-78 -61 -178 -95q-66 -23 -115 -18 q-70 4 -104 55q-33 45 -28 97.5zM106.5 1094.5q6.5 144.5 22.5 343.5q2 16 15.5 27.5t29.5 9.5t27.5 -15.5t9.5 -29.5q-18 -197 -23.5 -339.5t6 -319.5t46.5 -333q4 -16 -4.5 -30.5t-25.5 -17.5t-31.5 5t-16.5 27q-39 160 -50.5 344t-5 328.5zM176 233q8 -6 14 -14 q20 -39 46 -43q18 -4 36 12q23 18 29 43q4 18 -4 25q-18 18 -55 10q-33 -8 -66 -33z" />
<glyph unicode="&#x22;" horiz-adv-x="479" d="M50 1398.5q5 16.5 20.5 25t32 3t24.5 -21.5q14 -29 24.5 -62.5t15.5 -55t8 -66.5t3 -58v-65v-54q0 -16 -12 -28t-28.5 -12t-29 12t-12.5 28v50v53q0 10 -1 44t-4 49t-7 42t-12.5 46.5t-18.5 39.5q-8 14 -3 30.5zM301 1374q-2 18 8 31.5t27.5 15.5t31 -8.5t15.5 -26.5 q29 -227 29 -335q0 -16 -12.5 -28.5t-29 -12.5t-28.5 12t-12 29q0 102 -29 323z" />
<glyph unicode="#" horiz-adv-x="1296" d="M86 477q23 39 78 70q68 37 176 57l49 8q2 39 2 84q-102 2 -147 0q-18 0 -30.5 11.5t-12.5 29t11.5 29.5t27.5 12q47 2 153 -2q0 104 -6 232q-4 86 -27 190q-12 66 -28 102q-6 14 -12.5 23.5t-8.5 11.5l-2 2q-20 6 -55 -26q-35 -31 -47 -64t-9 -54.5t13 -33.5q4 -8 8 -10 q10 10 14 41q2 18 15.5 28.5t31 8.5t27.5 -15.5t8 -29.5q-12 -92 -69 -113q-59 -18 -103 41q-23 33 -27.5 75t16 93t65.5 94q72 63 137 43q43 -14 72 -82q20 -45 34 -119q25 -111 29 -202q6 -135 6 -238q158 -4 254 0h10q10 199 76 641q2 16 16.5 26.5t31 8.5t26.5 -16.5 t8 -30.5q-66 -434 -76 -625q92 6 158 23q111 25 154 71q37 41 38 68q2 8 -4 10q-6 10 -41.5 6t-72.5 -24q-14 -8 -30.5 -4t-25 18.5t-4.5 30.5t19 24q51 31 104 36t94 -17q51 -31 43 -90q-6 -51 -59 -111q-59 -68 -197 -98q-76 -18 -180 -25q-2 -45 -2 -86q137 -20 244 -61 q14 -8 21 -23.5t0 -31t-22.5 -22.5t-31.5 -1q-90 39 -209 57q12 -297 111 -440q45 -63 79.5 -52t59.5 70q25 61 12 101l-4 6q-6 4 -26 -6q-16 -8 -32 -2t-24 21.5t-2 30.5t21 24q51 25 90 10q41 -14 55 -60q23 -66 -14 -155q-39 -96 -111 -119q-92 -31 -170 86 q-115 166 -127 496q-135 12 -270 0q-25 -324 -131 -557q-6 -16 -22.5 -22.5t-32 0.5t-21.5 23.5t2 30.5q96 215 123 514q-14 -2 -27 -6q-98 -18 -153 -47q-35 -18 -43 -37q-8 -14 2 -32q8 -14 4 -31t-18.5 -25t-31 -4t-24.5 19q-35 59 -6 112zM471 621q131 12 262 0 q0 35 2 71h-4q-98 -4 -258 0q0 -37 -2 -71z" />
<glyph unicode="$" horiz-adv-x="905" d="M121 244q-23 141 59 237q43 51 102.5 60.5t108.5 -11t80 -57.5q25 -31 30 -65.5t-20 -75.5q-47 -63 -192 -72q-16 0 -29.5 11.5t-13.5 27.5t11 29.5t28 13.5q106 6 131 39q12 14 -8 39q-31 37 -79 42t-87 -34q-55 -66 -39 -172q10 -70 49 -119q45 -57 133 -64t182.5 38 t152.5 118.5t54 149.5q-6 109 -108 196q-29 25 -62 48l-90 55l-72 43q-145 92 -184 178q-55 125 55 293q98 147 238 156q121 8 190 -62q70 -68 78 -162q8 -92 -41 -151q-59 -72 -155 -39q-14 6 -22.5 21.5t-2.5 30.5t21.5 23.5t31.5 2.5q41 -14 64 12q29 35 22 94 q-4 63 -50 108.5t-132 39.5q-98 -6 -172 -119q-88 -131 -49 -215q27 -63 151 -141q18 -10 58 -33l61 -39q25 -14 57.5 -38t57.5 -44q129 -111 137 -254q6 -109 -68.5 -202t-187.5 -144q-72 -35 -145.5 -45t-147.5 12.5t-121 83.5q-51 63 -65 156zM475 -256q4 8 6 16l4 17 q2 8 4.5 13t2.5 14.5t1 14.5t1 17v17v18v20q0 16 12 28.5t28.5 12.5t28.5 -12.5t12 -28.5v-22v-23v-20v-23l-4 -20q-2 -12 -4 -21.5t-6 -21.5l-8 -25q-8 -16 -23.5 -23t-31 0t-22.5 22.5t-1 29.5zM489 1489l11 59v19q-2 29 -4 51q0 16 11 29.5t27.5 13.5t30 -11.5 t13.5 -27.5q2 -23 4 -49v-27q0 -6 -11 -69q-4 -16 -17 -26.5t-29.5 -7.5t-27 16.5t-8.5 29.5z" />
<glyph unicode="%" horiz-adv-x="1257" d="M303 145q47 141 118 281.5t175 290.5l174 241l195 252l51 64l57 72q23 29 43 61q8 14 24.5 18.5t31 -4t18.5 -25t-4 -30.5q-20 -37 -45 -69.5t-62 -75.5l-49 -60l-196 -252q-70 -92 -170.5 -237.5t-169 -280.5t-113.5 -270q-6 -16 -20.5 -24.5t-31 -2.5t-24.5 20.5 t-2 30.5zM375 1310.5q0 16.5 12 29t28.5 12.5t29 -12.5t12.5 -29t-12.5 -28.5t-29 -12t-28.5 12t-12 28.5zM780 241.5q0 16.5 12.5 29t29 12.5t28.5 -12.5t12 -29t-12 -28.5t-28.5 -12t-29 12t-12.5 28.5z" />
<glyph unicode="&#x26;" horiz-adv-x="1003" d="M166 408q16 160 96 290q39 63 109 121q-66 10 -103 47q-51 53 -32 158q12 66 69 148.5t129 140.5q86 68 164 71q98 8 158 -84q8 -14 5 -30.5t-17.5 -25.5t-31 -6t-26.5 17q-33 51 -82 48q-53 -2 -119 -54q-61 -51 -110 -120.5t-58 -120.5q-12 -61 11 -84q23 -25 92 -25 q35 0 78 16l28 15q25 12 43 12q8 0 17 -4q18 -8 22 -27q2 -12 1 -19t-5 -13l-4 -5l-6 -6q-2 -2 -4 -2q0 -2 -4 -2q-4 -4 -11 -6q-18 -10 -38 -16l-2 -2q-16 -10 -46 -31q-113 -82 -157 -156q-70 -113 -84 -254q-16 -158 63 -227q82 -61 185.5 -53t208.5 71q98 61 143 138 q39 68 12 108q-45 61 -121 56q-72 -6 -141 -64q-61 -49 -61 -86q0 -4 4 -8q16 -10 57 -10q16 0 28.5 -12.5t12.5 -29t-12.5 -28.5t-28.5 -12q-66 0 -102 24q-43 29 -41 78q2 74 92 148q88 72 184 81q125 10 195 -92q59 -84 -8 -196q-55 -92 -170 -164q-76 -47 -158 -69.5 t-173 -11.5t-159 71q-113 96 -92 297zM475 1509q-2 18 8.5 31.5t27.5 16t30.5 -8t15.5 -26.5l6 -45q2 -18 -8 -31.5t-27.5 -16t-31 8t-15.5 26.5zM561 -100l2 59q0 16 12.5 27.5t30 11.5t28.5 -12.5t11 -30.5l-2 -59q0 -16 -12.5 -27.5t-29.5 -11.5t-28.5 12t-11.5 31z" />
<glyph unicode="'" horiz-adv-x="206" d="M49 1503q-2 16 9.5 29.5t27.5 15.5t29.5 -9.5t15.5 -27.5q6 -61 6 -161q-2 -123 0 -156q0 -16 -11 -29.5t-27.5 -13.5t-30 11.5t-13.5 27.5q-2 35 0 160q0 96 -6 153z" />
<glyph unicode="(" horiz-adv-x="495" d="M72.5 737q3.5 213 68.5 434q20 68 64 172q53 125 65 164q6 16 21.5 23.5t32 1.5t23.5 -21.5t1 -31.5q-16 -43 -67 -168q-43 -100 -62 -164q-61 -211 -65 -410q-2 -203 63.5 -397.5t198.5 -353.5q12 -12 10 -29.5t-14.5 -29t-29.5 -9.5t-28 14q-145 174 -215 383 t-66.5 422z" />
<glyph unicode=")" horiz-adv-x="425" d="M70 1485q-6 16 1 31.5t22.5 22.5t30.5 0t23 -21q14 -39 50 -115t64 -141.5t42 -126.5q53 -205 59.5 -423t-48 -443.5t-169.5 -393.5q-10 -14 -26.5 -17t-30.5 6t-17 25.5t5 30.5q109 158 159 369t44.5 420t-54.5 405q-16 57 -40.5 117.5t-59.5 133.5t-55 120z" />
<glyph unicode="*" horiz-adv-x="821" d="M70 890.5q-4 16.5 4 31t24 18.5q76 20 178 82l74 43q-111 76 -184 117q-14 8 -19.5 23.5t4 30.5t24.5 20.5t32 -5.5q76 -41 196 -123q6 98 7 191q0 16 12 28.5t28.5 12.5t29 -12.5t12.5 -28.5q0 -88 -7 -182q23 10 62 25.5t67.5 28.5t55.5 30q14 8 30.5 4t24.5 -18.5 t4 -31t-18 -24.5q-27 -18 -64 -33l-78 -33q-43 -18 -61 -26q129 -86 223 -131q14 -8 20.5 -23.5t-2 -31t-23.5 -21.5t-32 2q-96 45 -223 131q-14 -129 -39 -244q-4 -16 -18.5 -25t-30.5 -6t-25.5 17t-7.5 31q25 113 39 235l-70 -41q-117 -68 -200 -90q-16 -4 -30.5 4 t-18.5 24.5z" />
<glyph unicode="+" horiz-adv-x="747" d="M15 798.5q-3 16.5 6.5 31t25.5 18.5q45 8 225 55q-12 170 27 291q4 16 19.5 24.5t32 3.5t24.5 -21t2 -32q-33 -102 -25 -247q164 39 285 39q16 0 28.5 -12.5t12.5 -29t-12.5 -28.5t-28.5 -12q-117 0 -277 -39q18 -135 64 -244q6 -16 -1 -31.5t-22.5 -22.5t-31 0t-23.5 21 q-45 115 -65 256q-154 -39 -218 -53q-16 -2 -30.5 7t-17.5 25.5z" />
<glyph unicode="," horiz-adv-x="370" d="M3 -209q3 16 17 27q225 145 197 368q-2 16 8.5 29.5t27.5 15.5t30.5 -8t15.5 -28q35 -272 -233 -447q-14 -8 -31 -5t-26 17.5t-6 30.5z" />
<glyph unicode="-" horiz-adv-x="671" d="M28 605.5q-3 17.5 6 30.5t25 17q100 16 250 33q225 23 248 25q16 2 29.5 -8.5t15.5 -28t-8 -30.5t-29 -15q-23 -2 -248 -25q-152 -14 -241 -33q-18 -2 -31.5 7.5t-16.5 27z" />
<glyph unicode="." horiz-adv-x="194" d="M41 61.5q0 16.5 12.5 28.5t28.5 12t28.5 -12t12.5 -28.5t-12.5 -29t-28.5 -12.5t-28.5 12.5t-12.5 29z" />
<glyph unicode="/" horiz-adv-x="985" d="M39 82q20 51 49 108.5t51.5 98.5t63.5 106l57 92l68 103l59 92l84 129l92 143l86 123q51 76 99.5 139.5t99.5 120.5q10 12 27.5 14.5t30 -9t14.5 -29t-11 -29.5q-59 -70 -129 -162l-100 -141q-33 -47 -123 -186.5t-100 -157.5q-10 -16 -60.5 -91t-66.5 -102l-58 -92 q-41 -63 -61 -102l-49 -94q-27 -55 -45 -103q-8 -16 -23.5 -23t-31 0t-22.5 22.5t-1 29.5z" />
<glyph unicode="0" horiz-adv-x="942" d="M76 594q2 197 45 379q45 186 110 287q61 92 141.5 145t166.5 57q88 4 168.5 -45t140.5 -149q8 -14 4 -30.5t-18.5 -25t-31 -4t-24.5 18.5q-98 160 -235 153.5t-242 -166.5q-59 -88 -100 -263t-43 -359q-2 -201 49 -345.5t153 -191.5q158 -72 267 43q106 109 147 342 q39 223 -2 443q-41 221 -143 307q-39 31 -87 35t-87 -18.5t-68 -58.5t-30 -84t24 -95q18 -31 58 -38t71 13q27 14 29 37q2 29 -43 68q-12 10 -14.5 27.5t9 29.5t29 14t29.5 -10q76 -63 72 -135q-4 -66 -70 -103q-37 -20 -80 -24t-88 15.5t-72 64.5q-33 55 -35 115.5 t22 110.5t67 88t94 55.5t110.5 7t112.5 -53.5q125 -102 172 -354q41 -231 0 -471q-45 -258 -168 -385q-150 -156 -358 -59q-72 33 -123 96t-79 148t-40 175q-12 88 -10 193z" />
<glyph unicode="1" horiz-adv-x="995" d="M143 1041.5q-6 60.5 12.5 107.5t49.5 82q57 66 119 45q66 -23 65 -133q0 -16 -12 -28.5t-28.5 -12.5t-29 12t-12.5 29q0 43 -10 55q-14 -2 -33 -22q-33 -37 -39 -89.5t27 -109.5q8 -12 27 -19q16 -6 24 -4q43 14 86 84q37 61 72 162q25 76 45 158l10 51l4 14q0 4 2 7v4 q2 4 4 6q2 6 6 10q12 10 29 10q12 0 21.5 -6t13.5 -12l2 -6q2 -4 4 -11q2 -4 2 -10q0 -8 2 -24v-68v-49v-39v-21q0 -33 -12 -268q-20 -391 22 -905q150 -27 258 14q16 6 32 -1t22 -23.5t-1 -31.5t-24 -22q-63 -23 -132 -27.5t-108.5 0.5t-105.5 19q-63 12 -96 16.5t-80 0.5 t-88 -25q-16 -8 -31.5 -2t-24 21.5t-2 31t20.5 23.5q111 53 276 22q-41 504 -20 893q2 23 5 84.5t5 93.5q-29 -78 -63 -133q-59 -94 -131 -118q-37 -12 -82 6q-39 16 -60 45q-37 53 -43 113.5z" />
<glyph unicode="2" horiz-adv-x="1267" d="M170 1120q25 119 137.5 205t251.5 117q145 31 273.5 -12.5t179.5 -172.5q72 -182 -97 -378q-39 -45 -89 -91.5t-111 -97.5l-82 -67q-133 -119 -264 -263q-70 -74 -93 -161q55 41 132 57t139 -2q39 -10 77 -29.5t85 -52.5l59 -41q111 -68 229 -39q31 8 64 27.5t47 40.5 q31 43 27 90q-4 66 -48 92q-39 25 -86 14q-43 -8 -51 -30q-10 -20 27 -54q12 -12 13 -28.5t-10 -28.5t-27.5 -13t-28.5 9q-82 72 -50 145q27 63 111 80q80 16 145 -24q78 -49 87 -154q6 -78 -43 -147q-25 -35 -70 -62q-45 -25 -86 -35q-152 -39 -293 47q-23 14 -66 44 t-71.5 45.5t-61.5 25.5q-51 12 -114.5 -3t-98.5 -50q-16 -18 -34 -57q-2 -4 -5.5 -11.5t-4.5 -11.5t-3 -6q-4 -10 -10 -17q-23 -27 -53 -12q-41 20 -29 74l4 12q2 6 2 8t1 4.5t1 4.5q8 180 125 307q129 137 273 266q25 23 84 70q59 49 106 92t84 86q135 160 80 297 q-35 92 -133.5 126t-222.5 5q-123 -25 -215.5 -96.5t-110.5 -159.5q-14 -63 22 -100q35 -37 97 -41q63 -4 104 25.5t37 82.5q-2 27 -21.5 40t-66.5 24q-16 4 -25.5 18t-6.5 30.5t17.5 26t30.5 7.5q29 -6 48.5 -13.5t46 -23t42 -42t17.5 -63.5q6 -100 -66.5 -150.5 t-160.5 -43.5q-94 6 -152 65q-66 70 -45 174z" />
<glyph unicode="3" horiz-adv-x="1157" d="M141 313q16 68 83 127.5t147 94.5q88 35 157 26q90 -12 123 -92q25 -74 1.5 -131t-79.5 -90q-47 -33 -114.5 -26t-110.5 63q-10 12 -8 29.5t15.5 27.5t30.5 8t28 -16q20 -27 54 -31t62 14q33 20 45.5 51t-2.5 72q-12 33 -55 39q-49 6 -116.5 -21.5t-119 -74.5t-63.5 -90 q-29 -123 59.5 -190.5t247.5 -65.5q164 4 308 86q145 82 194 225q45 129 -6 270q-53 141 -176 191q-70 31 -182 10q-20 -2 -62 -20q-20 -8 -22 -8q-2 -2 -5 -3q-4 -2 -8 -2q-14 0 -28 11q-25 20 -11 49q2 6 9 12q2 2 5 4t11 6q33 20 154 78q90 43 137 82q51 41 77.5 78 t32.5 90q12 80 -51 117t-181 24.5t-219.5 -65.5t-129.5 -121q-6 -16 -21.5 -22.5t-32 1t-22.5 23t2 31.5q39 94 161 157.5t253 77.5q143 14 231 -35q111 -63 92 -200q-10 -72 -45 -122t-94 -99q-39 -31 -90 -58q39 -6 72 -18q78 -33 136 -98.5t83.5 -143.5t31 -165 t-23.5 -161q-41 -115 -138.5 -198.5t-210 -122.5t-229.5 -43q-188 -4 -299 82q-131 102 -88 276z" />
<glyph unicode="4" horiz-adv-x="1249" d="M94 532q-6 16 2 35q4 16 23 33q2 4 22 23q10 10 15 12l80 110q45 63 73 109q154 252 295 604q-2 16 8.5 28.5t26.5 16.5q14 2 27 -6q32 -14 22 -49q14 -90 16.5 -208t-1 -208t1.5 -201q6 -166 8 -247q100 -33 161 -45q96 -20 152 -9q55 14 74 66q6 16 -8.5 34.5 t-42.5 24.5q-23 4 -31 -4q-10 -10 -2 -47q2 -16 -6.5 -30.5t-25.5 -17.5t-31.5 5t-18.5 27q-18 80 29 123q39 37 102 24q53 -10 93 -56t20 -108q-33 -96 -134 -120q-74 -16 -186 8q-59 12 -141 37q8 -272 8 -480q0 -16 -12.5 -28.5t-28.5 -12.5t-28.5 12.5t-12.5 28.5 q0 215 -10 508q-66 20 -92 25q-49 8 -144 4q-123 -6 -194 -29q-4 -4 -15 -12q-37 -29 -69 -8q-18 10 -25 28zM244 618q61 12 149 17q104 4 160 -4q29 -5 78 -21q-2 70 -8 217q-2 80 0 233.5t-2 225.5q-117 -270 -242 -473q-29 -49 -78 -115z" />
<glyph unicode="5" horiz-adv-x="1140" d="M129 328q14 90 92 143t176 61q96 10 184.5 -24.5t125.5 -114.5q41 -86 4 -143q-31 -49 -107 -60q-57 -10 -124.5 3.5t-108.5 39.5q-14 10 -17.5 26.5t6 31t25.5 17.5t31 -5q27 -18 80 -28.5t96 -4.5q39 6 49 25q12 18 -8 65q-23 49 -86.5 74t-142 17.5t-132 -45 t-61.5 -91.5q-23 -137 70 -211q88 -70 243 -67q156 4 291 83t176 208q35 113 22.5 234.5t-65.5 217.5q-57 102 -151.5 153.5t-216.5 35.5q-84 -10 -162 -47t-111 -91v-10v-6q-4 -47 -39 -61q-20 -6 -39 2q-18 10 -22 32q-2 12 2 31q2 8 3 14.5t2 9.5t1 5q4 82 6 145 q0 14 -1 39t-3 59.5t-4 59.5q-2 57 0 94q2 51 12 74q2 8 8.5 13t10.5 7l4 2l10 5q8 2 21 4q20 4 61 8q55 8 192 24q328 39 394 52q18 2 31.5 -7.5t16.5 -27t-6.5 -30.5t-25.5 -17q-47 -8 -401 -52l-189 -22q-37 -6 -55 -8q-2 -12 -2 -29q-2 -33 0 -86q2 -25 4 -61.5t3 -62 t1 -38.5q0 -23 -2 -47q104 82 266 105q152 20 267.5 -44.5t183.5 -185.5q63 -113 77.5 -252t-26.5 -266q-35 -109 -125 -189.5t-199 -117.5q-106 -39 -219 -41q-184 -4 -297 86q-129 104 -100 287z" />
<glyph unicode="6" horiz-adv-x="1124" d="M139 479q0 156 41 320q39 164 99 276q86 160 147 228q125 135 264 90q16 -4 24.5 -19.5t3.5 -32t-20.5 -24.5t-31.5 -2q-90 29 -181 -68q-55 -61 -133 -209q-55 -104 -93 -257.5t-38 -301.5q2 -313 185 -411q-61 76 -48 227q12 145 82 274q82 147 201 195q141 57 295 -51 q76 -53 102.5 -144.5t8 -187.5t-67.5 -184q-84 -143 -229.5 -215t-315.5 -17q-80 27 -139 80t-92 124t-47.5 146.5t-16.5 163.5zM438 287q-10 -121 33 -172q33 -37 80 -29q51 8 105.5 57.5t83 111.5t18.5 103q-6 23 -25.5 35.5t-46.5 9.5q-66 -6 -84 -84q-4 -16 -18.5 -24 t-30.5 -4t-24.5 18.5t-4.5 30.5q14 63 57.5 101t98.5 42q51 6 96 -22.5t60 -81.5q18 -70 -20 -153t-105 -144q-35 -31 -72 -51q82 16 151.5 71.5t116.5 135.5q70 119 65 236.5t-85 172.5q-115 82 -217 41q-90 -37 -156 -158q-63 -117 -76 -243z" />
<glyph unicode="7" horiz-adv-x="1064" d="M88 1276q6 74 113 129q123 66 307 29q33 -6 145 -33q84 -23 133 -27q96 -10 136 2l6 4h4l6 4q29 12 49 -10q4 -4 7 -10t3 -10l2 -4q6 -35 -26 -66l-10.5 -7t-6.5 -3v-4h-4q-66 -94 -133 -244l-104 -233l-115 -256l-100 -230q-57 -135 -101 -250q-6 -16 -21.5 -23 t-31.5 -1t-23.5 21.5t-0.5 31.5l102 254l98 229l117 254l106 236q59 135 121 229q-39 -2 -88 4q-51 6 -145 29q-109 27 -139 33q-133 25 -220 -6q9 -7 13 -17q39 -102 -17 -149q-49 -43 -116 -11q-72 35 -66 105zM170 1270q-2 -14 18.5 -23.5t28.5 -3.5q14 2 -8 60 q-2 4 -2 10q-35 -25 -37 -43z" />
<glyph unicode="8" horiz-adv-x="952" d="M147 924q-37 121 33 241.5t193 198.5q78 49 159.5 68.5t165.5 -5t138 -104.5q8 -14 5 -30.5t-17.5 -26t-31 -6t-26.5 17.5q-51 80 -149.5 82t-200.5 -66q-104 -70 -160 -164q-55 -98 -31 -182q12 -39 68 -78q20 -16 55 -34l53 -33l131 -78l21 27q86 102 132 187t46 169 q0 47 -39 78t-96 31q-55 -2 -95 -41t-40 -121q0 -16 -12.5 -28.5t-29 -12.5t-28.5 12t-12 29q0 115 63.5 178t153.5 65q82 2 149.5 -50t67.5 -140q0 -104 -52 -201.5t-145 -208.5l-14 -16q104 -70 174 -150q84 -92 120 -196.5t13 -196.5q-25 -98 -111.5 -157.5t-228.5 -69.5 q-229 -16 -315 133q-82 141 20 346q47 92 203 273l-117 69l-53 31q-37 23 -61 39q-80 57 -99 121zM325.5 85q59.5 -103 239.5 -91q117 8 182.5 53t82 112.5t-12.5 151.5q-29 86 -102 168q-66 73 -166 139l-82 -94q-25 -29 -61.5 -79t-57.5 -91q-82 -166 -22.5 -269z" />
<glyph unicode="9" horiz-adv-x="886" d="M74 807q-10 133 30 250q41 129 123 230.5t187 131.5q160 47 229 -39q55 -70 29 -186q-25 -109 -90 -145q-47 -25 -90 4q-37 23 -60 86q-6 16 1 31.5t23.5 21.5t32 -1.5t21.5 -23.5q12 -39 27 -47q2 -2 4 0q35 18 51 92q18 78 -14 117q-35 43 -140 12 q-82 -25 -150.5 -109.5t-103.5 -199.5q-37 -113 -28 -221q8 -106 63 -170q88 -102 193 -53q47 23 90 71t71 107q12 29 24.5 65.5t18.5 63.5l17 72q10 47 16 71l15 62v2v8l8 51l2 4q-2 0 -1 6.5t1 12.5q2 18 6 28q10 18 28.5 22.5t36.5 -5.5q8 -6 15 -17q2 -2 3 -6t1 -8 q2 -6 2 -14q2 -14 4 -41q4 -43 8 -117l8 -190q31 -696 39 -799q2 -18 -9 -30.5t-28.5 -14.5t-30 9t-14.5 28q-12 160 -38 802q-2 27 -3 70q-25 -104 -55 -168q-33 -72 -85 -131t-116 -88q-68 -37 -145 -18q-78 16 -143 92q-74 84 -84 219z" />
<glyph unicode=":" horiz-adv-x="278" d="M76 141.5q0 16.5 12 28.5t28.5 12t29 -12t12.5 -28.5t-12.5 -29t-29 -12.5t-28.5 12.5t-12 29zM125 901.5q0 16.5 12.5 28.5t28.5 12t28.5 -12t12.5 -28.5t-12.5 -29t-28.5 -12.5t-28.5 12.5t-12.5 29z" />
<glyph unicode=";" horiz-adv-x="217" d="M-109.5 -161.5q5.5 16.5 21.5 24.5q125 66 156 239q4 18 17 27.5t30.5 6.5t27 -16.5t7.5 -29.5q-37 -215 -201 -301q-14 -8 -30.5 -3t-25 20.5t-3 32zM70 909.5q0 16.5 12 28.5t28.5 12t29 -12t12.5 -28.5t-12.5 -29t-29 -12.5t-28.5 12.5t-12 29z" />
<glyph unicode="&#x3c;" horiz-adv-x="653" d="M106 588q2 8 9 20q4 6 12 17l37 49l112 139q178 223 191 240q10 14 26.5 16t31 -8t16 -26.5t-8.5 -30.5q-12 -16 -192 -242l-111 -139l-36 -48l-7 -8q2 -6 4 -14q10 -23 33 -55q39 -57 117 -148q70 -80 135 -145q68 -68 98 -90q33 -25 8.5 -57.5t-57.5 -8.5 q-88 66 -245 248q-80 90 -123 156q-27 39 -39 67q-18 39 -11 68z" />
<glyph unicode="=" horiz-adv-x="690" d="M82 656.5q0 17.5 11.5 29.5t27.5 12q63 2 208.5 31t225.5 29q16 0 28.5 -12.5t12.5 -29t-12.5 -28.5t-28.5 -12q-72 0 -209 -27q-150 -31 -221 -33q-18 0 -30.5 11.5t-12.5 29zM126 929.5q-3 16.5 7.5 30t26.5 17.5q35 6 183.5 23.5t223.5 37.5q16 4 30.5 -4t19 -24.5 t-4 -30.5t-24.5 -18q-78 -23 -236.5 -42.5t-179.5 -23.5q-16 -2 -29.5 8t-16.5 26.5z" />
<glyph unicode="&#x3e;" horiz-adv-x="653" d="M99 1042.5q3 16.5 17.5 25.5t31 6t26.5 -17q8 -14 19.5 -28.5t25.5 -33.5l29 -28q10 -14 32.5 -37t33 -34t38 -38t35.5 -37q168 -168 195 -243q10 -29 -7 -68q-10 -29 -32 -66q-39 -59 -113 -147l-82 -96l-84 -95q-41 -41 -49 -51q-10 -12 -27.5 -13t-30 9t-13.5 27.5 t10 30.5q10 10 49 53l82 92q41 45 82 94q74 90 106 139q18 31 27 52q2 8 4 12q-23 59 -174 213l-41 41l-45 45q-10 10 -37 39l-41 45l-33 37q-16 23 -29 41q-8 14 -5 30.5z" />
<glyph unicode="?" horiz-adv-x="782" d="M12.5 1120.5q-1.5 16.5 10.5 30.5q43 55 103 102t136 83t153 41t156 -21q115 -47 136 -129q27 -102 -58 -217q-43 -55 -178 -183q-125 -117 -166 -184q-66 -96 -45 -186q6 -35 36 -49.5t71 -4.5q41 12 63.5 41t15.5 64q-4 25 -10 35q-12 -4 -25.5 -23.5t-21.5 -46.5 q-4 -16 -18.5 -24.5t-30.5 -4t-24.5 18.5t-4.5 31q8 39 33 73.5t57 50.5q45 20 84 -10q31 -25 43 -84q12 -74 -31.5 -128t-109.5 -70q-68 -18 -129 9t-80 105q-25 123 58 248q51 78 178 199q133 123 170 172q61 84 45 147q-12 43 -86 72q-111 45 -240 -12 q-129 -59 -219 -168q-10 -12 -26.5 -14.5t-30 9t-15 28zM326 96.5q0 16.5 12 28.5t28.5 12t29 -12t12.5 -28.5t-12.5 -29t-29 -12.5t-28.5 12.5t-12 29z" />
<glyph unicode="@" horiz-adv-x="1523" d="M29 610q14 180 114 357q100 178 256 303q106 86 223 133t248 52t256 -56q152 -70 209 -201q33 -80 33 -186.5t-31 -210.5q-35 -113 -97 -199t-153 -113q-92 -29 -163 11q-63 35 -95 112q-8 16 -12 33q-72 -98 -139 -170q-63 -66 -115 -96q-74 -45 -129 -21 q-109 47 -78 220q25 131 119 286.5t195 229.5q59 43 110 49q66 4 107 -49q10 -12 8 -29.5t-15.5 -28t-31 -8.5t-27.5 16q-14 18 -35 17q-29 -2 -67 -33q-86 -63 -174 -207q-86 -143 -109 -258q-18 -109 31 -131q16 -6 53 17q43 27 98 83q80 84 158 195q12 20 27 51 q6 72 33 127q2 4 6 8q10 14 26 17q29 4 43 -23q4 -6 5.5 -14t-1.5 -21q-2 -18 -4 -34q-8 -35 -26 -78q0 -68 20 -115q20 -51 58 -74q41 -23 100 -4q63 20 114.5 89t79.5 167q29 94 29 189.5t-24 152.5q-45 102 -168 160q-109 51 -224 47q-113 -2 -217 -45t-202 -121 q-143 -115 -235.5 -277.5t-104.5 -322.5q-18 -254 127 -391q133 -123 366 -137q223 -10 450.5 81t346.5 247q10 14 27.5 16t31 -8.5t15.5 -27.5t-9 -30q-133 -174 -378.5 -273t-487.5 -85q-262 12 -418 158q-176 166 -153 454z" />
<glyph unicode="A" d="M37 94q-7 33 -7 67q0 40 9 82q16 79 61 126q46 48 98 48q12 0 25 -3q57 -10 88 -68q21 -38 21 -77q0 -18 -4 -36q-16 -66 -86 -92q-16 -6 -31.5 1.5t-22 23.5t1 31.5t23.5 21.5q29 10 35 35t-8 51q-12 25 -33 29t-45 -23q-32 -31 -44 -89q-7 -31 -7 -60q0 -26 6 -51 q12 -49 41 -68q16 -10 37 -10t47 10q66 25 141 170q59 117 119 303q-154 18 -223 119q-10 14 -7.5 31.5t16 26.5t31 6t25.5 -15q51 -74 174 -88h8q74 250 142 594q2 4 6 24l8 58q4 37 6 61q8 59 14 92q4 20 7 33q0 6 2 10q0 4 2 9q4 10 12 16q14 11 28 11q9 0 19 -5 q14 -6 21 -20q4 -8 8 -25q4 -18 6 -51q4 -39 6 -76q8 -182 16 -233q10 -57 31 -206t35 -226q113 45 198 104t117 117q33 60 33 93q0 16 -8 25q-15 16 -44 16q-17 0 -38 -5q-66 -14 -86 -54q-4 -9 -4 -19q0 -29 41 -60q14 -12 16 -28.5t-9 -30t-27.5 -15.5t-28.5 8 q-75 61 -75 124q0 29 15 58q37 74 140 97q32 8 60 8q65 0 101 -45q28 -32 28 -77q0 -57 -44 -136q-41 -74 -141.5 -143.5t-225.5 -118.5q45 -197 129 -330q78 -123 168 -150q26 -8 50 -8q46 0 90 28q66 44 90 122q12 36 12 70q0 41 -16 79q-20 43 -78 60q-17 4 -31 4 q-37 0 -61 -29q-29 -42 -29 -105v-8q4 -59 27 -71l6 -2q19 0 61 53q10 14 27.5 16t31 -8t15.5 -27.5t-8 -29.5q-67 -86 -129 -86q-21 0 -41 10q-66 33 -72 141v14q0 89 47 152q48 62 120 62q28 0 60 -9q92 -27 127 -100q25 -59 25 -118q0 -48 -16 -94q-36 -106 -123 -165 q-65 -42 -136 -42q-36 0 -73 11q-119 37 -213 185q-88 141 -137 348l-27 -6q-119 -33 -223 -35q-61 -205 -131 -338q-90 -172 -185 -209q-41 -16 -77 -16q-44 0 -80 24q-57 39 -76 121zM612 594q82 6 174 31q16 4 31 10q-16 86 -38.5 241.5t-30.5 204.5q-4 25 -7 54 q-61 -305 -129 -541z" />
<glyph unicode="B" horiz-adv-x="1138" d="M54 968v89v123q1 140 1 198q0 16 12.5 28.5t29 12.5t28.5 -12t12 -29v-59q47 43 103 72q59 31 137 52q61 16 113 17q15 0 30 -2q86 -8 127 -65q31 -44 31 -107q0 -32 -8 -69q-27 -115 -127 -246q16 6 26 8q54 11 106 11q85 0 163 -30q126 -48 198 -161q72 -107 72 -245 v-15q-4 -174 -131 -304.5t-301 -189.5q-122 -42 -227 -42q-43 0 -82 7q-100 20 -152 80l12 -43q6 -16 -2 -31q-9 -14 -25 -20q-7 -3 -13 -3q-9 0 -17 5q-14 8 -20 25q-14 41 -24.5 92t-15 76.5t-12.5 97t-10 80.5q-12 104 -20.5 203.5t-10.5 211.5t-3 184zM136 930 q1 -124 8.5 -269t25.5 -280q2 -20 8 -76q25 70 88.5 131.5t141.5 102.5q117 61 223 63h17q114 0 167 -74q31 -41 31 -83q0 -30 -17 -60q-29 -57 -102 -92q-54 -31 -132 -31h-10q-85 2 -134 51q-10 12 -10.5 29.5t12 29t30 11.5t29.5 -12q23 -27 74 -28h4q49 0 102 24 q49 23 66 55q14 27 -8 57q-32 43 -110 43h-7q-88 -4 -187 -55q-100 -53 -155 -128q-44 -60 -44 -114q0 -14 3 -28q20 -84 131 -105q36 -7 75 -7q88 0 193 36q158 55 265.5 166.5t111.5 251.5v11q0 178 -127 280q-96 77 -218 78q-45 0 -95 -11q-53 -10 -168 -82l-17 -10 l-57 -66l-33 -34l-10 -13l-2 -4q-2 -2 -4 -2q-2 -2 -6 -4q-8 -6 -17 -6q-14 -2 -24 6q-14 8 -19 25q-2 9 -2 18q0 41 45 84q29 28 76 59l78 90q23 25 66 80.5t64.5 101.5t31.5 93q8 33 8 58q0 33 -14 52q-20 27 -70 33q-10 1 -20 1q-44 0 -96 -14q-66 -17 -120 -46 q-63 -35 -137 -111q0 -2 -2 -2q-1 -100 -1 -189v-85z" />
<glyph unicode="C" horiz-adv-x="1292" d="M104 446q-19 87 -19 178q0 123 34 255q29 111 93 227.5t153 202.5q66 66 136 103q71 38 159 47q16 2 31 1q73 0 147 -33q156 -65 211 -199q25 -60 25 -126q0 -78 -36 -162q-66 -154 -182 -180q-28 -7 -53 -7q-63 0 -111 44q-58 53 -70 139q-3 22 -3 42q0 60 28 105 q44 70 127 70h14q41 -4 70 -29.5t37 -66.5q2 -14 2 -27.5t-1 -24t-5 -22.5l-8 -16q-2 -6 -8.5 -17.5t-8.5 -15.5q-8 -14 -24.5 -20.5t-30.5 2t-20 25t2 30.5q4 6 8 16l8 14q2 4 4 9.5t2 9.5v8q0 6 -2 12q-4 29 -33 31h-9q-36 0 -54 -31q-17 -27 -17 -65q0 -13 2 -27 q10 -57 45 -90q25 -24 60 -23q14 0 29 3q76 18 127 135q28 66 28 127q0 50 -19 97q-42 103 -167 157q-61 25 -120 25q-134 0 -263 -128q-80 -80 -139 -186t-86 -207q-31 -125 -30 -237q-1 -82 15 -158q38 -180 154 -291q74 -74 170 -106q57 -19 125 -18q46 0 98 8 q127 22 262 106q147 92 195 182q8 16 24.5 21.5t31.5 -3.5q14 -8 20 -24q2 -7 3 -13q0 -9 -5 -18q-59 -113 -228 -215q-146 -92 -290 -116q-57 -10 -110 -10q-78 0 -148 22q-114 37 -205 125q-131 129 -175 333z" />
<glyph unicode="D" horiz-adv-x="1441" d="M100 1383q0 14 10 25q12 13 27 15q57 6 114 6q257 -1 507 -131q304 -160 489 -434q125 -188 125 -387v-18q-6 -250 -215 -365q-103 -56 -251 -72q-62 -7 -118 -6q-77 0 -143 13q-68 12 -135.5 56t-116.5 105q-6 -96 -31 -167q-6 -17 -20 -25q-8 -5 -17 -4q-5 0 -13 2 q-16 6 -24.5 20.5t-2.5 30.5q20 59 25 138q3 49 3 90q0 25 -1 47q-3 58 -13 159t-12 142q-33 489 -70 725q-35 -2 -72 -7q-15 -3 -29 9q-16 14 -16 33zM301 1346q37 -236 68 -719q2 -25 4 -62q57 66 155.5 101.5t202.5 38.5h10q123 1 225 -47q106 -50 142 -156 q13 -38 12 -70q0 -78 -73 -123q-67 -42 -173 -42q-14 0 -28 1q-117 8 -184 54q-45 29 -52 69q-1 6 -1 11q0 40 40 73q12 12 27.5 19.5t29 10.5t31 4t28.5 1t29.5 -3t25.5 -5t24.5 -6t19.5 -7q16 -4 24.5 -18t4.5 -30.5t-18.5 -24.5t-30.5 -4q-43 10 -60.5 13t-42 2 t-39.5 -13q-8 -7 -10 -13q2 -4 15 -12q49 -33 143 -39q15 -1 28 -1q80 0 126 30q33 21 33 59q0 18 -7 39q-22 70 -104 109q-78 37 -182 37h-10q-110 -2 -201 -42t-121 -104q-19 -38 -19 -78q0 -70 58 -147q41 -55 98 -93t113 -48q61 -14 133 -13q48 0 101 6q132 16 220 64 q168 90 174 293v12q0 178 -112 346q-147 221 -385 365q-236 145 -492 162z" />
<glyph unicode="E" horiz-adv-x="1200" d="M81 410q-7 43 -7 83q0 62 16 121q25 104 93.5 184.5t170.5 110.5q8 2 21 4q-45 39 -77 85t-52 100q-13 35 -12 74q0 20 4 42q10 62 51 119q49 68 124.5 100.5t161.5 32.5q84 -2 162 -33.5t133 -89.5l19 -22q8 -12 14 -22.5t12.5 -26t8.5 -23.5l6 -24q6 -16 7 -21.5t4 -25 t5 -21.5q2 -16 -7 -30.5t-25.5 -17.5t-31 6.5t-18.5 25.5q0 4 -2 12q-6 37 -11 55.5t-15.5 40t-26.5 37.5q-88 96 -234 98h-6q-143 0 -215 -100q-36 -50 -36 -104v-14q6 -62 42.5 -116.5t98.5 -99.5q10 -8 69 -35q51 -4 84 -10q25 -6 39 -12q31 -16 35 -45q2 -23 -12 -37 q-12 -12 -29 -16q-16 -2 -39 4q-27 6 -74 24l-22 11q-22 1 -43 1l-43 -1q-39 0 -45 -3q-80 -25 -134.5 -87t-76.5 -150q-12 -49 -12 -100q0 -35 6 -71q14 -87 59 -151q97 -134 243 -196q96 -41 193 -40q51 0 103 11q150 33 246 166q58 81 58 156q0 10 -1 20q-6 70 -54 124 t-114 73q-28 9 -55 9q-32 1 -62 -13q-54 -24 -84 -99q-12 -29 -13 -63.5t11 -54.5q26 -48 72 -48h2q49 4 94 48q35 35 35 58q0 21 -57 21q-16 0 -28.5 12.5t-12.5 29t12 28.5t29 12q127 0 139 -86q1 -7 0 -14q0 -61 -62 -119q-66 -63 -143 -69q-8 -1 -15 -1q-89 0 -139 87 q-19 47 -19 93q0 51 17 95q43 106 127 143q49 22 102 22q37 0 75 -11q86 -27 150.5 -99.5t74.5 -169.5q1 -14 1 -28q0 -101 -75 -205q-88 -121 -215 -172q-94 -38 -190 -38l-64 4q-127 17 -246.5 87t-199.5 178q-57 81 -75 187z" />
<glyph unicode="F" horiz-adv-x="1429" d="M152 477q28 92 104 132q53 28 108 28q25 0 50 -6q84 -16 137 -83q41 -51 40 -120q0 -21 -3 -43q-8 -47 -36 -78t-69 -37q-12 -2 -23 -2q-61 0 -116 54q-12 10 -12 27.5t11 29.5t28.5 12t29.5 -12q30 -28 59 -28l11 1q29 4 35 45q2 15 2 28q0 43 -24 75q-32 42 -87 51 q-18 4 -34 4q-36 1 -68 -17q-47 -26 -66 -85q-6 -20 -5 -40q0 -59 50 -122q68 -82 197 -141q127 -56 250 -64q16 -1 31 -1q101 0 157 44q64 50 64 188q0 34 -4 74q-6 68 -29 174q-23 117 -27 144l-65 24q-8 2 -51 18.5t-54 18.5l-45 16q-37 12 -49 17l-45 8q-29 8 -46 8 t-40.5 -1t-46.5 -7q-16 -2 -30.5 6t-17.5 25.5t5.5 32t26.5 18.5q29 6 59 8h16q24 0 50 -4l59 -8q23 -2 64.5 -16.5t55 -18.5t62.5 -23.5t56 -21.5l26 -10q-4 48 -4 100q0 65 6 135q12 166 41 246l15 29l16 39l2 2q-18 -2 -47 -7l-127 -16q-12 -2 -98 -14.5t-124 -15.5 t-110 -4h-9q-67 1 -118 15q-55 16 -102 44q-14 8 -18.5 24.5t4 30.5t24.5 18.5t31 -4.5q39 -23 82 -35q42 -11 100 -11h9q64 1 96 3t118 15q84 14 103 16l129 16q49 6 77 9q16 0 27 2q6 0 12 -2q6 0 11 -2q23 -6 26 -29q4 -12 0 -29q-2 -8 -6 -20q-6 -14 -16 -41l-19 -39 q-8 -18 -10 -23q-27 -68 -37 -221q-5 -72 -5 -136t5 -122q66 -18 123 -18q73 0 131 30q70 36 70 86q0 39 -35 70q-33 29 -57 18q-31 -10 -33 -81q0 -16 -12.5 -27.5t-30 -11.5t-28.5 12t-11 31q4 125 86 155q21 7 41 7q50 0 100 -42q62 -52 62 -126v-13q-4 -94 -115 -151 q-76 -39 -170 -39q-52 0 -109 12q2 -8 21 -102q25 -113 31 -183q4 -42 4 -80q0 -178 -97 -256q-57 -47 -149 -57q-32 -3 -64 -3q-63 1 -125 13q-94 20 -184 60q-145 68 -225 164q-68 85 -68 172q0 32 9 65z" />
<glyph unicode="G" horiz-adv-x="1499" d="M141 592q-1 31 -1 61q0 507 253 752q70 68 147 95q50 17 98 17q24 0 48 -5q70 -13 129 -56q86 -66 130 -176q31 -79 31 -162q0 -34 -5 -69q-2 -16 -16.5 -26.5t-31 -8.5t-26.5 16t-8 31q5 30 5 60q0 66 -24 128q-36 90 -104 140q-43 33 -92 43q-16 3 -33 3q-36 0 -75 -13 q-60 -21 -115 -74q-229 -221 -229 -690q0 -30 1 -62q2 -100 24.5 -175t74.5 -155q61 -98 139 -142q71 -40 138 -40h11q72 4 142 45q100 59 164 172q63 110 63 232v8q-42 -2 -85 -2q-72 0 -149 6q-16 2 -27 15t-9 29.5t15.5 28t29.5 9.5q68 -6 135 -6q94 0 184 12l57 6 q39 4 54 6h2q12 6 14 6q16 4 29 2q27 -2 39 -26q6 -12 4 -27q-2 -4 -2 -6q-2 -4 -3 -7t-5 -7l-13 -19l-35 -53q-55 -84 -63 -109q-76 -178 -94 -376q-5 -46 -5 -85q0 -66 13 -112q23 -82 82 -107q18 -7 40 -7q16 0 34 4q43 8 79 36q65 47 65 102q0 15 -5 31q-7 26 -32 26 q-9 0 -19 -3q-34 -11 -34 -48q0 -10 3 -22q2 -16 -6 -30.5t-25.5 -17.5t-32 5t-18.5 27t-4 36q0 37 18 67q25 44 74 61q19 6 39 6q26 0 52 -10q46 -19 63 -72q8 -28 8 -54q0 -37 -16 -71q-27 -59 -80 -98q-51 -39 -112 -51q-22 -5 -44 -5q-40 0 -80 15q-94 39 -127 157 q-16 61 -16 140q0 41 4 88q20 207 98 401q14 35 74 121l2 6q-43 -4 -64 -8q-12 -2 -24 -2v-15q0 -144 -72 -272q-76 -133 -194 -203q-90 -53 -183 -57h-13q-88 0 -177 50q-96 54 -170 169q-57 90 -82 176t-29 195z" />
<glyph unicode="H" horiz-adv-x="1488" d="M63 586q35 141 236 248q82 43 178 75q-6 260 -6 566q0 16 12.5 28.5t28.5 12.5t28.5 -12.5t12.5 -28.5q0 -293 6 -541q76 20 156 33q133 23 251 23q95 0 179 -15q21 -4 39 -8q-6 225 -6 475q0 16 12 28.5t28.5 12.5t29 -12.5t12.5 -28.5q0 -262 8 -498q119 -45 166 -129 q5 -9 5 -20q0 -5 -1 -11q-4 -16 -18.5 -24t-31 -4t-24.5 18q-27 47 -94 80q18 -444 65 -838q2 -16 -8 -30q-9 -13 -27 -15h-6q-14 1 -26 9q-14 10 -15 28q-49 432 -65 875l-55 12q-78 13 -166 13q-112 0 -238 -21q-86 -14 -168 -37q12 -430 45 -805q2 -18 -9 -30.5 t-28.5 -14.5t-30 9t-14.5 28q-31 367 -45 786q-76 -27 -141 -61q-168 -92 -197 -197q-5 -20 -5 -38q0 -30 12 -54q20 -39 59 -53q18 -9 36 -8q17 0 35 6q38 14 58 55q14 42 14 64v5q-2 22 -12 31q-8 7 -20 7q-25 0 -64 -35q-12 -10 -28.5 -10t-28 13t-11.5 29.5t15 28.5 q47 42 98 52q11 2 22 3q38 0 70 -26q37 -31 41 -86q1 -7 0 -15q0 -48 -22 -94q-34 -74 -104 -100q-33 -12 -63 -11q-35 0 -67 15q-66 26 -100 92q-21 40 -22 87q0 30 9 63z" />
<glyph unicode="I" horiz-adv-x="1329" d="M35 1289q6 40 25.5 75t50 60.5t72.5 35.5q11 3 22 3q32 0 65 -21q43 -25 52 -66q1 -6 1 -13q0 -30 -24 -58q-46 -56 -128 -56h-3q-16 0 -27.5 12.5t-11.5 30t12.5 28.5t30.5 11h5q37 0 59 27l4 4q-2 4 -11 10q-20 14 -47.5 1t-47.5 -50q-18 -32 -19 -60q0 -5 1 -9 q3 -32 25 -46q24 -16 58 -15q64 0 163 54l140 80q82 49 129 64q70 20 134 22h11q59 -1 121 -19q68 -20 109 -37.5t114 -56.5q20 -10 31 -14q14 -8 20.5 -24.5t-2 -30.5t-25 -20.5t-30.5 1.5l-24 13q-76 39 -114 55t-98 34q-56 18 -107 18h-5q-53 -1 -111 -19q-20 -6 -49 -21 v-6q5 -247 4 -461q0 -428 -18 -723q70 -23 106 -28q108 -21 197 -21q93 0 164 23q92 29 112 76q10 27 10 52q0 18 -5 34q-13 38 -51 64q-37 26 -79 27h-3q-40 0 -76 -28q-37 -33 -41 -59q-2 -16 10 -27q8 -6 21.5 -7t35 9t41.5 37q10 14 27.5 16t31 -8t15.5 -27.5t-8 -29.5 q-46 -61 -108 -75q-17 -4 -34 -5q-41 0 -73 27q-42 33 -42 84q0 7 1 14q8 61 69 112q65 49 132 48h1q68 0 128 -41q58 -41 80 -105q9 -26 9 -56q0 -42 -18 -89q-14 -35 -45 -61.5t-55.5 -37t-61.5 -22.5q-84 -27 -192 -27q-95 0 -209 21q-41 8 -145 41q-102 33 -152 43 q-52 12 -96 12q-93 0 -142 -55q-12 -14 -28.5 -14.5t-29.5 11t-13 28t10 28.5q75 84 206 85q50 0 109 -13q45 -10 111 -31q17 274 17 658q0 214 -5 462q-94 -57 -123 -71q-119 -64 -206 -64q-56 0 -99 27q-39 27 -53 69q-10 29 -10 57q0 12 2 24z" />
<glyph unicode="J" horiz-adv-x="1314" d="M68 399q-9 43 -9 81q0 87 47 151q39 51 92 73q43 18 84 18q11 0 22 -1q52 -6 99 -33q72 -39 115 -112q35 -60 35 -127q0 -15 -2 -31q-14 -104 -100 -139q-37 -16 -76 -16q-35 0 -72 13q-84 33 -92 103q-1 7 -1 14q0 71 97 125q14 8 30.5 4t25 -18.5t4 -30.5t-18.5 -24 q-59 -35 -57 -60q4 -20 41 -35q25 -10 48 -10q21 0 40 8q43 18 49 78q2 11 2 23q0 43 -25 83q-30 52 -81 80q-37 25 -79 25q-11 0 -22 -2q-55 -8 -92 -57q-32 -42 -32 -104q0 -29 6 -62q22 -105 98 -209q78 -106 175 -157q60 -31 114 -31q34 0 65 12q121 43 133 245 q2 31 2 65q0 25 -1 51q-3 61 -10 133.5t-9 97.5q-2 31 -20.5 275.5t-24.5 371.5l-4 -2q-37 -23 -46 -27l-45 -24q-35 -20 -49 -26.5t-44.5 -21t-50 -18.5t-46.5 -9t-51.5 -4t-46.5 5q-43 10 -67.5 34.5t-47.5 63.5q-12 23 -18 59q-4 37 0 62q18 88 74 132q50 40 104 40h10 q27 -2 52.5 -16.5t29.5 -47.5q1 -5 1 -10q0 -49 -73 -90q-14 -8 -30.5 -4t-24.5 18.5t-4 31t18 24.5q10 6 19 12q-29 -2 -56.5 -27.5t-38.5 -78.5q-2 -10 0 -33q2 -25 7 -31q18 -31 30.5 -42t30.5 -15q17 -4 36 -4q29 0 63 9q55 15 98 37.5t123 69.5l133 76q49 25 131 51 q73 24 138 24q10 0 19 -1q133 -6 187 -80q44 -60 44 -112q0 -38 -22 -72q-41 -63 -135 -84q-30 -6 -55 -6q-54 0 -90 26q-35 26 -35 67q0 42 39 87q10 12 26.5 14t29.5 -9t15.5 -27.5t-10.5 -30.5q-16 -20 -18 -33l2 -2q14 -10 41 -10q17 0 39 4q61 14 82 47q8 13 8 28 q0 28 -27 64q-31 43 -125 47h-14q-115 0 -276 -88q4 -102 11 -217t19 -256l17 -217q2 -16 10 -99.5t9 -125.5v-33q0 -39 -1 -99q-16 -256 -186 -317q-46 -16 -93 -16q-72 0 -146 39q-122 63 -210 182q-86 119 -110 241z" />
<glyph unicode="K" horiz-adv-x="1531" d="M131 1190q-22 29 -22 65q0 39 26 84q47 86 131 99q11 1 21 2q87 0 157 -105q45 -68 60 -256q6 -57 8 -127l78 68l90 74q25 20 76 69t78.5 82t59.5 78t50 88q6 14 21.5 21.5t31 0t22.5 -22.5t-1 -32q-25 -61 -68 -120.5t-104.5 -120t-103.5 -98.5t-113 -97q33 6 65 8 q23 2 44 2q106 0 194 -40q106 -48 155 -167q33 -86 38 -189q2 -32 2 -62q0 -65 -8 -117q-11 -76 -38 -182l-16 -72q-14 -55 -19.5 -74.5t-14.5 -64.5t-11 -67.5t-4 -55.5t1 -58.5t9 -50.5q14 -49 78 -71q39 -14 85 -14q31 1 65 7q84 16 130 60q39 35 39 78q0 9 -2 18 q-6 39 -59 59q-26 9 -49 9q-25 0 -47 -11q-37 -18 -29 -39q8 -23 45 -23q7 0 14 1q16 2 28.5 -9.5t14.5 -28.5t-9 -29.5t-30 -14.5q-8 -1 -15 -1q-39 -1 -71 17q-38 20 -53 58q-7 18 -7 37q0 22 10 43q20 39 65 63q38 20 81 20q38 0 79 -16q98 -35 114 -119q3 -17 3 -33 q0 -80 -66 -141q-66 -59 -172 -78q-41 -8 -79 -8q-59 0 -112 19q-104 35 -129 127q-10 32 -12 74q-1 28 -1 51v22q1 31 11 87.5t14.5 76.5t21.5 90t19 82q25 102 37 175q8 52 8 113q0 24 -2 49q-4 89 -34 161q-63 157 -264 157q-22 0 -46 -2q-92 -6 -186 -41q0 -49 -2 -129 q-10 -406 -47 -667q-2 -16 -16.5 -26.5t-31 -8.5t-26.5 16.5t-8 30.5q39 272 47 657q2 45 2 84l-26 -16q-47 -29 -80 -45l-25 -12q-8 -2 -14 -2q-14 2 -27 12q-18 14 -12 39l12 20l6 6q68 55 164 97h2q-2 106 -8 188q-14 168 -49 219q-44 67 -89 67q-5 0 -10 -1 q-41 -4 -69 -56q-16 -27 -16 -44q0 -10 6 -17q6 -8 21 -8q24 0 71 18q14 6 30.5 -1t22.5 -22.5t-1.5 -32t-23.5 -22.5q-57 -22 -99 -22q-58 0 -87 41z" />
<glyph unicode="L" horiz-adv-x="1253" d="M-4 1434q0 16 12 28.5t28.5 12.5t29 -12.5t12.5 -28.5q0 -623 45 -1037q10 -94 10 -272q59 26 123 26q36 0 74 -8q49 -10 125 -47q84 -41 110 -49q78 -28 165 -28q41 1 84 7q134 20 224 93q62 49 62 91v7q-4 33 -31 54.5t-65 25.5q-11 1 -20 1q-44 0 -66 -22 q-20 -25 -17 -59q4 -27 16.5 -33t43.5 27q12 12 28.5 13t28.5 -10t13 -27.5t-9 -28.5q-50 -56 -100 -56q-18 0 -35 7q-57 23 -66 98q-2 13 -2 25q0 58 39 100q44 49 121 49q16 0 33 -2q63 -8 111 -46t59 -104q1 -10 1 -19q0 -82 -91 -157q-110 -87 -266 -109q-49 -7 -95 -7 q-101 0 -190 32q-33 10 -121 54q-68 31 -107 38q-31 7 -60 7q-52 0 -97 -23l-2 -2q-4 -4 -13 -10q-23 -19 -44 -19q-12 0 -23 6q-29 14 -29 47q0 9 2 19q2 12 4 16v2q0 193 -10 285q-45 408 -45 1045z" />
<glyph unicode="M" horiz-adv-x="1542" d="M37 164q-2 14 -2 26q0 54 28 91q29 39 75 39q9 0 18 -1q54 -6 84 -59q22 -40 23 -93q0 -18 -3 -38q-2 -16 -16.5 -26.5t-30.5 -8.5t-26.5 16.5t-8.5 30.5q6 35 -1 59.5t-15 31t-17 6.5q-10 2 -18 -9q-12 -18 -8 -57q8 -66 51 -88q17 -9 36 -9q28 0 62 19q27 16 54 82 q18 43 36 117q60 243 60 510q0 108 -10 219q-14 162 -17 231q0 31 -2 43q-10 39 -14 64q-4 18 -4 31q0 25 8 39q15 22 37 22h2q29 0 41 -29q6 -12 8 -38.5t4 -75.5v-2l21 -70q12 -41 12 -45q53 -211 96 -293q77 -145 204 -145h3q59 0 113 63q53 61 94 170q49 123 73 275 q0 12 3 26q0 8 4 15q4 31 6 55q2 18 14 29.5t29.5 9.5t29 -14.5t9.5 -28.5q-4 -45 -13 -103q-5 -64 -5 -146q0 -41 1 -87q0 -16 2 -114.5t2 -151.5q0 -6 -3 -209q-2 -122 -2 -216q0 -62 1 -112q4 -172 21 -293q18 -137 51 -192q29 -46 85 -54q10 -1 21 -2q47 0 97 27 q62 33 88 84q16 30 16 58q0 21 -8 42q-10 27 -53 37q-23 4 -37 -12q-18 -20 -21 -53q-2 -12 0 -19q8 4 20.5 14.5t29 10.5t27.5 -13.5t11 -30t-14 -28.5q-42 -38 -79 -38q-22 0 -42 14q-36 25 -36 80q0 8 1 16q4 59 41 100q35 41 85 41q16 0 34 -4q84 -18 111 -86 q14 -37 14 -72q0 -47 -25 -92q-44 -78 -126 -121q-51 -29 -107 -36q-13 -2 -26 -2q-42 -1 -86 17q-58 22 -91 81q-43 70 -63 221q-16 123 -21 303q-1 50 -1 113q0 94 2 216q3 204 3 210q0 55 -4 188q-45 -111 -100 -176q-80 -90 -176 -92h-4q-175 0 -275 188q-16 31 -32 70 q3 -66 4 -130q0 -278 -64 -528q-18 -76 -39 -127q-37 -90 -88 -120q-54 -32 -104 -32q-38 0 -74 19q-80 43 -94 152z" />
<glyph unicode="N" horiz-adv-x="1632" d="M74 92q-15 29 -15 60q0 35 19 73q29 57 84 92q40 26 75 26q20 0 39 -9q55 -28 55 -110q0 -9 -1 -19q-2 -16 -14.5 -27.5t-30 -9.5t-28.5 14.5t-9 30.5q4 39 -6 47q-10 4 -37 -12q-35 -23 -53 -60q-16 -35 -5 -59q10 -23 42 -43t67 -27q12 -2 22 -1q52 0 61 42 q11 50 21 107l19 100q6 41 11 110.5t8 100.5t7.5 114t5.5 101.5t4 114.5t3 106q4 113 4 188q0 50 -2 83q-2 23 -5 61.5t-3 52.5q0 2 -1 5.5t-2 10.5t-3 11q-2 14 -1 22.5t3 14.5q10 25 36 27q16 0 29 -11l8 -8q16 -23 33 -74q10 -37 25 -96q6 -23 14 -61.5t14 -65.5t11 -41 q63 -215 183 -427t267 -357q96 -94 133 -127q49 -45 82 -68q-6 27 -20 78l-35 115q-31 102 -41 149q-29 109 -47 198q-17 88 -32 200q-14 105 -14 205v13q1 106 17 201q33 172 148 213q32 12 65 12q68 0 143 -48q102 -68 146 -173q21 -53 22 -100q0 -65 -41 -119 q-49 -66 -118 -71h-10q-54 0 -109 37q-53 37 -88 94t-37 114v8q0 43 20 66q19 21 45 21q12 0 25 -4q49 -14 78 -68q8 -14 3 -30.5t-20.5 -25t-32 -3t-24.5 21.5q-4 8 -12 16q2 -37 26.5 -77.5t61.5 -64.5q34 -23 63 -23h5q33 2 59 38q23 32 23 71q0 31 -15 67 q-35 84 -115 135q-54 36 -100 36q-20 0 -37 -7q-70 -25 -92 -152q-15 -82 -15 -183q0 -243 87 -597q12 -47 42.5 -147.5t35.5 -114.5q20 -72 26 -109q2 -27 0 -45q-6 -39 -39 -47q-23 -6 -51 6q-18 8 -41 27q-37 25 -92 73q-39 35 -135 131q-154 150 -278 368t-191 439 q0 -23 -2 -88q0 -12 -3 -104t-3 -113l-7 -104q-4 -82 -6 -117l-10 -102q-6 -70 -14 -115l-17 -102q-8 -59 -22 -113q-14 -63 -64 -87q-35 -16 -74 -16q-18 0 -36 3q-53 8 -101.5 38.5t-68.5 73.5z" />
<glyph unicode="O" horiz-adv-x="1452" d="M154 833q51 295 182 470q120 159 266 159q46 0 94 -16q7 -2 11 -4q41 -6 88 -49q39 -37 88 -105q84 -115 118 -194q8 -18 17 -35q10 -2 18 -6q59 -13 109 -13q100 0 162 52q37 33 43 87q1 10 1 19q0 43 -22 82q-25 47 -63 63q-16 6 -34 6q-26 0 -54 -14q-20 -12 -34 -45 q-9 -22 -9 -43q0 -10 2 -20q4 -25 24 -35q12 -5 28 -5q24 0 58 11q16 6 30.5 -2t21 -24.5t-2 -31t-24.5 -20.5q-46 -15 -84 -15q-35 0 -64 13q-55 27 -67 94q-3 16 -3 33q0 37 16 77q22 58 67 83q48 28 95 27q33 0 64 -13q68 -29 107 -102q30 -50 30 -116q1 -15 -1 -31 q-8 -86 -72 -140q-84 -70 -213 -70q-47 0 -100 9q20 -74 20 -146v-12q0 -120 -37 -270q-37 -158 -106 -289q-82 -154 -205 -232q-79 -51 -173 -51q-54 0 -112 17q-199 53 -270 323q-33 125 -33 269q0 121 23 255zM233 819q-21 -123 -21 -233q0 -137 32 -256 q59 -223 211 -267q44 -12 85 -12q184 0 312 240q66 119 100 267q33 140 33 252v13q0 82 -31 168q-145 47 -239 131q-72 63 -111 150q-19 39 -19 71q0 17 5 31v4q-100 -10 -189 -125q-121 -160 -168 -434zM668 1350q-1 -3 -1 -6q0 -13 11 -39q33 -70 90 -121q55 -49 141 -88 q-39 74 -92 145q-43 59 -78 90q-31 29 -42 29h-1q-31 -2 -28 -10z" />
<glyph unicode="P" horiz-adv-x="1304" d="M80 238q-7 29 -7 54q0 57 36 97q27 31 84 43q24 5 46 4q64 0 107 -39q45 -45 45 -116q-2 -74 -51 -101q-19 -11 -37 -11q-42 0 -84 56q-10 14 -8 30.5t16.5 27t30.5 8.5t26.5 -16.5t18.5 -18.5q6 10 6 27q0 35 -20 55q-18 16 -47 16q-15 0 -33 -4q-31 -6 -39 -14 q-15 -17 -15 -44q0 -15 5 -34q14 -59 63 -121q49 -59 107 -88q35 -18 62 -18q16 0 30 6q66 29 98 196q27 136 27 347v55v61q-4 10 0 23q-4 94 -11.5 202.5t-13.5 176.5l-14 159q-8 90 -10 103v4q-109 -16 -197 -68q-115 -68 -121 -161q-2 -27 6.5 -42.5t15.5 -17.5t13 -2 q6 2 13.5 8t14.5 25.5t-3 54.5q-4 16 4 30.5t24.5 18.5t30.5 -4t18 -24q8 -31 8 -58q0 -38 -15 -70q-25 -54 -83 -61q-10 -2 -20 -2q-42 0 -74 35q-35 39 -35 100v13q8 137 162 227q137 80 309 87q16 1 32 0q155 -1 299 -61q159 -68 259 -190q98 -124 99 -244q0 -42 -13 -84 q-39 -135 -188 -223q-131 -78 -269 -78h-14q-84 2 -143 35q0 -238 -31 -391q-41 -209 -145 -254q-30 -14 -64 -14q-46 0 -98 26q-72 37 -133.5 112t-79.5 151zM580 1368q0 -10 8 -104l16 -162q6 -68 13.5 -179.5t11.5 -205.5q41 -59 147 -62h13q116 0 227 66q121 72 151 176 q9 30 9 60q0 93 -82 192q-86 109 -226 167q-131 54 -269 54h-19v-2z" />
<glyph unicode="Q" horiz-adv-x="1378" d="M172 299q-18 89 -18 189q0 147 39 319q63 279 194 471q127 184 264 201q12 11 26 11q7 0 15 -3q121 -45 213 -123t146.5 -173t86.5 -207q30 -109 30 -216v-6q-1 -111 -19 -221q-53 -262 -213 -426q20 -43 35 -97q8 -33 17 -82t15.5 -76.5t19.5 -61.5t34.5 -58.5 t54.5 -44.5q31 -18 79 -19h2q47 0 89 21q66 32 66 86q0 17 -7 37q-14 41 -75 69q-48 22 -78 22q-16 0 -27 -7q-18 -12 -12 -45q4 -33 25 -39q3 -1 6 -1q17 0 47 40q10 14 26.5 16t30.5 -8t16.5 -26.5t-8.5 -30.5q-55 -74 -113 -74q-16 0 -32 6q-66 23 -80 102q-3 16 -3 31 q0 63 50 96q31 21 73 21q48 0 111 -29q94 -43 121 -115q12 -35 12 -66q0 -37 -17 -69q-32 -59 -97 -90q-57 -27 -125 -28h-4q-66 0 -117 30q-45 27 -74.5 61.5t-47 77.5t-26 77t-17.5 84t-15 73q-9 32 -19 57q-132 -102 -289 -102q-75 0 -157 24q-199 57 -254 322zM252 315 q45 -215 199 -260q66 -19 127 -19q137 0 253 93q-14 20 -32 37q-88 86 -277 131q-16 2 -24.5 16.5t-5 31.5t18 25.5t32.5 4.5q209 -47 313 -150q20 -18 37 -39q129 143 176 371q20 85 20 173q0 37 -3 76q-13 128 -54 239.5t-128 206t-208 145.5h-6q-7 1 -15 1 q-108 0 -221 -167q-120 -178 -182 -443q-36 -163 -36 -300q0 -92 16 -173z" />
<glyph unicode="R" horiz-adv-x="1433" d="M129 1202q0 14 10 25q37 43 121 94q-4 33 -10 65q-2 16 8 30t26.5 17t30 -7.5t17.5 -26.5q2 -16 4 -35q106 55 211 88q111 32 193 33q27 0 51 -4q131 -20 151 -144q2 -14 3 -27q0 -110 -142 -243q-66 -61 -185 -145l29 4q45 5 85 5q150 0 239 -73q98 -80 119 -244 q6 -24 6 -64q0 -15 -1 -32q-3 -63 -5.5 -102t-12.5 -105l-16 -98q-6 -37 -17.5 -96.5t-15.5 -85.5q-2 -6 -18.5 -80t-18.5 -117q-1 -13 -1 -25q0 -82 48 -104q28 -12 70 -12q14 0 28 1q60 5 107 29.5t64 59.5q6 14 6 30q0 25 -15 54q-20 41 -74 49q-10 1 -19 1 q-41 0 -68 -28q-8 -8 -10.5 -13t-0.5 -7l2 -2q10 -12 39 4q16 8 33 3t25 -20.5t3 -32t-20 -24.5q-34 -17 -67 -17h-11q-38 3 -63 32q-23 25 -23 56v10q4 38 35 69q51 52 125 52q16 0 32 -2q96 -13 136 -93q23 -47 23 -90q0 -33 -13 -64q-29 -61 -102 -100q-61 -31 -138 -37 q-15 -1 -30 -1q-59 0 -106 19q-98 41 -98 178q0 15 1 31q2 33 11 74l16 80l10 49l19 90l16 94q6 35 15.5 97.5t11.5 97.5t5 94q1 16 1 30q0 37 -6 58q-16 131 -88 191q-66 54 -187 54q-36 0 -78 -5q-61 -6 -149 -43q-119 -49 -137 -56q2 -74 11 -232.5t14 -280t5 -232.5 q0 -16 -12 -28.5t-28.5 -12.5t-29 12.5t-12.5 28.5q0 115 -5 242t-14 283.5t-13 240.5q-2 47 -6.5 211t-10.5 252q-47 -33 -67 -55q-10 -12 -27 -14q-18 -4 -30 8q-14 14 -15 34zM346 1276q8 -82 19 -430l22 14l66 45l71 49q168 123 224 174q114 106 114 180q0 9 -2 17 q-10 63 -84 74q-19 4 -41 4q-66 0 -164 -31q-114 -37 -225 -96z" />
<glyph unicode="S" horiz-adv-x="1290" d="M86 287q-13 43 -13 82q1 74 47 134q70 91 191 130q76 25 155 26h3q77 -1 153 -27t126 -83q49 -55 52 -113v-8q0 -52 -34 -92q-59 -76 -186 -100q-40 -8 -74 -8q-75 0 -119 38q-39 34 -39 86v10q4 53 51 119q8 14 25.5 17.5t31 -6t16.5 -26.5t-7 -30q-33 -49 -35 -80 q-2 -18 10 -26q23 -20 70 -21q24 0 55 6q94 18 137 72q15 19 15 41q0 31 -31 68q-54 60 -154 76q-34 6 -66 5q-66 0 -128 -22q-100 -33 -148 -97q-33 -44 -34 -96q0 -25 8 -51q29 -96 147 -164q121 -68 289 -88q62 -8 122 -8q96 1 184 21q142 32 202 110q68 87 68 177 q0 14 -2 28q-10 92 -93 191q-72 86 -178 159.5t-213 122.5l-47 19q-37 14 -69.5 29.5t-57.5 31.5q-94 61 -94 149q0 22 6 46q27 113 141.5 193.5t255.5 111.5q72 16 135.5 16t118.5 -16q131 -41 158 -156q6 -23 6 -45q0 -55 -36 -101q-50 -64 -120 -83q-28 -8 -52 -8 q-47 0 -81 32q-37 36 -37 100q0 28 7 62q4 16 18 25.5t30.5 6.5t26 -17.5t7.5 -30.5q-6 -27 -6 -47q0 -28 12 -39q16 -16 53 -6q45 14 73 52q22 30 23 61q0 9 -2 18q-18 72 -104 96q-44 14 -97.5 14t-115.5 -14q-125 -27 -220.5 -94.5t-115.5 -151.5q-2 -10 -3 -20 q0 -48 58 -86q20 -12 49 -25l62 -27l51 -22q113 -51 228.5 -130t193.5 -175q96 -115 110 -232q2 -20 3 -39q0 -118 -84 -225q-80 -102 -243 -140q-103 -24 -212 -24q-63 0 -129 8q-182 23 -324.5 103t-179.5 207z" />
<glyph unicode="T" horiz-adv-x="1296" d="M63 1364q23 55 95 90q50 24 112 24q76 0 172 -36q35 -14 117 -51t121 -48q63 -17 138 -16q29 0 61 2q74 4 176 49q53 23 86 47q27 23 28 41q2 10 -12 19q-14 10 -29 6q-12 -4 -30 -21l-21 -18l-24 -20q-14 -10 -30.5 -8.5t-27 16t-8.5 31t17 26.5q8 6 18 16l20 19 q33 27 62 37q17 5 34 5q33 0 64 -20q50 -33 50 -85q0 -6 -1 -11q-4 -51 -59 -96q-41 -33 -105 -59q-117 -49 -204 -56q-25 -1 -50 -1q-50 0 -100 5q-47 -395 -57 -639q-4 -86 -4 -162q0 -309 59 -450q8 -16 1 -32q-6 -15 -22 -22q-8 -4 -16 -4t-15 4q-15 7 -22 21 q-67 158 -67 487q0 76 4 162q10 246 59 650q-41 12 -130 51t-111 47q-81 32 -142 32q-43 0 -75 -16q-45 -23 -58 -49q-6 -14 2 -24q4 -6 15.5 -11.5t35 -1.5t50.5 21q12 10 29.5 7t26.5 -16.5t6 -31t-17 -25.5q-54 -39 -110 -39h-10q-61 4 -93 50q-20 27 -20 57q0 23 11 47z " />
<glyph unicode="U" horiz-adv-x="1642" d="M100 928q-10 28 -10 61q0 53 27 117q16 43 41 76q31 39 61 49q13 4 25 4q36 0 59 -37q23 -35 27 -104q2 -16 -9.5 -28.5t-29 -14.5t-29.5 9t-14 30q-2 39 -10 57l-15 -14q-18 -25 -30 -58q-21 -52 -21 -89q0 -17 4 -30q6 -16 19 -20q12 -5 27.5 -5t35.5 5q63 16 127 133 q51 96 76 197l26 125l5 28l2 8v3q2 2 2 4q2 4 2 8q4 4 8 10q12 11 27 11q8 0 16 -3q18 -8 29 -26q4 -10 6 -25q4 -18 2 -49q-2 -41 -13 -125q-6 -55 -18 -125q-12 -72 -12 -80q-4 -27 -17 -108l-16 -127q-27 -197 -29 -326q-1 -28 -1 -55q0 -146 28 -236q37 -117 117 -137 q17 -4 34 -4q71 0 132 69q72 82 129 252q20 57 37.5 122t31.5 132l21 111l20 108q10 63 10 72q25 141 33 215v17q-5 77 -5 133q0 18 1 35v4q-2 12 -4 16q0 16 4 29q8 29 37 34q18 2 33 -6q14 -6 20 -22q4 -12 4 -29q0 -4 -2 -18v-6q2 -28 2 -58q0 -61 -8 -131q6 -94 6 -143 q0 -8 -10 -228q-4 -88 -4 -161t4 -131q8 -166 45 -265q41 -109 115 -133q15 -5 31 -5q26 0 53 14q43 24 78 79q33 55 42 115q3 19 3 35q0 35 -13 59q-14 29 -43.5 39t-54.5 0q-23 -12 -29 -39q-3 -10 -2 -21q0 -32 21 -75q8 -16 2 -31.5t-21.5 -23.5t-31 -2t-23.5 20 q-29 62 -29 114q0 21 4 40q14 63 76 92q28 15 60 15q26 0 54 -10q62 -22 91 -81q20 -48 20 -99q1 -22 -3 -44q-12 -76 -54 -144q-44 -74 -112 -112q-40 -23 -86 -23q-30 0 -62 10q-109 39 -164 183q-41 111 -49 289q-4 59 -4 133q-31 -141 -68 -250q-63 -184 -145 -279 q-85 -98 -189 -98q-29 0 -59 8q-125 29 -174 191q-32 104 -32 264q0 26 1 53q2 139 29 334q6 45 18 125q13 81 15 108l-4 -8q-80 -150 -178 -172q-32 -9 -60 -9q-31 0 -55 11q-47 18 -64 68z" />
<glyph unicode="V" horiz-adv-x="1169" d="M3 1417q3 17 17.5 26t31 6t26.5 -17q172 -258 284 -932q6 -41 17 -99q29 289 92 492q68 217 180 379q143 209 300 208q35 0 71 -10q102 -30 142 -114q26 -55 26 -113q0 -33 -8 -65q-22 -94 -96 -154q-66 -54 -158 -54q-12 0 -25 1q-115 8 -143 94q-9 25 -9 51q0 45 27 94 q39 76 103 99q18 7 35 7q20 0 38 -9q37 -16 60 -60q8 -14 2 -30.5t-20.5 -24.5t-31 -2t-24.5 20q-8 18 -18 23q-6 2 -15 -2q-33 -10 -57 -57q-16 -32 -16 -58q0 -13 4 -24q12 -35 73 -39q9 -1 18 -1q62 0 107 36q51 42 68 110q5 23 5 44q1 40 -17 76q-26 54 -95 75 q-22 6 -43 6q-114 0 -235 -172q-104 -154 -170 -359q-70 -219 -96 -577v-49q-2 -68 -2 -84q0 -53 -2 -84q0 -20 -3 -33q-2 -8 -4 -14q-2 -12 -10 -21q0 -2 -3 -5t-13 -8q-7 -4 -16 -4q-3 0 -7 1q-18 2 -31 18q-4 6 -6 16.5t-2 28.5l2 35q-2 20 -10 55q-8 43 -12 60 q-6 43 -25 137q-18 88 -28 147q-109 653 -273 899q-6 10 -6 22q0 4 1 9z" />
<glyph unicode="W" horiz-adv-x="1585" d="M78 1414q6 16 21.5 24t31 1.5t23.5 -20.5q217 -449 288 -944q4 -37 15 -88q31 174 94 344q6 16 39 90l26 60l11 20q2 4 5 8t5 6l8 9q14 8 31 6q18 -4 33 -23q8 -8 16 -22q14 -27 35 -68q29 -66 74 -192q47 -137 106 -320v31q12 455 137 819q2 4 13.5 41t23.5 70.5 t27 62.5q64 135 157 135h5q70 -2 125 -47t79 -110q15 -34 15 -72q0 -29 -8 -61q-20 -74 -87 -121q-55 -35 -103 -35q-11 0 -22 2q-57 10 -88 59q-19 32 -19 64q0 20 7 39q23 57 92 75q16 4 30.5 -4t19 -24.5t-4 -30.5t-24.5 -18q-29 -8 -35 -27q-6 -14 4 -31q12 -18 32 -22 q3 -1 7 -1q20 0 55 19q62 43 62 107q0 26 -10 55q-16 43 -52.5 71.5t-79.5 30.5h-2q-40 0 -82 -88q-12 -27 -23 -56.5t-22.5 -64t-13.5 -43.5q-121 -356 -133 -798q0 -8 6 -160q4 -61 4 -96q0 -51 -6 -70l-4 -12q-10 -12 -25 -19q-20 -6 -36 9q-8 4 -12.5 11t-8.5 23 q-2 6 -3 12.5t-2 9.5t-3 5q-16 43 -37 117q-23 86 -31 112q-78 236 -108 324q-43 119 -72 186l-10 23l-8 -19q-33 -74 -37 -86q-94 -244 -115 -505q-1 -5 -1 -16q0 -23 3 -75v-22q0 -53 -8 -82q0 -4 -2 -8q-4 -14 -23 -23q-8 -3 -16 -3q-12 0 -23 7q-8 4 -12 15q-4 6 -5 12 t-3 21v12v8l-10 78l2 -49q-4 14 -4 67l-6 43q-6 51 -22.5 146.5t-23.5 134.5q-68 483 -280 919q-5 9 -5 18q0 7 3 14zM489 238l3 -78h2q0 63 -5 78z" />
<glyph unicode="X" horiz-adv-x="1234" d="M-12 10q-13 33 -13 64q0 38 19 76q35 68 90 94q23 16 59.5 13t57.5 -36q15 -24 15 -61q0 -43 -21 -103q-6 -14 -21.5 -22t-31 -2t-23.5 21.5t-2 31.5q18 48 18 74q0 8 -2 14q-6 0 -12 -4q-33 -14 -53 -53q-10 -21 -10 -42q0 -18 8 -36q4 -14 29.5 -29.5t39.5 -15.5 q66 2 131 100q25 37 56 96q4 10 14 31l16 33q8 14 15 25q78 139 161 366l-59 176q-92 270 -96 283q-49 113 -113 203q-41 59 -74 84q-27 20 -41 12q-41 -25 -40 -53q0 -10 4 -21q17 -35 62 -35q15 0 34 4q16 2 30.5 -7t17.5 -25.5t-6 -30.5t-26 -18q-22 -4 -43 -4 q-38 0 -70 14q-50 22 -73 67q-12 25 -12 52q1 22 9 46q20 50 72 81q24 14 50 14q37 0 79 -29q45 -33 95 -104q68 -94 118 -217q18 -45 101 -291l24 -78l52 141q10 29 39.5 127.5t60.5 169.5q31 70 72 125q69 92 147 121q36 14 69 13q36 0 66 -17q57 -30 73 -94q5 -18 5 -36 q0 -44 -29 -85q-36 -47 -78 -71q-25 -14 -50 -13q-17 0 -33 6q-43 15 -57 63q-6 22 -6 43q0 25 9 50q4 16 18.5 24t31 4t24.5 -18t4 -31q-10 -47 4 -59q3 -1 5 0q26 0 63 51q16 25 10 52.5t-33 39.5q-16 6 -38 8h-4q-22 0 -58 -24q-39 -26 -78 -76q-37 -49 -63.5 -111.5 t-54 -154.5t-42.5 -135l-86 -236q41 -113 78 -203q94 -229 182 -346q88 -118 167 -117q9 0 18 1q33 4 46 31.5t2 57t-44 37.5q-20 4 -34.5 -3t-16.5 -15v-2q12 -10 49 -14q16 -2 27.5 -15.5t9.5 -30t-15.5 -27.5t-29.5 -9q-66 6 -99 39q-25 25 -25 56q0 14 5 30q14 41 56 61 q26 13 53 13q17 0 36 -5q55 -12 86 -55q30 -42 30 -88q0 -50 -34 -92q-33 -41 -90 -51q-14 -2 -28 -2q-118 0 -234 149q-94 127 -193 367l-45 116q-68 -170 -135 -290l-10 -25l-16 -31q-10 -18 -17 -28q-31 -63 -59 -105q-88 -133 -195 -137h-5q-39 0 -83 28q-47 30 -63 70z " />
<glyph unicode="Y" horiz-adv-x="1054" d="M138 312q-2 16 -2 31q0 67 40 130q35 57 90 79q43 18 83 18q13 0 25 -2q52 -7 101 -33q47 -25 81 -65t46 -92q3 -14 3 -28q0 -38 -23 -76q-27 -45 -69 -68q-39 -22 -80 -22h-7q-49 4 -83 37t-38 88q-2 18 9.5 30.5t28.5 14.5t29.5 -9t14.5 -28q4 -49 43 -51h4q46 0 78 49 q9 16 9 34q0 20 -10 42q-19 43 -75 72q-43 25 -86 25q-10 0 -20 -2q-54 -7 -84 -54q-26 -46 -26 -95q0 -37 14 -76q34 -91 128 -159q98 -70 205 -76h16q98 0 183 68q131 117 145 465q2 49 2 103q-55 -35 -108 -48q-27 -6 -60 -6q-50 0 -114 13q-135 27 -209 121t-94 227 q-8 54 -8 110q0 63 10 129q20 127 65 232q6 14 21 21q8 3 16 3l16 -3q15 -7 22 -22.5t-1 -31.5q-39 -94 -57 -209q-9 -62 -9 -120q0 -50 7 -97q35 -240 237 -279q58 -12 100 -12q23 0 41 4q51 12 121 64l2 2q-2 41 -4 94q-2 33 -5 87t-5 94t-2 71v14q0 67 14 275 q2 18 14.5 29.5t30 9.5t28.5 -14.5t9 -28.5q-14 -205 -14 -271v-14q0 -29 2 -68l6 -92q2 -55 4 -88q5 -120 5 -214q0 -47 -1 -87q-16 -385 -174 -524q-74 -66 -168 -83q-37 -6 -73 -6q-54 0 -105 15q-84 25 -158 76q-72 53 -118.5 123.5t-58.5 153.5z" />
<glyph unicode="Z" horiz-adv-x="1435" d="M29 18v13l4 8q0 2 2 4q0 2 2 4l6 10l23 33l67 105l119 180l283 440q-47 29 -65.5 39t-56.5 28.5t-62.5 22.5t-58.5 2t-67 -14q-49 -18 -51 -47q0 -3 -1 -7q0 -26 28 -51q29 -27 53 -22q20 2 27 43q4 18 17 27.5t30.5 6.5t26.5 -16.5t7 -29.5q-18 -102 -98 -113 q-8 -1 -16 -1q-54 0 -105 48q-52 48 -52 108q0 6 1 13q6 80 105 119q45 16 90 18h22q33 0 57 -4q34 -6 78.5 -26.5t67.5 -32.5l68 -43q129 190 249 329q129 150 152 172l-31 -2q-172 -16 -207 -18q-94 -1 -150 -1h-46q-55 1 -197.5 8t-197.5 9q-16 0 -27.5 12.5t-11.5 30 t12 28.5t31 11q55 -2 194 -9q138 -7 194 -8h47q56 0 148 1q33 2 203 18q74 6 105 9q20 2 32 2h13h8q6 -2 10 -5q20 -8 25 -28q1 -6 1 -12q0 -33 -38 -56q-6 -4 -11.5 -6t-7.5 -4h-4l-2 -2q-39 -37 -182 -203q-115 -133 -242 -317q90 -49 164 -49h4q107 0 227 100 q14 12 31 10t28 -15.5t9 -29.5t-14 -27q-144 -120 -280 -120h-7q-94 0 -207 61l-282 -442l-121 -180l-31 -48q23 3 46 3q50 0 99 -15q151 -44 269 -66q80 -14 169 -15q45 -1 91 3q142 10 256 68q152 74 176 153q6 20 6 39q0 38 -24 70q-36 48 -117 74q-50 14 -98 14 q-28 0 -56 -4q-74 -14 -104 -57q-23 -36 -24 -61q0 -8 3 -15q8 -25 45 -39q25 -10 56 -10q19 0 41 4q56 10 90 43q12 10 29.5 10t28.5 -12.5t11 -29.5t-12 -30q-53 -49 -133 -62q-30 -5 -56 -5q-45 0 -81 14q-76 29 -97 90q-8 20 -8 42q0 50 41 106q33 48 95 74 q58 24 117 24h9q64 -2 127 -18q101 -31 161 -106q40 -49 39 -111q0 -33 -11 -68q-16 -49 -57.5 -92t-76 -64.5t-83.5 -46.5q-98 -48 -208 -68q-72 -13 -144 -13q-39 -1 -79 3q-112 10 -206 31q-94 18 -209 53q-38 12 -76 12q-40 0 -78 -14h-2q0 -2 -14 -12q-23 -19 -45 -19 q-15 0 -29 9q-16 10 -18 30z" />
<glyph unicode="[" horiz-adv-x="696" d="M66 -16q0 20 2 55q4 57 14 164l14 172q8 82 8 96q0 586 -2 664q0 6 -2 29.5t-6 64.5l-4 69q-6 66 -8 103q-2 25 -2 37q0 8 2 14q0 12 6 23q4 6 8 10t8 6l2 2q4 0 9 2q6 2 14 4q14 4 41 8l117 21q162 27 190 28q16 0 29.5 -11t13.5 -27.5t-11.5 -29.5t-27.5 -13 q-23 -2 -180 -27l-117 -21q-12 -2 -20 -4v-18l6 -100q4 -27 7 -70t5 -66.5t2 -29.5q2 -78 2 -668q0 -18 -8 -104l-16 -170q-8 -104 -12 -162q-2 -33 -3 -51h5q16 -6 43 -9q47 -6 135 -8q233 -2 262 -6q16 -4 25.5 -18.5t6.5 -30.5t-17.5 -25.5t-31.5 -7.5q-20 4 -245 6 q-92 2 -144 9q-35 4 -59 10q-33 10 -49 26q-8 10 -10 23q-2 4 -2 10v21z" />
<glyph unicode="\" horiz-adv-x="915" d="M44 1478.5q3 16.5 17.5 25.5t31 6t26.5 -17q53 -80 102 -167t121 -228l86 -172l107 -203l122 -236q39 -74 95.5 -202.5t91.5 -239.5q6 -16 -2 -31.5t-24.5 -20.5t-32 3t-19.5 24q-35 106 -89 232.5t-91 198.5l-121 233l-111 205l-88 172q-70 139 -117 224t-100 163 q-8 14 -5 30.5z" />
<glyph unicode="]" horiz-adv-x="708" d="M17 -37.5q-3 17.5 6.5 30.5t27.5 17q20 2 57 4t69 2t86 -1t83 -1q98 2 154 6q37 4 57 13q0 16 -2 49q-4 53 -14 162l-17 172q-8 86 -8 104q0 590 2 668q0 4 12 166q6 68 9 104q0 8 2 15q-12 2 -29 4q-49 8 -131 20q-55 8 -135 19q-63 8 -72 8q-16 0 -27.5 13t-11.5 29.5 t13.5 28t29.5 11.5q12 0 78 -9q74 -8 137 -18l133 -20q29 -6 45 -11q10 -2 17 -4q6 0 10 -2q10 -6 18 -16q4 -6 7 -15v-4v-8v-12q0 -12 -2 -35q-2 -37 -9 -104q-12 -160 -12 -164q-2 -78 -2 -664q0 -10 8 -96l17 -172q10 -111 14 -164q2 -37 2 -55q2 -12 0 -19v-10 q0 -4 -2 -8q-2 -10 -10 -19q-31 -29 -119 -36q-59 -6 -162 -9q-33 0 -86 1t-83 1t-62.5 -1t-51.5 -5q-16 -2 -29.5 7.5t-16.5 27z" />
<glyph unicode="^" horiz-adv-x="598" d="M-14 1147q2 17 14 29q6 4 37 41l67 83l68 82q14 18 25 29l10 10q2 2 6 4q10 6 20 9q29 2 56 -19q6 -4 14 -12l10 -10q37 -31 105 -107q57 -68 94 -96q14 -10 16 -27.5t-8 -31t-27.5 -15.5t-29.5 8q-43 35 -106.5 107t-96.5 100q-4 2 -12 12h-2l-13 -14l-63 -80l-70 -84 q-35 -45 -47 -55q-14 -10 -30.5 -8t-27.5 15t-9 30z" />
<glyph unicode="_" horiz-adv-x="1069" d="M55 -230.5q-2 17.5 8.5 31t26.5 15.5q344 47 864 104q16 2 29.5 -9t15.5 -27.5t-9 -30t-27 -15.5q-518 -57 -861 -104q-18 -2 -31.5 8t-15.5 27.5z" />
<glyph unicode="`" horiz-adv-x="421" d="M73 1523.5q3 16.5 17 26t30.5 6t26.5 -17.5l52 -80l57 -90q20 -31 48 -82t46 -96q6 -14 -1 -29.5t-22.5 -23t-30.5 0t-24 23.5q-16 41 -40.5 88t-45.5 78l-55 86l-53 80q-8 14 -5 30.5z" />
<glyph unicode="a" horiz-adv-x="1009" d="M68 514q20 117 69 225q47 109 111 185q80 96 188 110q18 2 35 3q85 1 155 -57q84 -68 103 -194q2 -16 -8 -30.5t-27 -16.5q-12 -2 -22 4q-2 -12 -4 -32.5t-2 -30.5q-8 -96 -9 -102q-5 -81 -5 -145q0 -32 1 -60q4 -133 33 -207q33 -74 92 -80q31 -4 59.5 14.5t49.5 51.5 q20 35 20 65q0 33 -24 59q-23 25 -49 -4q-11 -12 -11 -25q0 -20 27 -40q14 -10 16 -27.5t-8 -31t-27.5 -15.5t-29.5 8q-53 41 -59 97q-1 8 0 14q0 45 30 74q33 37 81 42q5 1 10 1q43 0 81 -39q42 -48 42 -114q0 -61 -30 -103q-29 -51 -79 -83q-42 -27 -89 -27q-9 0 -18 1 q-109 12 -158 131q-23 51 -32 125q-35 -84 -78 -145q-72 -106 -154 -127q-19 -5 -37 -5q-83 0 -159 93q-96 118 -96 299q0 66 12 139zM150 502q-12 -70 -12 -131q0 -150 75 -242q52 -63 100 -63q8 0 17 2q51 12 104 92q49 74 85 173t46 165q6 37 10 84q2 18 3 39 q12 162 12 180v4v4q0 2 2 6q0 6 4 10q6 10 16 15q8 4 15 4q-43 98 -141 108l-20 2q-87 0 -157 -84q-55 -66 -98 -165t-61 -203z" />
<glyph unicode="b" horiz-adv-x="815" d="M16 37q70 308 70 702q0 295 -39 637q-2 16 9.5 29.5t27.5 15.5h5q13 0 25 -9q14 -11 15 -28q31 -270 37 -503q43 47 98 80q45 25 92 35q24 5 50 6q24 0 50 -6q52 -10 95 -44q84 -68 133 -177t59 -234q4 -36 4 -72q-1 -85 -21 -168q-28 -117 -95 -199q-55 -68 -127 -92 q-45 -15 -88 -15q-26 0 -50 5q-66 14 -122 57q-76 60 -111 150q-16 -96 -35 -187q-4 -16 -18 -25q-10 -7 -22 -7q-4 0 -8 1q-16 3 -26 17q-8 12 -8 25v6zM160 469q37 49 92 73q47 20 96 20q8 0 17 -1q72 -8 123 -56t57 -132q1 -8 0 -17q0 -87 -58 -151q-44 -48 -99 -48 q-15 0 -30 3q-59 14 -96 69q-27 39 -27 76q0 19 7 37q27 66 118 70q16 0 29.5 -11.5t13.5 -28t-11 -29.5t-27 -13q-39 -2 -45.5 -16.5t10.5 -39.5q20 -27 47 -34q27 -6 49 18q37 41 37 99v12q-4 49 -33 77.5t-72 32.5q-7 1 -14 1q-37 0 -71 -18q-40 -22 -60 -65 q-19 -42 -19 -85q0 -32 10 -64q24 -76 91 -125q41 -33 87 -43q16 -4 33 -3q30 0 63 11q50 18 91 68q53 66 78 167q19 77 19 159q0 26 -2 53q-10 111 -52.5 205t-109.5 147q-43 35 -93 35q-49 0 -104 -33q-51 -29 -87 -76t-44 -94q-2 -8 -4 -14q-2 -121 -10 -236z" />
<glyph unicode="c" horiz-adv-x="774" d="M81 242q-25 80 -25 178q0 107 30 235q18 72 60 149t98 132q45 42 93 64q44 21 99 20h10q60 -2 119 -39q67 -39 85 -105q10 -36 9 -71q-1 -29 -7 -57q-16 -62 -50 -119q-55 -88 -127 -129q-43 -24 -80 -24q-45 0 -82 36q-40 38 -40 91q0 28 12 61q25 68 84 120 q29 25 55 35q21 10 38 10q16 0 30 -8q34 -17 34 -62v-7q-2 -35 -22 -88q-8 -14 -23.5 -21.5t-31 -0.5t-22.5 22.5t-1 31.5q10 23 14 39q-8 -4 -16 -12q-45 -39 -62 -86q-6 -17 -7 -31q0 -22 16 -37q11 -10 26 -10q16 0 37 12q55 29 98 101q43 71 43 133v6q0 68 -51 100 q-46 28 -91 28q-67 0 -132 -62q-47 -45 -84 -113t-53 -129q-30 -112 -30 -202q0 -33 4 -65q16 -114 58 -182.5t103 -95.5q35 -14 73 -15h4q36 1 76 17q42 18 80.5 51t76.5 93.5t65 140.5q6 14 21.5 22.5t30.5 2.5q16 -7 24 -22q5 -9 4 -18q0 -7 -2 -14q-74 -213 -212 -303 q-83 -54 -165 -54q-54 0 -109 23q-133 60 -185 228z" />
<glyph unicode="d" horiz-adv-x="858" d="M22 410q-7 50 -8 99q0 99 29 199q43 148 143 236q60 54 142 62q18 2 34 1q62 0 115 -24q76 -31 131 -88q16 309 60 479q4 16 18 24q10 6 20 6q4 0 10 -1q16 -4 24.5 -18.5t4.5 -30.5q-25 -98 -43 -292t-18 -390q0 -229 27 -389q31 -178 88 -244q9 -11 9 -26 q0 -19 -14 -31q-12 -11 -25 -10h-3q-16 1 -29 14q-55 61 -88 194q-41 -70 -104 -114q-67 -46 -139 -58q-19 -3 -37 -3q-55 0 -115 27q-80 36 -137 122q-73 106 -95 256zM102 424q18 -131 80 -225q46 -67 104 -93q44 -20 83 -20q13 0 27 3q52 9 102 44q76 53 102 135 q10 32 11 64q0 49 -25 96q-23 40 -68 58q-31 13 -63 12q-15 0 -29 -2q-47 -8 -77 -40t-30 -81q0 -63 46 -105q27 -25 56.5 -15.5t47.5 40.5q14 25 8 39t-47 12q-16 0 -29.5 11.5t-13.5 27.5t11.5 29.5t27.5 13.5h11q87 0 114 -59q11 -22 11 -45q0 -33 -23 -70 q-35 -59 -95 -78q-21 -7 -41 -7q-49 0 -92 40q-73 65 -73 163q0 87 50 139t124 64q24 4 47 4q82 0 145 -51q-2 68 -2 144v76v4q-14 47 -56 89t-100 64q-51 20 -95 20q-63 0 -111 -42q-82 -74 -119 -201q-25 -86 -25 -174q0 -42 6 -84z" />
<glyph unicode="e" horiz-adv-x="899" d="M50 542q26 124 89 228q68 115 121 170q79 81 154 80q34 0 67 -16q55 -28 56 -98q0 -24 -7 -52q-18 -84 -86 -176q-70 -96 -151 -148q-72 -43 -138 -43q-15 0 -30 2q-7 -48 -7 -91q0 -172 111 -273q59 -53 132 -65q25 -4 50 -5q45 -1 89 15q66 24 129 73q92 74 129 166 q17 42 17 75q0 35 -19 62q-20 31 -58 32h-3q-37 0 -83 -27q-44 -31 -70 -73q-19 -32 -20 -59q0 -8 2 -16q8 -49 26.5 -53t41.5 16q25 23 26 43v2q0 10 -24 17q-16 2 -24.5 17t-5.5 31.5t18.5 25t31.5 4.5q41 -8 63.5 -35t22.5 -64q-2 -55 -53 -102q-44 -38 -89 -38 q-13 0 -26 3q-70 16 -90 117q-3 16 -3 31q0 50 30 98q39 63 100 102q39 27 83 37q19 4 39 4q27 0 53 -7q48 -13 77 -56q35 -50 35 -112q0 -49 -22 -105q-45 -113 -154 -199q-72 -57 -154 -86q-55 -19 -115 -19q-30 1 -62 5q-95 14 -173 83q-96 87 -124 221q-15 69 -15 136 q0 62 13 122zM141 569q7 -1 14 -1q43 0 95 32q70 43 129 125q57 80 72 147q5 19 5 32q0 21 -12 26q-14 7 -30 7q-43 0 -95 -54q-47 -47 -110 -154q-43 -74 -68 -160z" />
<glyph unicode="f" horiz-adv-x="1030" d="M26 -148q-1 11 -1 22q0 42 17 83q21 53 75 88q55 36 108 36h9q57 -3 101 -29.5t68 -69.5q24 -40 24 -76q0 -32 -19 -60q-39 -52 -132 -52q-15 0 -32 1q-16 2 -27.5 15.5t-9.5 30t15.5 27.5t29.5 9q15 -1 27 -1q48 0 61 18q12 16 -6 47q-25 41 -70 54q-13 4 -26 4 q-35 0 -76 -24q-45 -29 -54 -81q-1 -11 -1 -22q0 -41 24 -81q29 -55 78 -83q34 -19 69 -19q16 0 31 4q102 27 156 162q41 104 41 229v22q0 27 -2 57t-8.5 64.5t-9.5 60t-12 67.5t-13 63l-19 69l-16 66l-18 72q-14 55 -19 69q-26 3 -52 3q-55 0 -106 -15q-92 -27 -114 -96 q-4 -16 -19.5 -24.5t-32 -3.5t-24.5 20.5t-2 31.5q35 111 170 152q62 17 132 17q14 0 28 -1q-23 88 -37.5 157t-24.5 147q-8 66 -8 125v23q2 70 16 132q23 96 79 139q39 30 85 30q20 0 41 -5q61 -14 113.5 -67.5t77.5 -123.5q30 -87 30 -213v-8q0 -16 -12 -28.5t-28.5 -12.5 t-29 12.5t-12.5 28.5q0 117 -26 193q-18 55 -55 93t-76 46q-33 8 -60 -10q-33 -25 -49 -95q-12 -55 -13 -121v-11q0 -62 11 -134q12 -78 26.5 -148.5t39.5 -162.5q41 -14 118 -55l84 -41q62 -28 111 -28q44 0 78 22q37 24 37 59q0 23 -15 51q-18 35 -51 54q-27 17 -54 17 q-6 0 -11 -1q-25 -2 -36 -16.5t-11 -32.5q4 -43 65 -43q16 0 28.5 -12.5t12.5 -29t-12.5 -28.5t-28.5 -12q-63 0 -103 34.5t-44 85.5v6q0 45 29 82q32 39 87 48q12 2 24 2q49 0 93 -28q55 -34 84 -87q25 -36 25 -82q0 -15 -3 -31q-10 -65 -71 -106q-55 -36 -121 -36t-145 36 q-31 14 -78 39.5t-68 34.5q35 -129 51.5 -199t35 -175.5t20.5 -185.5v-22q0 -139 -47 -260q-68 -174 -211 -209q-29 -8 -57 -8q-53 0 -101 28q-74 43 -113 117q-27 47 -33 100z" />
<glyph unicode="g" horiz-adv-x="821" d="M12 -188q-7 27 -7 54q0 66 44 132q43 63 129 82q39 8 75 8q42 0 79 -12q82 -23 125 -74q36 -41 36 -90q0 -25 -10 -53q-25 -66 -88 -89q-39 -15 -79 -15q-23 0 -46 5q-68 16 -96 68q-15 26 -15 56q0 36 23 77q8 14 23.5 19.5t31 -4t20.5 -24.5t-5 -32q-16 -33 -5 -52.5 t44 -27.5q16 -4 31 -4q20 0 40 8q33 13 44 43q4 12 4 23q0 21 -15 39q-27 33 -84 47q-35 9 -68 9q-24 0 -47 -5q-55 -12 -77 -47q-31 -44 -31 -88q0 -17 4 -33q12 -55 72 -96q57 -41 134 -50q17 -3 34 -3q59 0 114 26q201 98 238 381q10 68 10 152q-82 -109 -192 -142 q-47 -13 -91 -13q-59 0 -114 24q-123 53 -187 187q-44 91 -44 198q0 52 10 108q35 180 139 295q94 100 226 109h23q117 0 195 -80q-2 35 -4 65q-2 18 9.5 30.5t29.5 14.5h5q14 0 24 -10q12 -11 14 -27q6 -78 12.5 -220t8.5 -179q2 -25 8 -115t8 -140q1 -33 1 -79v-49 q-1 -78 -9 -141q-43 -326 -283 -443q-76 -34 -153 -34l-39 2q-98 12 -176 67q-82 57 -103 142zM158 588q-10 -50 -10 -96q0 -85 34 -156q54 -109 146 -150q42 -18 86 -18q53 0 108 26q99 48 166 197q0 2 2 4q-2 35 -7 102.5t-7 100.5l-6 150q-4 4 -4 10q-23 88 -92 134 q-52 36 -114 36q-18 0 -37 -4q-83 -13 -147 -82q-90 -96 -118 -254z" />
<glyph unicode="h" horiz-adv-x="888" d="M70 1432v5q0 13 8 25q10 14 26 16q4 1 8 1q12 -1 22 -9q13 -10 18 -26q41 -246 49 -590l8 12q39 47 99.5 83t121.5 44q20 3 40 3q52 0 94 -22q60 -32 85 -112q16 -47 16 -125q0 -67 -12 -157q-6 -66 -28.5 -202t-24.5 -157q-30 -184 -30 -294q0 -19 1 -36q6 -141 66 -184 q40 -24 75 -24q13 -1 26 3q46 12 81 60q35 45 37 94q1 6 1 11q0 35 -23 53q-14 12 -52 -4q-12 -4 -19 -10.5t-7 -8.5v-6q0 -4 10 -16q29 -35 31 -37q8 -14 5 -30.5t-17.5 -26t-31 -6.5t-26.5 18q-2 4 -5 8t-7 10l-13 10q-23 29 -28 58q-1 8 -1 16q-1 31 19 55q24 30 60 41 q37 15 67 15q36 0 64 -21q56 -43 56 -118q0 -7 -1 -15q-4 -74 -53 -139q-31 -43 -75 -69.5t-103.5 -26.5t-114.5 41q-94 63 -103 245q-1 18 -1 39q0 119 30 307q2 20 24.5 155.5t30.5 199.5q10 85 10 145q0 67 -12 105q-27 77 -102 77q-13 0 -27 -2q-45 -8 -92 -35.5 t-76 -64.5q-14 -16 -24 -34.5t-25 -49.5l-20 -47q0 -135 -2 -375.5t-2 -322.5q0 -16 -12.5 -28.5t-29 -12.5t-28.5 12t-12 29q0 80 2 346q1 177 1 296v103q-1 133 -13.5 339t-38.5 364z" />
<glyph unicode="i" horiz-adv-x="421" d="M0 1294q10 70 55 120t107 67q28 8 56 8q34 -1 68 -13q60 -22 95 -85q19 -41 19 -82v-17q-4 -50 -33 -92q-27 -42 -72 -68q-34 -19 -73 -20q-12 0 -25 2q-88 14 -109 84q-4 16 -4 33q0 38 22 78q35 59 87 59h3q67 0 80 -92q2 -16 -8 -30.5t-26.5 -16.5t-30.5 8t-16 27 q-3 12 -5 18q-6 -4 -14 -16q-14 -25 -8 -44.5t41 -25.5q8 -1 15 -2q43 0 73 49q21 34 21 66q0 23 -11 45q-30 55 -85 55q-18 0 -38 -6q-39 -12 -67.5 -43t-34.5 -78q-2 -16 -15.5 -26.5t-30.5 -8.5q-18 1 -28 15q-8 11 -8 26v6zM80 494q2 254 33 477q2 17 15 27q11 9 25 8h5 q18 -2 28.5 -16t8.5 -32q-31 -217 -33 -466v-23q0 -300 51 -410q5 -9 5 -18q0 -7 -3 -13q-5 -16 -21 -24q-9 -5 -18 -5l-14 3q-16 6 -23 21q-59 127 -59 450v21z" />
<glyph unicode="j" horiz-adv-x="622" d="M-32 -224q-8 27 -8 58q0 40 15 86q30 76 113 76h8q74 -2 118 -51t48 -111v-9q0 -61 -49 -85q-16 -8 -33 -8q-38 0 -84 37q-14 8 -16 24.5t8 30.5t25.5 16t27.5 -8q27 -20 41 -20q2 6 2 18q0 31 -24.5 56.5t-67.5 27.5q-37 2 -47 -27q-9 -27 -9 -52q0 -18 4 -35 q11 -42 48 -75.5t80 -42.5q14 -4 28 -4q28 0 54 13q104 53 125 166q6 37 6 75.5t-3 104t-3 82.5q-14 383 -23 514q-2 35 -3 141.5t-13 165.5q-2 16 6 30.5t23.5 17.5t29 -6.5t17.5 -25.5q12 -61 14 -182t4 -133q4 -92 21 -518q0 -18 3 -63.5t4 -73.5v-32.5v-38.5 q-1 -42 -7 -75q-29 -152 -166 -223q-48 -21 -92 -21q-21 0 -41 4q-64 15 -113 62q-51 49 -71 114zM111 1298q10 70 56 120t107 67q28 8 56 8q35 0 69 -13q62 -22 97 -85q19 -41 19 -82q0 -8 -1 -17q-4 -49 -33 -92q-27 -43 -71 -68q-34 -20 -74 -20q-12 0 -25 2 q-88 14 -108 84q-4 16 -4 33q0 38 22 78q35 59 86 59h3q67 0 81 -92q2 -16 -8 -30.5t-26.5 -16.5t-31 8t-16.5 27q-2 12 -4 18q-6 -4 -14 -16q-14 -25 -8 -44.5t41 -25.5q8 -1 15 -1q43 0 73 48q21 34 21 66q0 23 -11 45q-18 35 -52 47q-19 7 -39 7q-16 0 -34 -5 q-41 -12 -69.5 -44t-34.5 -77q-2 -16 -15.5 -26.5t-31 -8.5t-27.5 15q-8 12 -8 26v6z" />
<glyph unicode="k" horiz-adv-x="903" d="M16 1399v5q0 12 8 24q10 14 28 16h6q14 0 25 -8q13 -10 15 -29q45 -403 54 -694l12 12q25 25 39 37q76 66 123 119t88 123q8 14 24.5 18t30.5 -4t18 -24.5t-4 -30.5q-45 -78 -96 -135.5t-131 -127.5l-6 -6q18 2 37 2q94 0 157 -53q78 -66 103 -201q2 -15 3 -34 q0 -61 -24 -166l-28 -115l-31 -127q-26 -115 -26 -184q0 -13 1 -25q8 -74 56 -88q21 -6 43 -6q33 1 69 13q62 20 105 61q37 39 39 69q0 29 -39 47q-29 12 -56.5 7t-48.5 -27t-21 -45q0 -21 19 -43q12 -12 10 -29.5t-14 -29t-29.5 -9.5t-27.5 15q-39 48 -39 96v9q4 52 43 93 q37 38 89 50q16 4 34 4q37 0 78 -17q84 -42 84 -119q0 -65 -64 -129q-55 -55 -138 -83q-46 -15 -91 -15q-36 0 -70 10q-100 29 -111 158q-2 16 -2 35q0 78 27 198q10 45 31 127l28 117q21 95 21 142q0 14 -2 24q-18 109 -74 154q-40 34 -102 34h-4q-47 0 -111 -18l-22 -6 q0 -301 -41 -563q-4 -16 -17.5 -26.5t-30 -7.5t-26.5 16.5t-8 29.5q41 260 41 563q-12 25 0 49q-2 313 -54 748z" />
<glyph unicode="l" horiz-adv-x="520" d="M51 676q8 170 39 457q29 272 29 313q0 16 12 28.5t28.5 12.5t29 -12.5t12.5 -28.5q0 -49 -29 -322q-31 -285 -39 -452q-5 -93 -5 -172q0 -147 17 -246q31 -174 107 -203q29 -12 57.5 4.5t50.5 58.5q23 44 22 88q0 39 -17 56q-16 23 -35 23q-14 0 -29 -15q-18 -20 -20 -48 t16 -58q8 -14 5 -30.5t-17.5 -26t-30.5 -6.5t-27 18q-28 49 -28 96q1 7 1 15q6 54 40 93q39 43 90 43q57 0 100 -51q33 -52 33 -110v-7q-2 -62 -31 -118q-33 -61 -88 -94q-32 -19 -67 -19q-26 0 -54 10q-121 47 -160 267q-17 103 -17 254q0 83 5 182z" />
<glyph unicode="m" horiz-adv-x="1433" d="M16 867q0 13 10 25q12 14 27 15.5t28 -10t15 -27.5q6 -53 11.5 -156.5t5.5 -119.5q2 -33 4 -74q49 127 141 221q35 33 59 50q45 32 84 32h7q143 -4 176 -188q45 129 129 233q12 16 21 26.5t24.5 27t30 26.5t34 20.5t37 14.5t40 4t46.5 -8q143 -41 170 -219q7 -43 7 -98 q0 -104 -25 -250q-12 -72 -41 -202t-37 -163q-29 -138 -29 -213q0 -27 4 -45q14 -77 78 -97q27 -8 55 -8q41 0 86 17q76 29 101 82q10 17 10 35q0 30 -29 61q-28 31 -74 31q-16 0 -34 -4q-58 -10 -58 -44v-3q0 -2 2.5 -5.5t10.5 -8.5t20 -9q35 -6 54 23q10 14 25 17t29.5 -6 t17.5 -25.5t-5 -30.5q-38 -61 -104 -61q-16 0 -33 3q-37 8 -64.5 33t-31.5 61v11q-1 50 33 81q38 35 90 46q19 3 38 4q30 0 61 -8q50 -12 83 -47q49 -57 49 -117q0 -38 -19 -76q-41 -80 -144 -120q-58 -23 -112 -23q-42 0 -81 14q-109 37 -134 158q-4 22 -4 51q0 86 31 239 q8 33 35 162l43 201q24 141 24 238q0 47 -6 84q-18 127 -112 153q-15 4 -28 4q-25 1 -47 -13q-34 -22 -77 -77q-33 -41 -58.5 -83t-44 -96t-29.5 -84t-20.5 -101.5t-12.5 -93t-10 -111.5t-9 -107v-4l-2 -4q0 -6 -4 -10q-2 -8 -9 -12q-12 -12 -32 -11q-16 4 -25 17 q-4 4 -6 10l-2 10v6v17v14v16v13v112q0 23 3 83.5t3 95t-6 98.5q-16 147 -107 151q-14 0 -41 -18q-18 -12 -49 -43q-57 -55 -93 -120.5t-50 -146.5t-19.5 -147.5t-5.5 -169.5v-33v-12v-2v-2q0 -2 -1 -4t-1 -6q-2 -12 -16 -21q-18 -14 -41 -2q-10 6 -16 17q-2 4 -4 10v6v4v2 v41q-2 37 -8.5 105.5t-8.5 95.5q-2 16 -2 47v45q-8 147 -12 203q0 14 -6 116z" />
<glyph unicode="n" horiz-adv-x="970" d="M25 987q0 16 12 28.5t28.5 12.5t28.5 -12.5t12 -28.5q0 -66 11 -170l2 -18q90 121 221 178q69 30 130 30q35 0 67 -10q104 -29 151 -153q16 -46 20 -110q4 -52 5 -91q0 -8 -1 -16q-1 -43 -19.5 -134.5t-24.5 -115.5l-31 -131q-49 -199 -57 -293q-3 -29 -3 -56 q0 -96 35 -149q23 -35 66 -46q19 -5 39 -5q25 0 51 8q49 16 79 50t30 75q0 31 -43 57q-33 22 -61 22q-10 0 -19 -3q-27 -8 -25 -39q2 -35 27 -47q16 -6 22 -22.5t-1 -32t-23.5 -21.5t-30.5 2q-33 14 -53.5 47t-22.5 68v7q1 38 19 68q20 34 63 48q22 7 45 8q50 0 103 -35 q81 -50 81 -125q-1 -76 -48 -129q-48 -53 -117 -76q-34 -14 -72 -14q-29 0 -62 8q-75 19 -116 82q-48 74 -48 197q0 29 3 61q10 94 59 305q27 113 38 164t25 136q12 70 13 123q0 11 -1 21q-3 58 -22 105q-31 86 -96 105q-19 6 -41 6q-45 0 -100 -25q-80 -35 -147.5 -103.5 t-88.5 -133.5l-4 -9q2 -8 2 -16q16 -240 17 -651q0 -16 -12.5 -28.5t-29 -12.5t-28.5 12t-12 29q0 406 -17 647q-2 33 -16 172q-12 121 -12 180z" />
<glyph unicode="o" horiz-adv-x="751" d="M-2 545q10 199 102 332q102 151 259 151h14q123 -4 209 -90q12 -12 12 -28.5t-12.5 -29t-29 -12t-28.5 12.5q-63 63 -155 65h-8q-116 0 -193 -114q-80 -118 -88 -291l-2 -44q0 -151 62 -269q70 -134 204 -156q15 -3 29 -2q73 0 133 67q72 84 94 223q8 47 8 93 q0 93 -32 181q-48 130 -162 187q-32 16 -60 16q-22 0 -41 -10q-39 -20 -61 -82q-20 -50 -20 -104q0 -15 2 -29q6 -70 38 -108q19 -25 42 -25q9 0 18 4q49 23 66.5 57.5t9.5 59.5q-4 10 -9 10q-25 0 -59 -45q-12 -14 -28.5 -16t-30 9t-15.5 27.5t8 28.5q61 76 121 78 q35 0 58.5 -18.5t31.5 -48.5q7 -20 7 -41q0 -37 -20 -78q-32 -64 -107 -96q-30 -14 -58 -14q-55 0 -100 55q-47 61 -55 155q-2 20 -2 40q0 70 24 128q35 90 100 125q38 21 80 20q46 0 97 -24q143 -73 199 -227q38 -105 39 -214q0 -52 -9 -106q-25 -164 -113 -264 q-83 -98 -192 -98q-23 0 -47 4q-119 23 -199 113q-79 89 -109 203q-23 89 -24 186q0 26 2 53z" />
<glyph unicode="p" horiz-adv-x="792" d="M25 1008q0 18 11 30.5t28.5 12.5t29.5 -11.5t12 -27.5q2 -68 5 -150q72 86 163 121q48 22 100 22q31 0 63 -7q87 -21 151 -99q121 -147 133 -401q1 -19 1 -37q0 -207 -104 -355q-86 -126 -191 -126q-20 0 -40 4q-106 23 -178 147q-57 100 -57 198q0 19 2 38 q14 143 139 178q23 6 44 6q40 0 74 -21q52 -34 78 -94q23 -41 23 -96q0 -10 -1 -20q-5 -68 -50 -111q-33 -29 -70 -31q-33 0 -59 25q-37 35 -45 92q-2 18 8 31.5t27.5 15.5t31 -8t15.5 -27q4 -29 18 -45q2 -2 4 -2q4 0 12 10q23 18 26 55v11q0 32 -15 65q-16 39 -44 56.5 t-57 9.5q-70 -20 -77 -109q-2 -14 -2 -28q0 -77 47 -158q53 -94 122 -109q9 -2 18 -2q67 0 132 91q87 124 87 304q0 19 -1 38q-10 227 -113 352q-63 77 -144 77q-37 0 -77 -16q-59 -23 -108.5 -73t-73.5 -111q-2 -6 -6 -10q26 -684 26 -1005v-23q0 -16 -12 -28.5 t-28.5 -12.5t-29 12t-12.5 29q0 199 -5 406.5t-16 510.5t-15 406z" />
<glyph unicode="q" horiz-adv-x="892" d="M120 324q-5 49 -5 99q0 115 30 232q45 188 127 285q74 86 162 86q12 0 25 -2q117 -18 192 -172q4 47 11 88q2 16 16 26.5t30.5 8.5t26.5 -16.5t8 -30.5q-14 -100 -24 -293l2 -10q2 -13 -4 -25q-4 -82 -8 -133l-15 -143q-8 -102 -12 -158.5t-4 -138.5q0 -80 8 -150 q10 -88 80 -151q51 -45 106 -45q23 0 46 8q53 18 72 64q10 21 10 42q0 25 -12 49q-23 45 -77 60q-29 7 -51 7q-27 0 -43 -11q-18 -14 -16 -41t16 -35q10 -6 33 12q12 10 29.5 9t28 -13t9 -29.5t-13.5 -27.5q-40 -36 -79 -36q-25 0 -50 15q-51 31 -55 101v10q0 65 51 100 q36 28 89 28q33 0 73 -11q70 -18 108 -70q40 -54 40 -115q0 -56 -34 -109q-36 -55 -104 -77q-38 -13 -73 -13q-82 0 -156 68q-94 84 -109 203q-9 71 -9 156q0 75 7 161q-88 -111 -172 -149q-46 -21 -87 -21q-73 0 -130 64q-74 82 -93 244zM202 334q17 -137 72 -199 q33 -35 73 -35q23 0 48 11q102 47 219 237l2 2q8 82 11 125q4 51 10 156q-27 143 -80 223t-111 88q-6 1 -12 1q-51 0 -98 -56q-70 -82 -113 -252q-26 -113 -26 -214q0 -45 5 -87z" />
<glyph unicode="r" horiz-adv-x="747" d="M2 977q0 16 11.5 29.5t27.5 13.5t29.5 -11.5t13.5 -27.5q4 -98 29 -303l8 -84q45 158 115 256q92 129 217 141q13 1 26 1q67 0 116 -36q58 -43 75 -114q6 -26 6 -53q0 -43 -16 -85q-26 -70 -89 -110q-37 -21 -74 -21q-10 -1 -21 1q-48 8 -81 38q-36 34 -36 76q0 6 1 12 q4 53 60 95q12 10 29.5 8t27.5 -15.5t8 -31t-16 -27.5q-27 -20 -27 -37q-2 -10 9 -20q14 -14 36.5 -16t38.5 8q42 26 58 70q10 27 10 54q0 16 -4 33q-10 43 -43 69q-27 21 -67 20q-9 0 -19 -1q-88 -8 -158 -106q-66 -92 -108 -248q-39 -150 -45 -311l6 -76q2 -29 4 -84 q2 -20 2 -37v-10v-4v-2q0 -6 -4 -15q-6 -18 -29 -24q-4 -1 -8 -1q-21 0 -35 19l-4 13q-17 72 -17 179q0 21 1 44q-6 78 -9 121q-6 109 -26 303q-23 205 -29 307z" />
<glyph unicode="s" horiz-adv-x="735" d="M4 323q0 63 37 117t104 70q21 5 43 5q26 0 56 -8q52 -15 92 -50q44 -37 60 -86q7 -20 7 -44q0 -32 -14 -69q-35 -78 -98 -102q-21 -9 -41 -9q-18 0 -35 7q-37 16 -57 63q-8 14 -2 30.5t21.5 24t31.5 1t22 -22.5q8 -16 17 -21q4 -2 12 2q33 12 55 60q8 17 8 33 q0 37 -40 71q-27 23 -60 33t-57 4q-54 -14 -74 -74q-9 -25 -9 -53q0 -38 17 -82q29 -80 101 -125q49 -30 112 -30q28 0 60 6q106 18 168 78q42 42 42 119q0 10 -1 20q-6 82 -54 151q-45 63 -131 144q-100 92 -123 119q-52 62 -52 118q0 12 3 25q16 68 65.5 112t111.5 56 q20 4 38 4q40 0 80 -18q58 -26 80 -87q8 -22 8 -44q0 -24 -10 -47q-18 -44 -59 -60q-19 -8 -37 -8q-28 0 -53 20q-37 31 -50 101q-2 18 7.5 31.5t27 16.5t30.5 -6.5t17 -25.5q6 -41 21 -53q2 -2 6 0q8 2 14 16t0 31q-10 29 -38 42q-20 9 -44 9q-11 0 -24 -2q-39 -8 -70 -36 t-39 -69q-1 -5 -2 -11q0 -27 33 -62q18 -23 115 -113q59 -51 96 -92t73.5 -112.5t41.5 -145.5q1 -13 1 -25q0 -111 -67 -176q-80 -78 -209 -102q-39 -7 -75 -7q-88 -1 -156 43q-96 62 -135 167q-19 65 -19 128z" />
<glyph unicode="t" horiz-adv-x="673" d="M-186 1082q2 18 16 28q93 71 235 71q27 0 56 -3q14 127 20 221q3 15 15 27q11 10 24 10h6q18 -2 28.5 -14.5t8.5 -30.5l-20 -222q57 -10 108 -10q19 0 35 1q64 5 107 40q29 25 26 49q-2 20 -22 35q-14 10 -25 6q-16 -8 -20 -49q-2 -16 -15.5 -27.5t-30 -9.5t-27.5 15.5 t-9 29.5q8 88 65 115q21 10 43 10q32 0 66 -22q51 -35 57 -95q1 -6 1 -12q0 -60 -56 -106q-44 -37 -104 -51q-53 -12 -89 -11h-10q-39 2 -108 10l-21 -204q-31 -307 -31 -504q0 -152 7 -186q16 -94 79 -121q38 -14 75 -14q30 0 58 10q64 20 109 75.5t50 114.5q1 7 1 13 q0 51 -35 89q-29 33 -69 37q-6 1 -13 1q-33 0 -59 -19q-33 -20 -43 -53q-3 -11 -3 -23q0 -25 13 -55q20 -41 47 -45q20 -2 39 16q16 16 15 29q-4 12 -35 18q-16 4 -25.5 18.5t-6.5 31t17.5 25.5t30.5 7q84 -16 99 -84q2 -11 2 -22q0 -43 -37 -80q-42 -42 -95 -42q-7 0 -14 1 q-68 10 -110 90q-22 50 -22 93q0 24 6 46q20 62 79 99q43 31 102 32q10 1 21 -1q72 -6 123 -62q43 -50 52 -110q3 -20 3 -38q0 -38 -12 -76q-18 -54 -57 -101.5t-91 -78.5q-54 -30 -118 -38q-13 -2 -26 -1q-51 0 -103 23q-104 43 -127 180q-8 41 -9 201q0 201 31 512l21 207 q-23 2 -45 2q-118 0 -189 -56q-12 -10 -29.5 -8t-27.5 16q-8 11 -8 25v5z" />
<glyph unicode="u" horiz-adv-x="1001" d="M51 451q10 152 55.5 305t96.5 231q11 13 27 17q4 1 8 1q12 -1 22 -7q14 -10 17 -26t-5 -30q-45 -68 -87 -211t-52 -287q-2 -34 -3 -65q0 -116 30 -195q39 -104 129 -121q7 -2 15 -2q35 0 69 41q41 51 73 154q43 133 66 324q2 168 23 315q0 4 2 6q0 6 4 14q2 6 8 11 q16 16 39 10q18 -4 26 -21q2 -4 2 -10l2 -8v-6q-2 -8 -4 -35q-6 -80 -6 -90q-8 -133 -12 -174l-2 -17q0 -72 2 -135q10 -141 39 -229q33 -94 86 -117q21 -8 40 -8q21 0 39 10q34 20 50 70q12 32 12 65q0 19 -4 37q-10 54 -47 82q-18 14 -29 15q-4 0 -10 -7q-20 -23 -22 -75 q-2 -27 4 -47q10 10 20 24q10 12 26.5 16t30 -7t16.5 -27.5t-7 -30.5q-31 -43 -62 -55q-17 -8 -33 -8q-23 0 -43 18q-35 31 -35 102q0 9 1 19q4 82 45 127q29 31 67 32q39 0 80 -30q62 -47 78 -130q6 -32 6 -62q0 -46 -16 -85q-27 -78 -86 -112q-38 -22 -81 -22 q-35 0 -73 15q-86 35 -129 164q-14 39 -22 84l-13 -37q-41 -121 -88 -180q-60 -72 -134 -72q-15 0 -30 3q-135 27 -190 174q-34 91 -34 220q0 36 3 75z" />
<glyph unicode="v" horiz-adv-x="1093" d="M-4 938q6 16 21.5 23.5t32 1t22.5 -22.5q29 -61 55.5 -125.5t54.5 -148.5l41 -125l49 -148q33 -109 39 -131q8 -23 14.5 -42t8.5 -26.5t4 -17.5l4 10q10 31 20 70l21 63q6 25 8 31q90 258 180 412q76 129 156 190q72 56 144 56q34 0 69 -13q48 -18 70 -58q20 -35 19 -73 v-10q-3 -43 -13 -84q-20 -68 -68.5 -118t-111.5 -54h-12q-80 0 -117 49q-23 29 -23 65q0 21 8 44q20 61 80 75q13 3 27 3q49 0 96 -46q12 -12 12 -28.5t-12 -28.5t-28.5 -12t-28.5 12q-27 27 -45 21q-16 -4 -25 -23q-6 -20 2 -33q13 -16 52 -16h9q31 2 62 33.5t45 81.5 q9 32 9 57q0 14 -3 26q-8 32 -33 40q-20 8 -41 8q-45 0 -94 -37q-66 -53 -135 -170q-84 -143 -172 -397q-2 -4 -8 -29l-21 -64q-10 -37 -20 -67q-20 -66 -35 -101q-8 -23 -14 -34q-6 -10 -11 -17q-16 -16 -32 -16q-10 0 -21 6q-37 18 -39 72q0 10 1 19t1 11t-2 9 q-8 39 -35 127q-8 23 -40 131l-48 147q-12 41 -40.5 123t-53 144.5t-53.5 123.5q-5 8 -5 17q0 7 3 14z" />
<glyph unicode="w" horiz-adv-x="1503" d="M24 896q7 16 22 23t30.5 -0.5t21.5 -21.5q182 -426 232 -649q4 -25 20 -107q25 53 58 135q74 178 81 197q2 8 39 80l27 51l10 19l2 6l4 4q2 4 7 6q2 2 5 4t13 4t18 0q18 -4 33 -24q6 -10 15 -27q12 -27 28.5 -74t65.5 -211q45 -143 67 -207q14 61 25 97q14 51 41 178 q31 135 49 205q70 258 168 364q73 76 144 76q33 0 65 -16q84 -41 115 -162q11 -44 11 -83q0 -65 -30 -118q-46 -85 -145 -85q-24 0 -52 5q-102 20 -114 105q-2 11 -2 22q0 52 39 104q47 64 106 72q6 1 11 1q32 0 57 -21q27 -25 37 -70q2 -16 -7.5 -30.5t-26 -17.5t-30.5 6 t-18 26q-2 18 -9 24h-4q-25 -2 -49 -38q-25 -32 -25 -57q0 -4 1 -9q4 -27 51 -35q19 -4 34 -4q52 0 74 41q19 35 19 79q0 29 -8 62q-23 85 -71 109q-13 7 -27 6q-38 0 -85 -49q-86 -90 -149 -328q-18 -72 -49 -203q-27 -129 -43 -180q-12 -43 -29 -127l-12 -49 q-2 -12 -4 -16q0 -4 -2 -8q0 -2 -2 -7l-5 -8q-12 -14 -32 -14h-4q-22 2 -39 22q-8 10 -17 27q-14 27 -32 76q-25 63 -70 211q-55 180 -66 209l-8 24l-2 -4q-35 -70 -39 -76q-6 -16 -80 -194l-18 -53q-14 -37 -23.5 -59.5t-22.5 -48.5t-24 -36q-2 -2 -2 -8q-4 -12 -6 -16 q-16 -42 -52 -42q-5 0 -9 1q-10 2 -17.5 7t-11.5 9l-2 4q-2 4 -2 8l-4 8q-2 8 -4 21q-4 18 -13 61q-18 106 -24 129q-47 215 -223 633q-4 9 -4 17t3 15z" />
<glyph unicode="x" horiz-adv-x="819" d="M-25 43q95 252 230 498q-76 268 -148 448q-6 14 1.5 29.5t22.5 23.5q8 4 15 4q8 0 16 -4q16 -8 23 -24q63 -160 127 -377q160 266 301 371q14 10 30.5 8t27 -16.5t8.5 -31t-17 -26.5q-147 -109 -319 -416v-6q8 -27 57 -213q47 -178 78 -284q47 -162 82 -226 q61 -115 149 -120q2 0 5 -1q29 0 55 24q29 24 43 65q9 30 9 55q0 12 -2 24q-7 34 -34 52q-12 10 -31.5 2t-29.5 -31q-10 -18 -4 -29q6 -14 39 -20q18 -4 27 -17.5t6 -31t-16 -26.5t-30 -7q-76 14 -100 67q-11 22 -11 45q0 27 15 56q14 29 41 50.5t63 28.5q8 2 17 2 q29 0 59 -20q54 -35 68 -105q5 -26 5 -50q0 -39 -13 -72q-20 -60 -70 -104q-44 -39 -102 -40q-7 0 -13 1q-135 10 -217 163q-39 70 -88 240q-23 78 -114 424q-102 -201 -183 -412q-6 -16 -21.5 -23t-31.5 -1t-24 22q-4 9 -4 17q0 7 3 14z" />
<glyph unicode="y" horiz-adv-x="749" d="M86 -200q-25 49 -25 101q0 54 27 111q23 51 74 93t110 63q43 12 84 13h3l79 -21q41 -23 66 -68q19 -38 19 -79q0 -12 -1 -25q-8 -54 -35 -101q-31 -51 -82 -77q-24 -13 -51 -13q-28 0 -59 15q-55 25 -66 67q-2 10 -2 19q0 30 23 59q45 55 121 72q16 2 30.5 -7.5 t17.5 -25.5t-6.5 -30.5t-25.5 -18.5q-47 -8 -74 -41q-4 -4 -4 -8q4 -6 19 -13q12 -6 24 -6q35 0 64 51q20 33 24 69t-6 52q-28 49 -82 49q-24 0 -53 -10q-45 -14 -83 -46t-54 -64q-16 -41 -16 -78.5t16 -71.5q33 -68 114 -109q67 -36 139 -36q14 0 29 1q88 9 138 72 q64 78 64 215q0 17 -1 35q-2 49 -16 150q-16 113 -21 145q-6 68 -14 313q-33 -113 -70 -186q-93 -185 -232 -185q-8 0 -16 1q-96 6 -133 125q-21 70 -21 178q0 22 1 45q4 106 23.5 221t37.5 168q6 16 20 25q9 4 18 4q7 0 14 -2q16 -6 24 -21t2 -31q-16 -49 -34.5 -157.5 t-22.5 -210.5q-1 -21 -1 -40q0 -97 17 -155q20 -66 60 -67h8q91 0 162 139q39 78 92 266q8 33 20 88q12 66 21 94v5v6q0 6 2 14q2 16 8 29q10 18 31 20q20 4 37 -10q20 -15 20 -42q0 -9 -2 -19q0 -4 -2 -17q-2 -6 -2 -8q-4 -67 -4 -125q0 -39 2 -74q0 -23 4 -165t12 -218 q2 -31 21 -141q14 -96 16 -158q1 -19 1 -38q0 -166 -81 -269q-49 -59 -123 -83q-53 -18 -107 -18q-19 0 -39 2q-73 9 -138 42q-104 53 -154 152z" />
<glyph unicode="z" horiz-adv-x="1130" d="M5 948q5 16 20.5 24.5t31.5 2.5q112 -33 233 -33q97 0 199 21l31 6q20 4 53 12t54 12l75 19q18 2 29 4h12h11q18 -4 28.5 -22.5t1.5 -43.5q-4 -12 -12 -28q-14 -20 -39 -52q-16 -18 -41 -43q-4 -4 -9 -10t-7 -8l-4 -4q-70 -82 -140 -182q50 11 95 11q91 0 164 -44 q14 -8 18 -24.5t-4 -31t-24.5 -18.5t-30.5 4q-42 25 -92 30q-19 2 -38 2q-29 0 -55 -5q-43 -8 -102 -29q-68 -104 -156 -258l-43 -80q29 6 72 6h18q116 0 183 -24q25 -10 110 -51q72 -33 111 -45q43 -14 79 -13q61 0 101 39q41 43 45 92q4 41 -25 52q-16 7 -35.5 7t-43.5 -7 q-31 -10 -45 -27q16 -12 26 -16q16 -8 23.5 -23.5t0.5 -31t-22.5 -22.5t-30.5 -1q-47 18 -67 47q-15 21 -15 43q0 15 7 31q20 51 98 77q38 12 71 12q36 0 66 -14q75 -32 75 -118q0 -8 -1 -17q-6 -78 -70 -141q-63 -65 -155 -65q-49 0 -107 18q-47 14 -123 49q-82 39 -102 47 q-50 20 -146 20h-26q-94 -2 -146 -30l-10 -17q-10 -14 -20 -22q-23 -16 -49 -8q-23 6 -31 26.5t4 40.5q6 10 22 23q6 6 13 10l10 6l4 4q31 37 105 164l102 176q-20 -6 -39 -10q-32 -6 -59 -6q-52 0 -90 22q-38 23 -52 60q-9 26 -10 49q0 10 2 20q6 32 25 60q33 47 78 57 q13 3 25 3q43 0 77 -38q12 -12 10 -29.5t-14 -28.5t-29.5 -9t-27.5 14q-10 10 -21 8q-16 -4 -31 -22q-15 -22 -15 -38q0 -22 24 -36q17 -10 44 -10q20 0 46 6q31 6 127 39q100 154 200 270l23 25l33 37l-21 -7q-20 -4 -53 -12l-53 -12q-23 -6 -33 -8q-107 -21 -209 -21 q-136 0 -264 37q-17 3 -25 19q-5 10 -5 20q0 6 2 12z" />
<glyph unicode="{" horiz-adv-x="2058" d="M23.5 638q27.5 118 97 225.5t167 180t217.5 95t240 -38.5q147 -76 158 -221q8 -125 -86 -250q-55 -76 -134 -128t-172 -68.5t-181 28.5q-96 49 -103 147q-6 80 52 164q55 80 143 125t176 23q59 -14 87 -55.5t26 -94.5q-4 -96 -80 -160q-53 -43 -106.5 -51t-92.5 29 q-33 43 -18.5 95t65.5 101q12 10 29.5 10.5t29 -12t11.5 -30t-12 -29.5q-55 -51 -43 -80q27 -18 84 29q49 41 51 102q2 53 -51 68q-57 14 -123 -19q-66 -35 -109 -98q-41 -59 -37 -111q4 -53 58 -79q96 -45 202 -3q104 43 183 146q76 100 69 194q-6 100 -112 154 q-94 47 -190.5 30.5t-181.5 -79t-147.5 -159.5t-85 -199.5t4 -197.5t104.5 -157q229 -180 618 84q123 84 316 256q213 190 262 227q131 98 254 144q203 74 303 -41q70 -80 43 -176q-23 -78 -104 -144q-74 -61 -170 -90q-96 -31 -170 -8q-90 27 -97 109q-4 61 43.5 120.5 t104.5 65.5q39 4 67.5 -17.5t40.5 -64.5q6 -16 -2 -31.5t-24.5 -20.5t-31.5 3t-19 25q-4 12 -9.5 18t-7.5 6h-6q-23 -2 -49.5 -34.5t-24.5 -63.5q2 -25 39 -37q49 -14 125 9.5t138.5 73.5t76.5 105q16 51 -24 99q-63 72 -213 18q-113 -41 -234 -133q-29 -23 -256 -223 q-195 -172 -325 -262q-436 -299 -713 -82q-102 80 -135 200.5t-5.5 238.5z" />
<glyph unicode="|" horiz-adv-x="266" d="M86 -37q0 66 12.5 195t14.5 186q4 190 -8.5 543.5t-12.5 503.5q0 16 12.5 28.5t29 12.5t28.5 -12.5t12 -28.5q0 -150 12.5 -504.5t8.5 -542.5q-2 -61 -14.5 -194.5t-12.5 -186.5q0 -16 -12.5 -28.5t-28.5 -12.5t-28.5 12.5t-12.5 28.5z" />
<glyph unicode="}" horiz-adv-x="2060" d="M72 295q-4 86 69 176q68 82 170.5 133t190.5 33q88 -20 100 -100q10 -59 -29 -123q-39 -66 -96 -76q-76 -16 -117 68q-8 16 -1.5 31.5t21.5 23.5t30.5 2t23.5 -21q12 -29 27 -24q23 4 43 39q23 37 18 67q-4 25 -37 31q-59 14 -141 -27t-139 -108q-53 -68 -51 -119t73 -78 q82 -31 205 33q88 45 195 139q43 39 237 242q190 199 301 289q412 334 705 137q106 -72 148 -188.5t24.5 -235.5t-77.5 -231.5t-150.5 -192.5t-208 -112.5t-240.5 16.5q-158 63 -178 209q-18 123 67 254q80 125 213.5 192.5t257.5 13.5q96 -41 111 -137q12 -80 -39 -168 q-47 -84 -130 -136t-171 -38q-51 10 -84 46t-43 83q-16 94 43.5 156.5t132.5 77.5q37 6 72 -4.5t47 -46.5q25 -66 -61 -166q-10 -12 -27.5 -14.5t-30 9t-14.5 29t10 29.5q47 55 47 82q-8 4 -28 0q-49 -8 -84 -47t-25 -88q10 -55 57 -64q57 -10 119 29t98 104q37 63 29 115 q-6 51 -61 76q-88 37 -194.5 -16.5t-176.5 -159.5q-68 -109 -55 -199q14 -98 127 -143q141 -57 278 18q135 74 219 231q55 100 69.5 204t-20 196t-116.5 147q-242 164 -606 -131q-119 -96 -295 -280q-203 -213 -244 -248q-113 -100 -211 -152q-154 -80 -270 -37 q-121 45 -127 150z" />
<glyph unicode="~" horiz-adv-x="774" d="M10 928q33 92 119 143q102 61 197 8q23 -12 51 -35q33 -23 41 -28q39 -25 84 -21q23 2 63 41l39 41q31 33 35 37q10 12 27.5 12t30 -11t12.5 -28.5t-13 -29.5q-2 -2 -30 -35l-43 -45q-63 -59 -117 -64q-70 -4 -131 35q-12 6 -45 31q-27 20 -45 31q-53 29 -113.5 -8 t-83.5 -103q-6 -14 -21.5 -22.5t-31 -2t-23.5 22t-2 31.5z" />
<glyph unicode="&#xa1;" horiz-adv-x="374" d="M-53 1276q0 70 75.5 113t139 35.5t88 -60.5t-13.5 -100q-39 -43 -113 -43q-16 0 -28.5 12t-12.5 28.5t12.5 29t28.5 12.5q37 0 49 14q6 6 2 12q0 6 -8 11.5t-36 2t-67 -23.5q-35 -20 -34 -43q0 -25 30 -51q35 -31 85.5 -40t101.5 11q14 8 30.5 2t23.5 -21.5t1 -32 t-22 -22.5q-78 -31 -150 -17.5t-125 58.5q-55 51 -57 113zM76 59q14 133 20 281.5t10.5 338t8.5 284.5q0 16 13 27t29.5 11t28 -13.5t11.5 -29.5q-4 -94 -8.5 -284.5t-11.5 -340t-19 -282.5q-2 -16 -15.5 -27.5t-30 -9.5t-27.5 15.5t-9 29.5z" />
<glyph unicode="&#xa2;" horiz-adv-x="694" d="M93 332q-36 114 1 241q20 74 88 156q66 78 144 129q92 59 170 49q98 -10 141 -121q25 -66 -3 -122t-79 -74q-68 -23 -100 31q-29 45 2 131q6 16 21.5 23t31.5 1t23.5 -21.5t1.5 -31.5q-14 -39 -11 -55h2q20 8 32.5 32.5t0.5 57.5q-25 63 -73 68t-117 -38 q-68 -43 -124.5 -111.5t-72.5 -123.5q-27 -115 0 -201t94 -137q43 -33 93.5 -42t111.5 9.5t119 69.5q12 10 28.5 10t27.5 -13t11 -29.5t-14 -29.5q-70 -63 -148.5 -86.5t-148.5 -11.5t-129 58q-88 68 -124 182zM358 -96q-2 16 9.5 29.5t28 15.5t29.5 -9.5t15 -27.5l6 -70 q2 -16 -9 -29.5t-27.5 -15.5t-29.5 9.5t-15 27.5zM358 1112q0 16 11.5 29.5t28 13.5t29.5 -11.5t13 -27.5l2 -51q0 -16 -11 -29.5t-27.5 -13.5t-30 11t-13.5 28z" />
<glyph unicode="&#xa3;" horiz-adv-x="1171" d="M100 671.5q6 16.5 23 22.5q102 47 188 58q37 362 133 557q39 78 121 106.5t163 -4.5t118 -117q12 -25 8 -61q0 -8 -1 -16.5t-2 -13.5t-1 -9q0 -16 -12.5 -28.5t-28.5 -12.5t-28.5 12.5t-12.5 28.5q0 2 4 47q2 14 0 21q-25 53 -76 73.5t-102 3t-76 -66.5 q-90 -180 -123 -516h2q47 -2 125 -19q96 -20 111 -22q111 -12 176 61q10 12 27.5 13.5t30 -9t13.5 -28t-10 -29.5q-94 -106 -245 -88q-31 2 -119 22q-72 14 -113 17h-6q-16 -197 -31 -289q-16 -102 -59 -229q43 6 98 -2q43 -8 113 -33t100 -31q133 -29 244 -10 q135 23 168 110q16 45 -12 76q-35 35 -74 27q-35 -6 -60 -37q-12 -16 -12 -29q12 -8 49 0q16 2 30.5 -7t18 -25.5t-6 -30.5t-25.5 -19q-104 -18 -137 41q-29 53 18 119q43 57 109 70q82 14 147 -51q68 -68 33 -162q-49 -133 -234 -164q-125 -18 -272 10q-37 8 -111 35 q-66 23 -98 29q-86 16 -123 -17q0 -2 -2 -4t-8 -16.5t-12.5 -20.5t-12.5 -10q-18 -10 -39 -2q-14 8 -20 25q-2 4 -4 12l2 16l2 2v2v2l2 2l4 11l14 32l17 33q6 14 6 17q49 139 65 241q12 82 31 271q-68 -10 -149 -47q-14 -8 -30.5 -2t-24 21t-1.5 31.5z" />
<glyph unicode="&#xa4;" horiz-adv-x="1001" d="M21.5 297q3.5 16 17.5 27q76 47 125 110q-74 72 -93.5 166t3 181t78.5 163l43 53q-33 25 -121 103q-12 10 -14.5 27.5t9 29.5t29 14.5t29.5 -10.5q94 -81 129 -108q63 49 132 71.5t145.5 12t142.5 -63.5l4 -4q25 -16 51 -39q55 68 129 121q14 10 30.5 8t27 -16.5 t8.5 -30.5t-17 -27q-68 -49 -121 -112q88 -96 114 -198.5t-2 -187.5t-97 -153l117 -110q12 -12 12 -30t-11.5 -30t-29 -12t-29.5 10l-123 121q-113 -74 -246 -79t-264 75l-4 2q-57 -72 -141 -127q-14 -8 -30.5 -5t-26 17.5t-6 30.5zM150 743q-18 -80 12.5 -159.5 t111.5 -134.5q121 -74 248 -60q125 14 215 96q59 53 84 121q23 68 0.5 153t-100.5 167q-47 49 -80 71.5t-88 38.5q-15 5 -23 17q-82 16 -165.5 -27t-145.5 -129q-53 -74 -69 -154z" />
<glyph unicode="&#xa5;" horiz-adv-x="1206" d="M14 817.5q6 16.5 21 24.5q119 59 287 80q-123 289 -191 499q-6 16 2 31.5t24.5 21t32 -3t19.5 -24.5q68 -215 199 -516q59 6 190 10q72 2 109 4q100 266 239 490q8 16 24.5 19t32 -5t18.5 -24.5t-5 -30.5q-125 -205 -219 -443q178 16 280 84q14 8 30.5 5t26 -17 t6.5 -30.5t-18 -26.5q-129 -82 -358 -101q-43 -123 -82 -256q139 -2 221 37q14 8 30.5 2t24 -21.5t1 -31.5t-22.5 -23q-102 -49 -277 -45q-57 -223 -102 -495q-4 -16 -17.5 -26.5t-29.5 -7.5t-26.5 16.5t-8.5 29.5q33 190 70 352q-2 2 -2 6q-6 57 -41 131q-117 4 -197 -17 t-141 -87q-12 -14 -28.5 -14t-30 11t-13.5 27.5t10 28.5q72 78 160 105.5t199 29.5q-23 45 -39 80l-66 148q-170 -18 -284 -76q-14 -8 -30.5 -2t-25 20.5t-2.5 31zM442 852l54 -123l57 -117l45 -2q37 131 78 250q-27 -2 -76 -2q-109 -4 -158 -6z" />
<glyph unicode="&#xa6;" horiz-adv-x="501" d="M299 807q16 113 25 303q12 289 14 313q2 16 15.5 27.5t29.5 9.5t27.5 -15.5t9.5 -29.5q-2 -37 -14 -307q-8 -197 -25 -313q-2 -16 -16.5 -26.5t-31 -8.5t-26.5 16.5t-8 30.5zM334 410q0 18 12 29.5t29.5 11.5t29 -12.5t11.5 -28.5q-2 -121 6 -332q10 -264 10 -334 q0 -16 -12 -28.5t-28.5 -12.5t-29 12.5t-12.5 28.5q0 66 -10 332q-8 213 -6 334z" />
<glyph unicode="&#xa7;" horiz-adv-x="643" d="M59.5 184.5q6.5 16.5 21.5 23.5t31.5 1t22.5 -23q23 -47 75 -81.5t107 -38.5q57 -4 93 20q39 29 47 92q14 109 -38 206t-151 159q-2 2 -8 6l-22 12q-14 8 -23 12l-35 21l-12 8q-10 6 -14 12q-35 39 -23 97q8 41 39 90q33 51 80 100l-21 19q-102 88 -123 141q-6 18 -8 63 q-2 35 0 56q4 72 54.5 126t117.5 76q47 12 91.5 11.5t88.5 -27.5t68 -76q14 -29 21 -82q0 -4 4 -71q0 -16 -10.5 -28.5t-28 -13.5t-29.5 9.5t-14 28.5q-4 66 -4 67q-4 37 -13 53q-20 41 -61 54.5t-86 -2.5q-49 -16 -82 -52t-35 -77q-2 -18 0 -48q2 -33 4 -38q12 -35 99 -109 q16 -14 53 -43l67 -57q29 -25 52 -47q102 -96 118 -175q25 -111 -98 -190q-4 -2 -10 -4q92 -137 74 -295q-12 -100 -82 -150q-59 -45 -146 -36q-78 6 -148.5 52t-101.5 118q-8 14 -1.5 30.5zM211 672l12 -6l33 -21q55 -33 57 -33q57 -37 105 -88q4 8 12 15q76 49 64 104 q-10 53 -95 131q-35 33 -86 76q-43 -45 -73 -92q-23 -37 -27 -62q-4 -18 -2 -24z" />
<glyph unicode="&#xa8;" horiz-adv-x="440" d="M23 1325q0 16 12 28.5t28.5 12.5t28.5 -12.5t12 -28.5t-12 -28.5t-28.5 -12.5t-28.5 12.5t-12 28.5zM287 1300.5q0 16.5 12 28.5t28.5 12t29 -12t12.5 -28.5t-12.5 -28.5t-29 -12t-28.5 12t-12 28.5z" />
<glyph unicode="&#xa9;" horiz-adv-x="1087" d="M94 589q-37 206 6 401.5t142 352.5q94 150 227 199q35 13 68 17q16 14 38 8q186 -47 299 -171t156 -294q37 -164 17 -336q-20 -168 -91 -326q-31 -70 -51 -108q-20 -41 -59 -97.5t-81 -88t-103 -52.5q-61 -23 -134 -18q-84 4 -145 47q-61 45 -127 119q-125 141 -162 347z M174 605.5q33 -185.5 143 -310.5q59 -66 107.5 -99.5t107.5 -37.5q68 -4 122.5 17.5t95.5 70.5t69.5 99t63.5 128q63 145 81.5 303t-14.5 305q-51 209 -207 320q-25 -10 -43 10q-90 94 -202 53q-106 -39 -187 -166q-92 -145 -131 -327q-39 -180 -6 -365.5zM360 608 q-29 203 60 434q43 111 94 152q61 51 123 12q45 -29 76 -96q29 -70 39 -154q2 -16 -8.5 -29.5t-28 -15.5t-30.5 8.5t-15 28.5q-8 72 -31 123t-45 66q-12 8 -29 -7q-35 -29 -67 -116q-82 -213 -56 -393q8 -61 52 -89q57 -37 108 0q41 33 94 123q8 14 24.5 18.5t31 -3.5 t18.5 -24.5t-4 -31.5q-61 -106 -115 -147q-96 -72 -202 -4q-74 47 -89 145z" />
<glyph unicode="&#xaa;" horiz-adv-x="903" d="M72 963q-4 137 57 282q66 154 158 201q59 29 114 4q57 -25 101 -98q10 -17 2 -37q2 -8 2 -19q2 -27 0 -71q0 -12 -2 -29q2 -12 5 -34.5t5 -33.5q14 -119 55 -194q49 -92 129 -80q23 2 39.5 24.5t18.5 55.5t-11.5 53.5t-37.5 22.5q-31 4 -37 -33q-4 -16 2 -25q2 -4 12 -4 q16 0 28.5 -12t12.5 -28.5t-12.5 -29t-28.5 -12.5q-55 0 -82 43q-23 35 -14 82q8 43 43 75t88 26q61 -8 91 -56.5t28 -105.5q-4 -55 -37 -102.5t-90 -55.5q-137 -20 -213 123q-18 33 -31 72q-20 -68 -47 -115q-39 -74 -90 -104q-70 -39 -146 -3q-109 49 -112 218zM154 965 q4 -117 63 -146q39 -18 72 0q31 18 59 72q47 88 66 217q4 33 8 86q-2 25 -4 45q-4 37 -6 59q0 14 2 25q0 6 2 12q-23 31 -45 39q-23 10 -47 -2q-66 -33 -119 -158q-55 -129 -51 -249z" />
<glyph unicode="&#xab;" horiz-adv-x="751" d="M21 579.5q8 26.5 53 84.5q33 41 90 104l61 68l64 67q25 27 35 41q12 14 28.5 16.5t29.5 -9t15 -28t-8 -28.5q-12 -16 -37 -43l-65 -70q-39 -43 -62 -69q-55 -59 -88 -100.5t-39 -55.5q2 -4 4 -10q6 -16 21 -41q29 -43 86 -107q88 -96 180 -178q12 -10 13 -27.5t-9 -29.5 t-27.5 -13t-29.5 9q-98 86 -186 184q-63 68 -95 119q-20 31 -30 55q-12 35 -4 61.5zM306.5 551q-3.5 16 6.5 33q4 8 11 18l32 39l99 102q72 72 102 109q45 49 53 66q6 14 21.5 21t31 0t22.5 -22.5t-1 -31.5q-10 -27 -66 -88q-23 -25 -104 -111l-96 -100q-18 -20 -27 -31 l2 -4q8 -14 25 -37q27 -39 76 -98l145 -170q10 -12 10 -28.5t-13 -28t-29.5 -11.5t-28.5 15l-148 172q-51 61 -80 102q-18 25 -28 43q-12 25 -15.5 41z" />
<glyph unicode="&#xac;" horiz-adv-x="835" d="M27 633.5q2 17.5 15.5 28t29.5 8.5q23 -2 108 6l185 24q129 16 176 23q41 4 63 4q16 0 27 -2q18 -2 28 -10l13 -17q2 -2 3 -4t1 -6q2 -4 4 -12q2 -14 8 -41l27 -123q41 -186 47 -203q8 -16 2 -31.5t-22.5 -22.5t-32 -1t-21.5 22q-14 31 -55 220l-25 122l-6 27 q-18 0 -53 -4q-53 -4 -174 -20q-139 -20 -185 -25q-96 -12 -127 -8q-18 2 -28 15t-8 30.5z" />
<glyph unicode="&#xad;" horiz-adv-x="671" d="M28 605.5q-3 17.5 6 30.5t25 17q100 16 250 33q225 23 248 25q16 2 29.5 -8.5t15.5 -28t-8 -30.5t-29 -15q-23 -2 -248 -25q-152 -14 -241 -33q-18 -2 -31.5 7.5t-16.5 27z" />
<glyph unicode="&#xae;" horiz-adv-x="1087" d="M94 589q-37 206 6 401.5t142 352.5q94 150 227 199q35 13 68 17q16 14 38 8q186 -47 299 -171t156 -294q37 -164 17 -336q-20 -168 -91 -326q-31 -70 -51 -108q-20 -41 -59 -97.5t-81 -88t-103 -52.5q-61 -23 -134 -18q-84 4 -145 47q-61 45 -127 119q-125 141 -162 347z M174 605.5q33 -185.5 143 -310.5q59 -66 107.5 -99.5t107.5 -37.5q68 -4 122.5 17.5t95.5 70.5t69.5 99t63.5 128q63 145 81.5 303t-14.5 305q-51 209 -207 320q-25 -10 -43 10q-90 94 -202 53q-106 -39 -187 -166q-92 -145 -131 -327q-39 -180 -6 -365.5zM397 1110 q0 18 11.5 30.5t28 12.5t28.5 -11.5t14 -27.5q53 35 109 47q57 12 98 -8q51 -25 64 -90q10 -59 -35 -127q-25 -39 -84 -100q-55 -59 -70 -78q-2 2 -12 -19q33 -45 115 -100l71 -47q43 -29 70 -51q12 -10 14 -26.5t-9 -30t-27.5 -15.5t-30.5 10q-23 18 -62 45l-74 47 q-68 47 -106 88q6 -90 6 -161q0 -16 -12 -28.5t-28.5 -12.5t-29 12t-12.5 29q0 104 -16 303q-18 223 -21 309zM483 1014l17 -203q16 23 73 82q53 55 74 88q27 41 21 70q-4 23 -17 28q-16 8 -47 0q-72 -14 -117 -61z" />
<glyph unicode="&#xaf;" horiz-adv-x="880" d="M34 1272.5q-3 17.5 6.5 31t27.5 17.5q55 8 210.5 41t270.5 49t221 16q16 0 28.5 -12t12.5 -28.5t-12.5 -28.5t-28.5 -12q-102 0 -211.5 -15.5t-261.5 -47.5t-217 -44q-16 -2 -29.5 7t-16.5 26.5z" />
<glyph unicode="&#xb0;" horiz-adv-x="552" d="M-12 973.5q2 70.5 16 144.5q31 113 98 205q68 94 150 121q25 8 59 6l23 -2q12 -2 18 -2q16 0 27.5 -10.5t13.5 -26.5q68 -55 86 -168q18 -117 -20 -246q-41 -135 -119 -207q-98 -90 -215 -40q-70 27 -104.5 91t-32.5 134.5zM75.5 923q18.5 -75 82.5 -102q66 -27 127 28.5 t94 168.5q35 113 18 211q-14 96 -69 125q-11 6 -15 12q-4 2 -8 2q-18 0 -29 -2q-57 -18 -111 -95t-81 -173q-27 -100 -8.5 -175z" />
<glyph unicode="&#xb1;" horiz-adv-x="915" d="M63 301q0 16 12.5 28.5t28.5 12.5q115 0 345 27h4q-49 123 -88 352q-115 -12 -193 -8q-16 2 -27.5 14t-10.5 28.5t13.5 28t28.5 11.5q70 -4 176 6q-6 43 -16 124t-17 113q-2 16 8.5 30.5t27 16.5t30.5 -8t16 -26q4 -37 17 -117l16 -123q113 12 180 12q16 0 28.5 -12 t12.5 -28.5t-12 -29t-29 -12.5q-61 0 -168 -12q39 -236 91 -350q160 18 266 18q16 0 28.5 -12t12.5 -28.5t-12.5 -29t-28.5 -12.5q-115 0 -344 -26q-248 -29 -355 -29q-16 0 -28.5 12.5t-12.5 28.5z" />
<glyph unicode="&#xb2;" horiz-adv-x="731" d="M117 684q4 12 16 23q6 6 10 9t4 5l5 2q98 121 104 129q8 12 47 63.5t53 71.5l41 64q29 41 46.5 74.5t29.5 66.5q29 74 12 102q-12 18 -53 17q-49 0 -110.5 -27t-96.5 -59q-12 -10 -29.5 -10.5t-28.5 12t-11 30t12 29.5q45 41 121 74t141 33q88 2 125 -56q37 -63 -4 -174 q-14 -37 -33.5 -74.5t-50.5 -80.5l-45 -70q-14 -23 -53 -74l-47 -61l-60 -74h4q35 -2 94 -16q66 -14 89 -17q82 -12 124 43q4 6 11 25q2 10 2 16q-2 4 -4 6q-10 -8 -14.5 -24.5t-18.5 -24.5t-30.5 -4t-25 18.5t-4.5 30.5q14 59 60 82q33 14 65 0q27 -14 48 -51q8 -16 6 -39 q0 -14 -6 -33q-10 -35 -23 -51q-72 -92 -201 -76q-23 4 -96 21q-53 12 -80 12q-6 0 -35 -12q-49 -20 -82 -10q-18 6 -26 22q-10 18 -2 37zM170 702h4q-2 2 -4 0z" />
<glyph unicode="&#xb3;" horiz-adv-x="708" d="M104 713q-2 53 28 96t75 61q51 20 94 -4q47 -27 57 -94q2 -16 -8 -30.5t-26.5 -16.5t-30.5 8t-17 27q-4 29 -16 35q-8 6 -24 0q-20 -10 -36 -32t-14 -46q2 -49 41 -60q45 -14 119 13q76 27 137 80q61 55 72 108q12 49 -32 117.5t-93 75.5q-23 4 -70 -7l-12 -8 q-35 -18 -63 -6q-20 8 -27 29q-6 25 12 43q8 6 23 14q6 2 11 4t7 2l2 2q80 61 115 99q59 63 49 94q-6 23 -26 22q-33 0 -86 -26q-90 -45 -170 -117q-12 -10 -28.5 -9t-28 13t-10.5 28.5t13 28.5q88 80 187 129q72 37 125 35q80 -2 102 -80q25 -78 -68 -174q-16 -18 -36 -37 q80 -16 141 -110q61 -96 45 -178q-18 -80 -95 -148.5t-167 -101.5q-100 -35 -172 -14q-92 29 -99 135z" />
<glyph unicode="&#xb4;" horiz-adv-x="382" d="M59 1260q33 86 75 147t112 137q12 12 29.5 12t29.5 -11t12 -28.5t-10 -29.5q-66 -70 -103.5 -125t-66.5 -131q-6 -16 -21.5 -23.5t-31.5 -1.5t-23.5 21.5t-1.5 32.5z" />
<glyph unicode="&#xb5;" horiz-adv-x="808" d="M109 565q2 111 18 234q10 104 23 215q2 18 15 28.5t30 8.5q25 -4 32 -25q23 -16 15 -43q-18 -78 -33 -195q-12 -117 -19 -227v-59q4 -156 39 -250q37 -98 107 -117q47 -10 102 64q57 80 105 225q43 137 59 270q14 129 -6 178q-6 14 1 30t22.5 23t31 0t23.5 -24 q27 -68 10 -217q-16 -137 -63 -285q-31 -92 -64 -159q2 -3 4 -7q33 -53 71 -84.5t101 -62.5q14 -8 20.5 -23.5t-2 -31t-23.5 -21.5t-32 2q-123 59 -184 150l-8 -10q-88 -121 -189 -95q-82 20 -131 103q2 -125 13 -242q2 -18 -9.5 -30.5t-29 -14.5t-29.5 9.5t-14 27.5 q-25 303 -6 655z" />
<glyph unicode="&#xb6;" horiz-adv-x="858" d="M66.5 1159.5q7.5 69.5 39.5 132.5q45 80 136.5 114t197.5 24q158 -16 260 -103q6 27 11 51q4 18 18 26.5t31.5 5.5t26 -17.5t6.5 -30.5q-27 -111 -41.5 -237t-20.5 -281.5t-7 -257t1 -288.5t2 -249q0 -16 -12.5 -28.5t-28.5 -12.5t-28.5 12.5t-12.5 28.5q0 66 -1 204 t-1 206q-8 0 -16 2q-74 31 -156 84q0 -268 33 -506q2 -18 -8.5 -31.5t-27.5 -15.5t-30.5 8t-15.5 27q-37 270 -33 575q-104 82 -184 180q-47 59 -80 117q-31 59 -48.5 125t-10 135.5zM180 1251q-100 -182 88 -417q53 -66 123 -127q8 287 51 639q-6 2 -10 2 q-88 8 -155.5 -16.5t-96.5 -80.5zM471 643q90 -63 172 -100q2 422 39 682q-45 70 -160 104q-45 -383 -51 -686z" />
<glyph unicode="&#xb7;" horiz-adv-x="233" d="M80 811q0 16 12 28.5t28.5 12.5t29 -12.5t12.5 -28.5t-12.5 -28.5t-29 -12.5t-28.5 12.5t-12 28.5z" />
<glyph unicode="&#xb8;" horiz-adv-x="274" d="M-30 -141.5q3 16.5 18 26.5q121 78 137 221q2 18 15.5 28.5t30.5 8.5t27.5 -15.5t8.5 -29.5q-10 -86 -55 -159q-47 -76 -119 -123q-14 -8 -30.5 -5t-26 17t-6.5 30.5z" />
<glyph unicode="&#xb9;" horiz-adv-x="462" d="M122 1282q-3 16 6.5 30.5t25.5 18.5q31 6 48 18.5t52 45.5l4 4l2 6l6 10q10 14 23 23q27 16 55 0q12 -8 18 -25q2 -6 3 -12q2 -8 2 -25q2 -25 4 -73q2 -53 6 -224q4 -338 16 -391q2 -16 -7 -30.5t-25.5 -17.5t-31 6t-18.5 26q-12 61 -16 405q-4 170 -6 221v15 q-55 -49 -119 -64q-16 -2 -30.5 7.5t-17.5 25.5z" />
<glyph unicode="&#xba;" horiz-adv-x="702" d="M193 1024q12 129 61 244q51 127 119 170q14 8 30.5 5t26.5 -18l4 -8q121 -88 182 -225q31 -66 32 -154t-25 -166q-31 -88 -91.5 -145t-150.5 -57q-121 0 -168 121q-37 90 -20 233zM272 1016q-12 -123 17 -197q27 -68 92 -67q113 0 164 147q23 68 21.5 138.5t-23.5 121.5 q-54 115 -152 187q-33 -39 -61 -109q-45 -104 -58 -221z" />
<glyph unicode="&#xbb;" horiz-adv-x="821" d="M57.5 936.5q-0.5 17.5 12 29t30 11.5t29.5 -12l82 -93q61 -68 103 -108.5t89 -79.5q16 -12 39 -35q16 -14 25 -24q6 -6 10 -13q10 -14 10 -30q-2 -23 -20 -50q-12 -20 -37 -47q-37 -41 -104 -108l-113 -107l-72 -69q-12 -14 -28.5 -14.5t-29.5 11t-13 28t10 28.5 q16 18 78 76l110 106q66 63 101 105q20 23 30 37l-12 12l-37 33q-47 39 -92 83t-108.5 113.5t-81.5 87.5q-10 12 -10.5 29.5zM328 940q-25 33 7.5 57.5t57.5 -8.5q154 -203 271 -297q2 -2 16 -12q16 -10 27 -18q43 -37 43 -76q0 -10 -5 -19l-4 -8q-4 -6 -10 -16 q-10 -16 -31 -45l-96 -123l-162 -209q-25 -33 -57.5 -8.5t-7.5 57.5l164 209l94 123l29 41v2q-4 4 -11 8q-6 6 -18 14q-16 12 -21 15q-129 102 -286 313z" />
<glyph unicode="&#xbc;" horiz-adv-x="1648" d="M64.5 1206.5q-3.5 16.5 6 30.5t25.5 18q96 16 133 82q6 8 13 25q8 16 14 24q14 20 39 25q23 2 45 -14q20 -16 33 -60q10 -33 16 -82q10 -76 21 -225q6 -104 10 -231q4 -137 6 -156q0 -16 -10 -28.5t-27.5 -13.5t-30 9.5t-14.5 28.5t-6 156q-4 129 -10 231q-8 145 -19 217 q-4 29 -10 51q-55 -96 -186 -120q-16 -2 -30.5 7t-18 25.5zM180 -26.5q0 16.5 10 28.5q55 61 115 142t98 143l103 162l96 151q354 543 635 834q10 12 27.5 12t30 -11.5t12.5 -28.5t-13 -30q-272 -285 -622 -821q-33 -47 -97 -149l-102 -164q-41 -61 -102.5 -145.5 t-118.5 -147.5q-12 -14 -28.5 -14.5t-30 11t-13.5 28zM940 301v6q0 4 2 8q2 6 4 15l10 37l21 57q4 6 19.5 49t18.5 52.5t16 46t17.5 49t13.5 44t12 50t8 46t6.5 52.5t1.5 49q0 16 12 28.5t28.5 12.5t28.5 -12t12 -29q0 -33 -3 -66.5t-6 -57t-13 -62.5l-14 -53 q-4 -16 -19.5 -61.5t-18.5 -52.5t-22.5 -59.5t-19.5 -54.5q-6 -14 -19 -53q74 4 76 4q39 2 113 -6q82 -8 88 -10q6 43 8 76q18 199 2 425q-2 16 9 28.5t28.5 15t30 -9t14.5 -29.5q16 -231 -2 -439q-2 -31 -8 -69q78 2 118 34q12 10 30 8.5t28 -15t8 -31t-16 -27.5 q-66 -51 -179 -51l-4 -27q-14 -104 -14 -170q0 -16 -12.5 -28.5t-28.5 -12.5t-28.5 12.5t-12.5 28.5q0 72 14 182l2 19q-10 0 -86 8q-66 6 -98 6q-8 0 -21.5 -1t-30.5 -2t-26 -1q-27 -2 -41 -2h-14q-6 2 -10 2q-18 6 -27 19q-6 10 -6 22z" />
<glyph unicode="&#xbd;" horiz-adv-x="1439" d="M32 1171.5q-3 16.5 7 29.5t26.5 16.5t28.5 4.5t17.5 2t9.5 3q8 2 35 22q2 2 4 5t8 11.5t12 18.5q14 18 27 29q31 18 61 0q6 -4 11.5 -10.5t7.5 -10.5l2 -4q0 -4 2 -10q2 -8 2 -23q2 -25 4 -67q2 -76 4 -211v-442q0 -16 -12.5 -28.5t-28.5 -12.5t-28.5 12t-12.5 29v442 q-2 133 -4 207v8q-6 -4 -10 -8q-39 -31 -62 -37q-8 -2 -18 -3t-23.5 -3t-23.5 -4q-16 -2 -29.5 8t-16.5 26.5zM233 59.5q-3 16.5 5 30.5q59 94 141 270q111 242 133 287q211 414 459 719q12 12 28.5 14t29.5 -9t15.5 -27.5t-8.5 -30.5q-244 -297 -450 -703 q-20 -37 -131 -282q-82 -180 -148 -283q-10 -14 -26.5 -17t-30.5 6t-17 25.5zM731 43q-12 27 4 53q16 25 60 45l28 13l6 4l82 90q20 25 68 67q53 51 72 72q82 82 98 139q10 41 4 66.5t-33 50.5q-49 43 -131 4q-39 -18 -147 -102q-12 -10 -29.5 -8t-28 15t-8 30.5t16.5 27.5 q115 88 161 111q131 61 220 -16q47 -41 59 -93q12 -47 -6 -106q-20 -78 -117 -176q-20 -23 -76 -74q-43 -41 -61 -61l-25 -27q8 -2 15 -4q25 -6 50 -18.5t60 -35t39 -24.5q68 -41 119 -25q39 12 51 39t4 50q-6 14 -18 14q-27 2 -64 -35q-12 -12 -28.5 -12t-28.5 12t-12 28.5 t12 28.5q63 63 125 60q63 -4 90 -66q23 -55 -5 -113.5t-102 -82.5q-84 -29 -184 30q-16 8 -45 27.5t-47 29t-37 15.5q-29 6 -74 -4l-32 -35l-17 -20l-6 -4l-2 -5q-2 0 -4 -2t-4 -2l-8 -4q-12 -4 -27 0q-29 10 -37 33z" />
<glyph unicode="&#xbe;" horiz-adv-x="1611" d="M27 782q0 72 61 107q66 39 150 -2q14 -8 20 -24.5t-2 -31t-24.5 -20.5t-30.5 2q-43 23 -70 6q-23 -12 -22.5 -37.5t26.5 -40.5q43 -23 131 0q94 25 135 105q37 70 -10 166q-45 94 -121 94q-8 -4 -10 -6q-29 -14 -49 -15h-18q-8 2 -17 7q-16 8 -22 26q-4 23 10 37 q6 8 16 12q2 0 6 2t15 5q47 16 69 30q51 33 74 66q29 37 18.5 71.5t-33 44t-57.5 0.5q-82 -20 -137 -81q-12 -12 -28.5 -13.5t-28.5 10t-13 28t9 28.5q31 35 80 65.5t98 40.5q63 16 110 -4q57 -25 78 -94q23 -74 -28 -143q-23 -29 -56 -58q70 -37 109 -118q29 -57 32 -120 t-22 -118q-57 -113 -188 -145q-117 -31 -188.5 6t-71.5 112zM252 29q47 63 115 178q80 139 112 188l402 588q41 59 182 240q113 147 172 241q10 14 26.5 17.5t31 -6t17.5 -25.5t-5 -31q-55 -88 -179 -245q-139 -180 -180 -240l-397 -584q-33 -47 -113 -184 q-74 -127 -119 -186q-25 -33 -57.5 -8.5t-7.5 57.5zM932 365q4 10 14 24q6 6 10.5 11.5t6.5 7.5l2 2l51 100q96 219 117 367q2 16 16 26t30.5 8t26.5 -16.5t8 -30.5q-23 -158 -124 -387q-6 -14 -13 -31q25 2 53 -2q41 -8 105 -32q70 -29 88 -35h2q4 84 5 239.5t3 200.5 q0 18 12.5 29.5t30 11.5t28.5 -12t11 -29q0 -41 -2 -201.5t-6 -248.5q35 6 70 28q12 10 29.5 7t26.5 -16t6 -30.5t-17 -25.5q-57 -41 -121 -45q-8 -133 -29 -242q-4 -16 -18.5 -25.5t-30.5 -6.5t-25.5 17.5t-7.5 30.5q20 104 31 234q-10 2 -23 6q-20 6 -94 35q-55 23 -90 28 q-45 10 -80 -14q-10 -6 -18 -16q-2 -4 -6 -6l-2 -4q0 -2 -2 -3q-2 -4 -5 -4q-10 -10 -26 -10q-23 0 -37 17q-14 18 -6 43z" />
<glyph unicode="&#xbf;" horiz-adv-x="724" d="M-39 195q-8 106 94 206q49 47 203 154q137 92 193 152q78 86 71 178q-2 35 -28.5 53t-69.5 14t-69.5 -29.5t-26.5 -60.5q0 -27 8 -37q8 2 24.5 17.5t30.5 46.5q6 16 21.5 22.5t32 -1t22.5 -23t-2 -31.5q-18 -45 -50 -75.5t-67 -35.5q-47 -8 -78 29q-25 33 -24 88 q-2 74 50 119t120 53q70 6 127 -29.5t61 -115.5q8 -125 -92 -236q-57 -63 -206.5 -165.5t-192.5 -145.5q-76 -72 -70 -139q4 -45 72 -86q72 -41 159.5 -35t170.5 44t149 97q12 10 28.5 10t28 -13t11 -29.5t-14.5 -28.5q-72 -66 -166 -109t-203.5 -53t-203.5 47 q-104 61 -113 148zM309 1288.5q0 16.5 12.5 28.5t29 12t28.5 -12t12 -28.5t-12 -29t-28.5 -12.5t-29 12.5t-12.5 29z" />
<glyph unicode="&#xc0;" d="M37 94q-14 70 2 149t61 126q57 59 123 45q57 -10 88 -68q31 -55 17 -113q-16 -66 -86 -92q-16 -6 -31.5 1.5t-22 23.5t1 31.5t23.5 21.5q29 10 35 35t-8 51q-12 25 -33 29t-45 -23q-31 -31 -43.5 -89t-1.5 -111q12 -49 41 -68q31 -20 84 0q66 25 141 170q59 117 119 303 q-154 18 -223 119q-10 14 -7.5 31.5t16 26.5t31 6t25.5 -15q51 -74 174 -88h8q74 250 142 594q2 4 6 24l8 58q4 37 6 61q8 59 14 92q4 20 7 33q0 6 2 10q0 4 2 9q4 10 12 16q23 18 47 6q14 -6 21 -20q4 -8 8 -25q4 -18 6 -51q4 -39 6 -76q8 -182 16 -233q10 -57 31 -206 t35 -226q113 45 198 104t117 117q49 90 25 118q-23 25 -82 11q-66 -14 -86 -54q-18 -37 37 -79q14 -12 16 -28.5t-9 -30t-27.5 -15.5t-28.5 8q-109 88 -60 182q37 74 140 97q109 27 161 -37q63 -72 -16 -213q-41 -74 -141.5 -143.5t-225.5 -118.5q45 -197 129 -330 q78 -123 168 -150q74 -23 139.5 20.5t91 121t-4.5 149.5q-20 43 -78 60q-59 16 -92 -25q-31 -45 -29 -113q4 -59 27 -71q18 -10 67 51q10 14 27.5 16t31 -8t15.5 -27.5t-8 -29.5q-90 -115 -170 -76q-66 33 -72 141q-4 98 47 166q66 86 180 53q92 -27 127 -100 q45 -106 9.5 -211.5t-123.5 -165.5q-98 -63 -209 -31q-119 37 -213 185q-88 141 -137 348l-27 -6q-119 -33 -223 -35q-61 -205 -131 -338q-90 -172 -185 -209q-92 -35 -157 8q-57 39 -76 121zM477 1676.5q6 15.5 21.5 23.5t31.5 2l172 -64l185 -65q16 -6 24.5 -20.5t2 -31 t-20.5 -24.5t-31 -2l-186 66l-174 63q-14 6 -22.5 21.5t-2.5 31zM612 594q82 6 174 31q16 4 31 10q-16 86 -38.5 241.5t-30.5 204.5q-4 25 -7 54q-61 -305 -129 -541z" />
<glyph unicode="&#xc1;" d="M37 94q-14 70 2 149t61 126q57 59 123 45q57 -10 88 -68q31 -55 17 -113q-16 -66 -86 -92q-16 -6 -31.5 1.5t-22 23.5t1 31.5t23.5 21.5q29 10 35 35t-8 51q-12 25 -33 29t-45 -23q-31 -31 -43.5 -89t-1.5 -111q12 -49 41 -68q31 -20 84 0q66 25 141 170q59 117 119 303 q-154 18 -223 119q-10 14 -7.5 31.5t16 26.5t31 6t25.5 -15q51 -74 174 -88h8q74 250 142 594q2 4 6 24l8 58q4 37 6 61q8 59 14 92q4 20 7 33q0 6 2 10q0 4 2 9q4 10 12 16q23 18 47 6q14 -6 21 -20q4 -8 8 -25q4 -18 6 -51q4 -39 6 -76q8 -182 16 -233q10 -57 31 -206 t35 -226q113 45 198 104t117 117q49 90 25 118q-23 25 -82 11q-66 -14 -86 -54q-18 -37 37 -79q14 -12 16 -28.5t-9 -30t-27.5 -15.5t-28.5 8q-109 88 -60 182q37 74 140 97q109 27 161 -37q63 -72 -16 -213q-41 -74 -141.5 -143.5t-225.5 -118.5q45 -197 129 -330 q78 -123 168 -150q74 -23 139.5 20.5t91 121t-4.5 149.5q-20 43 -78 60q-59 16 -92 -25q-31 -45 -29 -113q4 -59 27 -71q18 -10 67 51q10 14 27.5 16t31 -8t15.5 -27.5t-8 -29.5q-90 -115 -170 -76q-66 33 -72 141q-4 98 47 166q66 86 180 53q92 -27 127 -100 q45 -106 9.5 -211.5t-123.5 -165.5q-98 -63 -209 -31q-119 37 -213 185q-88 141 -137 348l-27 -6q-119 -33 -223 -35q-61 -205 -131 -338q-90 -172 -185 -209q-92 -35 -157 8q-57 39 -76 121zM506 1548.5q-6 16.5 1 32t23 21.5q57 20 148 67q109 57 151 76q16 8 32 2 t23 -22.5t1 -32t-23 -21.5q-39 -18 -147 -74q-96 -51 -156 -73q-16 -6 -31.5 1t-21.5 23.5zM612 594q82 6 174 31q16 4 31 10q-16 86 -38.5 241.5t-30.5 204.5q-4 25 -7 54q-61 -305 -129 -541z" />
<glyph unicode="&#xc2;" d="M37 94q-14 70 2 149t61 126q57 59 123 45q57 -10 88 -68q31 -55 17 -113q-16 -66 -86 -92q-16 -6 -31.5 1.5t-22 23.5t1 31.5t23.5 21.5q29 10 35 35t-8 51q-12 25 -33 29t-45 -23q-31 -31 -43.5 -89t-1.5 -111q12 -49 41 -68q31 -20 84 0q66 25 141 170q59 117 119 303 q-154 18 -223 119q-10 14 -7.5 31.5t16 26.5t31 6t25.5 -15q51 -74 174 -88h8q74 250 142 594q2 4 6 24l8 58q4 37 6 61q8 59 14 92q4 20 7 33q0 6 2 10q0 4 2 9q4 10 12 16q23 18 47 6q14 -6 21 -20q4 -8 8 -25q4 -18 6 -51q4 -39 6 -76q8 -182 16 -233q10 -57 31 -206 t35 -226q113 45 198 104t117 117q49 90 25 118q-23 25 -82 11q-66 -14 -86 -54q-18 -37 37 -79q14 -12 16 -28.5t-9 -30t-27.5 -15.5t-28.5 8q-109 88 -60 182q37 74 140 97q109 27 161 -37q63 -72 -16 -213q-41 -74 -141.5 -143.5t-225.5 -118.5q45 -197 129 -330 q78 -123 168 -150q74 -23 139.5 20.5t91 121t-4.5 149.5q-20 43 -78 60q-59 16 -92 -25q-31 -45 -29 -113q4 -59 27 -71q18 -10 67 51q10 14 27.5 16t31 -8t15.5 -27.5t-8 -29.5q-90 -115 -170 -76q-66 33 -72 141q-4 98 47 166q66 86 180 53q92 -27 127 -100 q45 -106 9.5 -211.5t-123.5 -165.5q-98 -63 -209 -31q-119 37 -213 185q-88 141 -137 348l-27 -6q-119 -33 -223 -35q-61 -205 -131 -338q-90 -172 -185 -209q-92 -35 -157 8q-57 39 -76 121zM434 1489.5q0 16.5 12 28.5l127 131q53 55 78 77q20 18 31 27q8 6 14 10 q16 10 31 9q16 -2 39 -15q14 -8 35 -24q35 -25 82 -68q88 -76 135 -125q10 -12 10 -29.5t-12 -29t-29.5 -11.5t-30.5 13q-43 47 -127 121q-45 41 -77 63q-14 10 -25 16q-6 -4 -18 -16l-78 -76l-127 -131q-12 -12 -28.5 -12t-29 12.5t-12.5 29zM612 594q82 6 174 31 q16 4 31 10q-16 86 -38.5 241.5t-30.5 204.5q-4 25 -7 54q-61 -305 -129 -541z" />
<glyph unicode="&#xc3;" d="M37 94q-14 70 2 149t61 126q57 59 123 45q57 -10 88 -68q31 -55 17 -113q-16 -66 -86 -92q-16 -6 -31.5 1.5t-22 23.5t1 31.5t23.5 21.5q29 10 35 35t-8 51q-12 25 -33 29t-45 -23q-31 -31 -43.5 -89t-1.5 -111q12 -49 41 -68q31 -20 84 0q66 25 141 170q59 117 119 303 q-154 18 -223 119q-10 14 -7.5 31.5t16 26.5t31 6t25.5 -15q51 -74 174 -88h8q74 250 142 594q2 4 6 24l8 58q4 37 6 61q8 59 14 92q4 20 7 33q0 6 2 10q0 4 2 9q4 10 12 16q23 18 47 6q14 -6 21 -20q4 -8 8 -25q4 -18 6 -51q4 -39 6 -76q8 -182 16 -233q10 -57 31 -206 t35 -226q113 45 198 104t117 117q49 90 25 118q-23 25 -82 11q-66 -14 -86 -54q-18 -37 37 -79q14 -12 16 -28.5t-9 -30t-27.5 -15.5t-28.5 8q-109 88 -60 182q37 74 140 97q109 27 161 -37q63 -72 -16 -213q-41 -74 -141.5 -143.5t-225.5 -118.5q45 -197 129 -330 q78 -123 168 -150q74 -23 139.5 20.5t91 121t-4.5 149.5q-20 43 -78 60q-59 16 -92 -25q-31 -45 -29 -113q4 -59 27 -71q18 -10 67 51q10 14 27.5 16t31 -8t15.5 -27.5t-8 -29.5q-90 -115 -170 -76q-66 33 -72 141q-4 98 47 166q66 86 180 53q92 -27 127 -100 q45 -106 9.5 -211.5t-123.5 -165.5q-98 -63 -209 -31q-119 37 -213 185q-88 141 -137 348l-27 -6q-119 -33 -223 -35q-61 -205 -131 -338q-90 -172 -185 -209q-92 -35 -157 8q-57 39 -76 121zM466 1497.5q-3 16.5 5 30.5q84 127 168 151q63 16 149 -24q96 -47 119 -53 q63 -12 129 30q14 8 30.5 5t26 -17t6.5 -30.5t-18 -26.5q-94 -61 -190 -41q-20 4 -41 12t-34 14t-34.5 17.5t-27.5 15.5q-59 29 -95 18q-53 -14 -118 -116q-10 -14 -26.5 -17.5t-31 6t-17.5 26zM612 594q82 6 174 31q16 4 31 10q-16 86 -38.5 241.5t-30.5 204.5q-4 25 -7 54 q-61 -305 -129 -541z" />
<glyph unicode="&#xc4;" d="M37 94q-14 70 2 149t61 126q57 59 123 45q57 -10 88 -68q31 -55 17 -113q-16 -66 -86 -92q-16 -6 -31.5 1.5t-22 23.5t1 31.5t23.5 21.5q29 10 35 35t-8 51q-12 25 -33 29t-45 -23q-31 -31 -43.5 -89t-1.5 -111q12 -49 41 -68q31 -20 84 0q66 25 141 170q59 117 119 303 q-154 18 -223 119q-10 14 -7.5 31.5t16 26.5t31 6t25.5 -15q51 -74 174 -88h8q74 250 142 594q2 4 6 24l8 58q4 37 6 61q8 59 14 92q4 20 7 33q0 6 2 10q0 4 2 9q4 10 12 16q23 18 47 6q14 -6 21 -20q4 -8 8 -25q4 -18 6 -51q4 -39 6 -76q8 -182 16 -233q10 -57 31 -206 t35 -226q113 45 198 104t117 117q49 90 25 118q-23 25 -82 11q-66 -14 -86 -54q-18 -37 37 -79q14 -12 16 -28.5t-9 -30t-27.5 -15.5t-28.5 8q-109 88 -60 182q37 74 140 97q109 27 161 -37q63 -72 -16 -213q-41 -74 -141.5 -143.5t-225.5 -118.5q45 -197 129 -330 q78 -123 168 -150q74 -23 139.5 20.5t91 121t-4.5 149.5q-20 43 -78 60q-59 16 -92 -25q-31 -45 -29 -113q4 -59 27 -71q18 -10 67 51q10 14 27.5 16t31 -8t15.5 -27.5t-8 -29.5q-90 -115 -170 -76q-66 33 -72 141q-4 98 47 166q66 86 180 53q92 -27 127 -100 q45 -106 9.5 -211.5t-123.5 -165.5q-98 -63 -209 -31q-119 37 -213 185q-88 141 -137 348l-27 -6q-119 -33 -223 -35q-61 -205 -131 -338q-90 -172 -185 -209q-92 -35 -157 8q-57 39 -76 121zM596 1630.5q0 16.5 12.5 28.5t28.5 12t28.5 -12t12.5 -28.5t-12.5 -29 t-28.5 -12.5t-28.5 12.5t-12.5 29zM612 594q82 6 174 31q16 4 31 10q-16 86 -38.5 241.5t-30.5 204.5q-4 25 -7 54q-61 -305 -129 -541zM807 1626q0 16 12 28.5t28.5 12.5t29 -12.5t12.5 -28.5t-12.5 -28.5t-29 -12.5t-28.5 12.5t-12 28.5z" />
<glyph unicode="&#xc5;" d="M37 94q-14 70 2 149t61 126q57 59 123 45q57 -10 88 -68q31 -55 17 -113q-16 -66 -86 -92q-16 -6 -31.5 1.5t-22 23.5t1 31.5t23.5 21.5q29 10 35 35t-8 51q-12 25 -33 29t-45 -23q-31 -31 -43.5 -89t-1.5 -111q12 -49 41 -68q31 -20 84 0q66 25 141 170q59 117 119 303 q-154 18 -223 119q-10 14 -7.5 31.5t16 26.5t31 6t25.5 -15q51 -74 174 -88h8q74 250 142 594q2 4 6 24l8 58q4 37 6 61q8 59 14 92q4 20 7 33q0 6 2 10q0 4 2 9q4 10 12 16q23 18 47 6q14 -6 21 -20q4 -8 8 -25q4 -18 6 -51q4 -39 6 -76q8 -182 16 -233q10 -57 31 -206 t35 -226q113 45 198 104t117 117q49 90 25 118q-23 25 -82 11q-66 -14 -86 -54q-18 -37 37 -79q14 -12 16 -28.5t-9 -30t-27.5 -15.5t-28.5 8q-109 88 -60 182q37 74 140 97q109 27 161 -37q63 -72 -16 -213q-41 -74 -141.5 -143.5t-225.5 -118.5q45 -197 129 -330 q78 -123 168 -150q74 -23 139.5 20.5t91 121t-4.5 149.5q-20 43 -78 60q-59 16 -92 -25q-31 -45 -29 -113q4 -59 27 -71q18 -10 67 51q10 14 27.5 16t31 -8t15.5 -27.5t-8 -29.5q-90 -115 -170 -76q-66 33 -72 141q-4 98 47 166q66 86 180 53q92 -27 127 -100 q45 -106 9.5 -211.5t-123.5 -165.5q-98 -63 -209 -31q-119 37 -213 185q-88 141 -137 348l-27 -6q-119 -33 -223 -35q-61 -205 -131 -338q-90 -172 -185 -209q-92 -35 -157 8q-57 39 -76 121zM586 1653q28 80 112 127q0 16 11.5 28.5t27.5 12.5q90 4 127 -41q37 -43 10 -109 q-18 -49 -64 -91t-97 -54q-78 -16 -115 24q-35 39 -12 103zM612 594q82 6 174 31q16 4 31 10q-16 86 -38.5 241.5t-30.5 204.5q-4 25 -7 54q-61 -305 -129 -541zM659 1606q10 -4 37 2q29 6 59.5 33.5t43.5 58.5q8 20 2 29q-2 2 -8 4q-9 -9 -19 -11q-39 -10 -69.5 -38.5 t-42.5 -59.5q-4 -12 -3 -18z" />
<glyph unicode="&#xc6;" d="M37 94q-14 70 2 149t61 126q57 59 123 45q57 -10 88 -68q31 -55 17 -113q-16 -66 -86 -92q-16 -6 -31.5 1.5t-22 23.5t1 31.5t23.5 21.5q29 10 35 35t-8 51q-12 25 -33 29t-45 -23q-31 -31 -43.5 -89t-1.5 -111q12 -49 41 -68q31 -20 84 0q66 25 141 170q59 117 119 303 q-154 18 -223 119q-10 14 -7.5 31.5t16 26.5t31 6t25.5 -15q51 -74 174 -88h8q74 250 142 594q2 4 6 24l8 58q4 37 6 61q8 59 14 92l3 19v16q2 10 8 17q4 10 12 16q23 18 47 6l12 -8q35 2 97 20q20 8 80.5 29t93.5 29q111 33 176 14q96 -25 123 -139q2 -16 -6.5 -30.5 t-25.5 -17.5t-31.5 5t-18.5 26q-14 66 -62 76q-43 12 -133 -12q-33 -10 -92 -31q-57 -20 -80 -26q-61 -18 -98 -23v-8q4 -39 6 -76q8 -182 16 -233q10 -57 31 -206t35 -226q113 45 198 104t117 117q49 90 25 118q-23 25 -82 11q-66 -14 -86 -54q-18 -37 37 -79 q14 -12 16 -28.5t-9 -30t-27.5 -15.5t-28.5 8q-109 88 -60 182q37 74 140 97q109 27 161 -37q63 -72 -16 -213q-41 -74 -141.5 -143.5t-225.5 -118.5q45 -197 129 -330q78 -123 168 -150q74 -23 139.5 20.5t91 121t-4.5 149.5q-20 43 -78 60q-59 16 -92 -25 q-31 -45 -29 -113q4 -59 27 -71q18 -10 67 51q10 14 27.5 16t31 -8t15.5 -27.5t-8 -29.5q-90 -115 -170 -76q-66 33 -72 141q-4 98 47 166q66 86 180 53q92 -27 127 -100q45 -106 9.5 -211.5t-123.5 -165.5q-98 -63 -209 -31q-119 37 -213 185q-88 141 -137 348l-27 -6 q-119 -33 -223 -35q-61 -205 -131 -338q-90 -172 -185 -209q-92 -35 -157 8q-57 39 -76 121zM612 594q82 6 174 31q16 4 31 10q-16 86 -38.5 241.5t-30.5 204.5q-4 25 -7 54q-61 -305 -129 -541z" />
<glyph unicode="&#xc7;" horiz-adv-x="1292" d="M104 446q-45 203 15 433q29 111 93 227.5t153 202.5q66 66 136 103.5t158.5 46.5t178.5 -32q156 -66 211 -199.5t-11.5 -287.5t-181.5 -180q-96 -25 -164 37q-57 53 -69.5 139t24.5 147q47 76 141 70q41 -4 70 -29.5t37 -66.5q2 -14 2 -27.5t-1 -24t-5 -22.5l-8 -16 q-2 -6 -8.5 -17.5t-8.5 -15.5q-8 -14 -24.5 -20.5t-30.5 2t-20 25t2 30.5q4 6 8 16l8 14q2 4 4 9.5t2 9.5v8q0 6 -2 12q-4 29 -33 31q-43 4 -63 -31q-23 -37 -15 -92q10 -57 45 -90t89 -20q76 18 127 135q51 121 9 224t-167 157q-197 82 -383 -103q-80 -80 -139 -186 t-86 -207q-53 -215 -14.5 -395t153.5 -291q74 -74 170 -105.5t223 -10t262 105.5q147 92 195 182q8 16 24.5 21.5t31.5 -3t20.5 -24.5t-2.5 -31q-59 -111 -228 -215q-270 -166 -508 -115q-12 -72 -62 -140t-112 -111q-76 -51 -133 -45q-41 6 -63 36q-20 29 -21 76 q0 16 12.5 28.5t28.5 12.5t28.5 -12t12.5 -29q0 -20 6 -29q0 -2 6 -2q27 -4 76 31q53 37 94 95.5t49 113.5q-94 37 -167 111q-131 131 -175 333z" />
<glyph unicode="&#xc8;" horiz-adv-x="1200" d="M81 409.5q-18 106.5 9 204.5q25 104 93.5 184.5t170.5 110.5q8 2 21 4q-45 39 -77 85t-51.5 100.5t-9 116t51.5 118.5q49 68 124.5 100.5t161.5 32.5q84 -2 162 -33.5t133 -89.5l19 -22q8 -12 14 -22.5t12.5 -26t8.5 -23.5l6 -24q6 -16 7 -21.5t4 -25t5 -21.5 q2 -16 -7 -30.5t-25.5 -17.5t-31 6.5t-18.5 25.5q0 4 -2 12q-6 37 -11 55.5t-15.5 40t-26.5 37.5q-88 96 -234 98q-147 2 -221 -100q-41 -57 -35.5 -118.5t42 -116t98.5 -99.5q10 -8 69 -35q51 -4 84 -10q25 -6 39 -12q31 -16 35 -45q2 -23 -12 -37q-12 -12 -29 -16 q-16 -2 -39 4q-27 6 -74 24l-22 11q-43 2 -86 0q-39 0 -45 -3q-80 -25 -134.5 -87t-76.5 -150q-20 -84 -6 -171t59 -151q96 -133 242.5 -195.5t296 -29.5t246.5 166q66 92 57 176q-6 70 -54 124t-114 73q-63 20 -117.5 -4.5t-83.5 -98.5q-12 -29 -13 -63.5t11 -54.5 q27 -49 74 -48q49 4 94 48q39 39 35 63q-2 16 -57 16q-16 0 -28.5 12.5t-12.5 29t12 28.5t29 12q127 0 139 -86q8 -68 -62 -133q-66 -63 -143 -69q-100 -8 -154 86q-20 49 -19 98t17 90q43 106 127 143t177 11q86 -27 150.5 -99.5t74.5 -169.5q12 -115 -74 -233 q-88 -121 -215 -172t-254 -34t-246.5 87t-199.5 178q-57 80 -75 186.5zM261 1697.5q3 16.5 17.5 26t30.5 7.5q147 -33 381 -154q16 -8 21.5 -24.5t-3 -32t-24.5 -20.5t-31 3q-223 117 -360 146q-16 4 -25.5 18t-6.5 30.5z" />
<glyph unicode="&#xc9;" horiz-adv-x="1200" d="M81 409.5q-18 106.5 9 204.5q25 104 93.5 184.5t170.5 110.5q8 2 21 4q-45 39 -77 85t-51.5 100.5t-9 116t51.5 118.5q49 68 124.5 100.5t161.5 32.5q84 -2 162 -33.5t133 -89.5l19 -22q8 -12 14 -22.5t12.5 -26t8.5 -23.5l6 -24q6 -16 7 -21.5t4 -25t5 -21.5 q2 -16 -7 -30.5t-25.5 -17.5t-31 6.5t-18.5 25.5q0 4 -2 12q-6 37 -11 55.5t-15.5 40t-26.5 37.5q-88 96 -234 98q-147 2 -221 -100q-41 -57 -35.5 -118.5t42 -116t98.5 -99.5q10 -8 69 -35q51 -4 84 -10q25 -6 39 -12q31 -16 35 -45q2 -23 -12 -37q-12 -12 -29 -16 q-16 -2 -39 4q-27 6 -74 24l-22 11q-43 2 -86 0q-39 0 -45 -3q-80 -25 -134.5 -87t-76.5 -150q-20 -84 -6 -171t59 -151q96 -133 242.5 -195.5t296 -29.5t246.5 166q66 92 57 176q-6 70 -54 124t-114 73q-63 20 -117.5 -4.5t-83.5 -98.5q-12 -29 -13 -63.5t11 -54.5 q27 -49 74 -48q49 4 94 48q39 39 35 63q-2 16 -57 16q-16 0 -28.5 12.5t-12.5 29t12 28.5t29 12q127 0 139 -86q8 -68 -62 -133q-66 -63 -143 -69q-100 -8 -154 86q-20 49 -19 98t17 90q43 106 127 143t177 11q86 -27 150.5 -99.5t74.5 -169.5q12 -115 -74 -233 q-88 -121 -215 -172t-254 -34t-246.5 87t-199.5 178q-57 80 -75 186.5zM299 1556.5q-4 16.5 4.5 31t24.5 18.5q154 43 428 131q16 6 31.5 -2.5t20.5 -24.5t-3 -31.5t-25 -19.5q-274 -88 -432 -131q-16 -4 -30.5 4t-18.5 24.5z" />
<glyph unicode="&#xca;" horiz-adv-x="1200" d="M81 409.5q-18 106.5 9 204.5q25 104 93.5 184.5t170.5 110.5q8 2 21 4q-45 39 -77 85t-51.5 100.5t-9 116t51.5 118.5q49 68 124.5 100.5t161.5 32.5q84 -2 162 -33.5t133 -89.5l19 -22q8 -12 14 -22.5t12.5 -26t8.5 -23.5l6 -24q6 -16 7 -21.5t4 -25t5 -21.5 q2 -16 -7 -30.5t-25.5 -17.5t-31 6.5t-18.5 25.5q0 4 -2 12q-6 37 -11 55.5t-15.5 40t-26.5 37.5q-88 96 -234 98q-147 2 -221 -100q-41 -57 -35.5 -118.5t42 -116t98.5 -99.5q10 -8 69 -35q51 -4 84 -10q25 -6 39 -12q31 -16 35 -45q2 -23 -12 -37q-12 -12 -29 -16 q-16 -2 -39 4q-27 6 -74 24l-22 11q-43 2 -86 0q-39 0 -45 -3q-80 -25 -134.5 -87t-76.5 -150q-20 -84 -6 -171t59 -151q96 -133 242.5 -195.5t296 -29.5t246.5 166q66 92 57 176q-6 70 -54 124t-114 73q-63 20 -117.5 -4.5t-83.5 -98.5q-12 -29 -13 -63.5t11 -54.5 q27 -49 74 -48q49 4 94 48q39 39 35 63q-2 16 -57 16q-16 0 -28.5 12.5t-12.5 29t12 28.5t29 12q127 0 139 -86q8 -68 -62 -133q-66 -63 -143 -69q-100 -8 -154 86q-20 49 -19 98t17 90q43 106 127 143t177 11q86 -27 150.5 -99.5t74.5 -169.5q12 -115 -74 -233 q-88 -121 -215 -172t-254 -34t-246.5 87t-199.5 178q-57 80 -75 186.5zM266 1513.5q0 16.5 10 30.5l64 70q41 45 57 61q55 61 101 70q55 10 118 -39q45 -33 140 -133q10 -12 10 -29.5t-12.5 -29t-29.5 -11.5t-30 13q-88 96 -127 126q-35 27 -53 23t-59 -45l-54 -59l-63 -74 q-12 -12 -28.5 -12t-30 11t-13.5 27.5z" />
<glyph unicode="&#xcb;" horiz-adv-x="1200" d="M81 409.5q-18 106.5 9 204.5q25 104 93.5 184.5t170.5 110.5q8 2 21 4q-45 39 -77 85t-51.5 100.5t-9 116t51.5 118.5q49 68 124.5 100.5t161.5 32.5q84 -2 162 -33.5t133 -89.5l19 -22q8 -12 14 -22.5t12.5 -26t8.5 -23.5l6 -24q6 -16 7 -21.5t4 -25t5 -21.5 q2 -16 -7 -30.5t-25.5 -17.5t-31 6.5t-18.5 25.5q0 4 -2 12q-6 37 -11 55.5t-15.5 40t-26.5 37.5q-88 96 -234 98q-147 2 -221 -100q-41 -57 -35.5 -118.5t42 -116t98.5 -99.5q10 -8 69 -35q51 -4 84 -10q25 -6 39 -12q31 -16 35 -45q2 -23 -12 -37q-12 -12 -29 -16 q-16 -2 -39 4q-27 6 -74 24l-22 11q-43 2 -86 0q-39 0 -45 -3q-80 -25 -134.5 -87t-76.5 -150q-20 -84 -6 -171t59 -151q96 -133 242.5 -195.5t296 -29.5t246.5 166q66 92 57 176q-6 70 -54 124t-114 73q-63 20 -117.5 -4.5t-83.5 -98.5q-12 -29 -13 -63.5t11 -54.5 q27 -49 74 -48q49 4 94 48q39 39 35 63q-2 16 -57 16q-16 0 -28.5 12.5t-12.5 29t12 28.5t29 12q127 0 139 -86q8 -68 -62 -133q-66 -63 -143 -69q-100 -8 -154 86q-20 49 -19 98t17 90q43 106 127 143t177 11q86 -27 150.5 -99.5t74.5 -169.5q12 -115 -74 -233 q-88 -121 -215 -172t-254 -34t-246.5 87t-199.5 178q-57 80 -75 186.5zM307 1630.5q0 16.5 12.5 28.5t29 12t28.5 -12t12 -28.5t-12 -29t-28.5 -12.5t-29 12.5t-12.5 29zM641 1644.5q0 16.5 12.5 29t28.5 12.5t28.5 -12.5t12.5 -29t-12.5 -28.5t-28.5 -12t-28.5 12 t-12.5 28.5z" />
<glyph unicode="&#xcc;" horiz-adv-x="1329" d="M35 1289q6 40 25.5 75t50 60.5t72.5 35.5t87 -18q43 -25 52 -66q6 -37 -23 -71q-47 -57 -131 -56q-16 0 -27.5 12.5t-11.5 30t12.5 28.5t30.5 11q41 -2 64 27l4 4q-2 4 -11 10q-20 14 -47.5 1t-48 -50t-17.5 -68.5t25 -46.5q68 -45 221 39l140 80q82 49 129 64 q70 20 134 22t132 -18.5t109 -38t114 -56.5q20 -10 31 -14q14 -8 20.5 -24.5t-2 -30.5t-25 -20.5t-30.5 1.5l-24 13q-76 39 -114 55t-97.5 34.5t-112.5 17.5t-111 -19q-20 -6 -49 -21v-6q14 -741 -14 -1184q70 -23 106 -28q221 -43 361 2q92 29 112 76q18 47 5 85.5 t-51 64.5t-79.5 27t-78.5 -28q-37 -33 -41 -59q-2 -16 10 -27q8 -6 21.5 -7t35 9t41.5 37q10 14 27.5 16t31 -8t15.5 -27.5t-8 -29.5q-47 -61 -108.5 -75.5t-106.5 22.5q-47 37 -41 98q8 61 69 112q66 49 133.5 48.5t127 -41.5t81 -105.5t-9.5 -144.5q-14 -35 -45 -61.5 t-55.5 -37t-61.5 -22.5q-158 -51 -401 -6q-41 8 -145 41q-102 33 -152 43q-166 37 -238 -43q-12 -14 -28.5 -14.5t-29.5 11t-13 28t10 28.5q104 117 315 72q45 -10 111 -31q27 426 12 1120q-94 -57 -123 -71q-197 -106 -305 -37q-39 27 -53 68.5t-8 81.5zM354 1642.5 q0 16.5 13.5 27.5t29.5 11q129 -6 355 -86q16 -6 23 -21t1 -31.5t-21.5 -24t-31.5 -0.5q-213 78 -330 81q-16 0 -27.5 13.5t-11.5 30z" />
<glyph unicode="&#xcd;" horiz-adv-x="1329" d="M35 1289q6 40 25.5 75t50 60.5t72.5 35.5t87 -18q43 -25 52 -66q6 -37 -23 -71q-47 -57 -131 -56q-16 0 -27.5 12.5t-11.5 30t12.5 28.5t30.5 11q41 -2 64 27l4 4q-2 4 -11 10q-20 14 -47.5 1t-48 -50t-17.5 -68.5t25 -46.5q68 -45 221 39l140 80q82 49 129 64 q70 20 134 22t132 -18.5t109 -38t114 -56.5q20 -10 31 -14q14 -8 20.5 -24.5t-2 -30.5t-25 -20.5t-30.5 1.5l-24 13q-76 39 -114 55t-97.5 34.5t-112.5 17.5t-111 -19q-20 -6 -49 -21v-6q14 -741 -14 -1184q70 -23 106 -28q221 -43 361 2q92 29 112 76q18 47 5 85.5 t-51 64.5t-79.5 27t-78.5 -28q-37 -33 -41 -59q-2 -16 10 -27q8 -6 21.5 -7t35 9t41.5 37q10 14 27.5 16t31 -8t15.5 -27.5t-8 -29.5q-47 -61 -108.5 -75.5t-106.5 22.5q-47 37 -41 98q8 61 69 112q66 49 133.5 48.5t127 -41.5t81 -105.5t-9.5 -144.5q-14 -35 -45 -61.5 t-55.5 -37t-61.5 -22.5q-158 -51 -401 -6q-41 8 -145 41q-102 33 -152 43q-166 37 -238 -43q-12 -14 -28.5 -14.5t-29.5 11t-13 28t10 28.5q104 117 315 72q45 -10 111 -31q27 426 12 1120q-94 -57 -123 -71q-197 -106 -305 -37q-39 27 -53 68.5t-8 81.5zM382 1558.5 q5 16.5 21 24.5q201 104 338 127q16 2 29.5 -8t17 -26.5t-7 -30t-26.5 -17.5q-123 -20 -314 -119q-14 -8 -30.5 -3t-24.5 20.5t-3 32z" />
<glyph unicode="&#xce;" horiz-adv-x="1329" d="M35 1289q6 40 25.5 75t50 60.5t72.5 35.5t87 -18q43 -25 52 -66q6 -37 -23 -71q-47 -57 -131 -56q-16 0 -27.5 12.5t-11.5 30t12.5 28.5t30.5 11q41 -2 64 27l4 4q-2 4 -11 10q-20 14 -47.5 1t-48 -50t-17.5 -68.5t25 -46.5q68 -45 221 39l140 80q82 49 129 64 q70 20 134 22t132 -18.5t109 -38t114 -56.5q20 -10 31 -14q14 -8 20.5 -24.5t-2 -30.5t-25 -20.5t-30.5 1.5l-24 13q-76 39 -114 55t-97.5 34.5t-112.5 17.5t-111 -19q-20 -6 -49 -21v-6q14 -741 -14 -1184q70 -23 106 -28q221 -43 361 2q92 29 112 76q18 47 5 85.5 t-51 64.5t-79.5 27t-78.5 -28q-37 -33 -41 -59q-2 -16 10 -27q8 -6 21.5 -7t35 9t41.5 37q10 14 27.5 16t31 -8t15.5 -27.5t-8 -29.5q-47 -61 -108.5 -75.5t-106.5 22.5q-47 37 -41 98q8 61 69 112q66 49 133.5 48.5t127 -41.5t81 -105.5t-9.5 -144.5q-14 -35 -45 -61.5 t-55.5 -37t-61.5 -22.5q-158 -51 -401 -6q-41 8 -145 41q-102 33 -152 43q-166 37 -238 -43q-12 -14 -28.5 -14.5t-29.5 11t-13 28t10 28.5q104 117 315 72q45 -10 111 -31q27 426 12 1120q-94 -57 -123 -71q-197 -106 -305 -37q-39 27 -53 68.5t-8 81.5zM413 1464.5 q-5 16.5 3 30.5q29 53 98 152q37 53 66 86l30 30q23 16 41 21l23 -4q4 0 6 -2l2 -2l2 -2l4 -2l6 -7l25 -22l72 -68l116 -112q12 -12 12.5 -28.5t-12 -29t-29 -12.5t-28.5 12q-4 4 -115 109l-73 69l-9 9q-6 -6 -12 -15q-25 -29 -61 -78q-66 -94 -91 -141q-8 -16 -24 -21 t-31.5 3t-20.5 24.5z" />
<glyph unicode="&#xcf;" horiz-adv-x="1329" d="M35 1289q6 40 25.5 75t50 60.5t72.5 35.5t87 -18q43 -25 52 -66q6 -37 -23 -71q-47 -57 -131 -56q-16 0 -27.5 12.5t-11.5 30t12.5 28.5t30.5 11q41 -2 64 27l4 4q-2 4 -11 10q-20 14 -47.5 1t-48 -50t-17.5 -68.5t25 -46.5q68 -45 221 39l140 80q82 49 129 64 q70 20 134 22t132 -18.5t109 -38t114 -56.5q20 -10 31 -14q14 -8 20.5 -24.5t-2 -30.5t-25 -20.5t-30.5 1.5l-24 13q-76 39 -114 55t-97.5 34.5t-112.5 17.5t-111 -19q-20 -6 -49 -21v-6q14 -741 -14 -1184q70 -23 106 -28q221 -43 361 2q92 29 112 76q18 47 5 85.5 t-51 64.5t-79.5 27t-78.5 -28q-37 -33 -41 -59q-2 -16 10 -27q8 -6 21.5 -7t35 9t41.5 37q10 14 27.5 16t31 -8t15.5 -27.5t-8 -29.5q-47 -61 -108.5 -75.5t-106.5 22.5q-47 37 -41 98q8 61 69 112q66 49 133.5 48.5t127 -41.5t81 -105.5t-9.5 -144.5q-14 -35 -45 -61.5 t-55.5 -37t-61.5 -22.5q-158 -51 -401 -6q-41 8 -145 41q-102 33 -152 43q-166 37 -238 -43q-12 -14 -28.5 -14.5t-29.5 11t-13 28t10 28.5q104 117 315 72q45 -10 111 -31q27 426 12 1120q-94 -57 -123 -71q-197 -106 -305 -37q-39 27 -53 68.5t-8 81.5zM473 1587.5 q0 16.5 12.5 28.5t28.5 12t28.5 -12t12.5 -28.5t-12.5 -29t-28.5 -12.5t-28.5 12.5t-12.5 29zM690 1587.5q0 16.5 12.5 28.5t29 12t28.5 -12t12 -28.5t-12 -29t-28.5 -12.5t-29 12.5t-12.5 29z" />
<glyph unicode="&#xd0;" horiz-adv-x="1441" d="M0 831.5q0 16.5 14 28.5q100 90 246 98q-18 219 -45 390q-35 -2 -72 -7q-16 -2 -29.5 9.5t-15.5 28t9.5 29.5t27.5 15q317 35 621.5 -124.5t488.5 -434.5q131 -197 125 -405q-6 -250 -215 -365q-104 -55 -251.5 -71.5t-260.5 6.5q-68 12 -135.5 56t-116.5 105 q-6 -96 -31 -167q-6 -16 -20 -24.5t-30.5 -2.5t-25 20.5t-1.5 30.5q20 59 25 138t2 136.5t-13 159t-12 142.5q-12 176 -17 254q-119 -6 -200 -78q-12 -10 -28.5 -10.5t-28 13t-11.5 30zM299 1346q25 -168 43 -388h4q76 -8 136.5 -4t97.5 35q14 12 30.5 10t27.5 -15t9 -29.5 t-14 -26.5q-16 -14 -34.5 -23.5t-33 -15.5t-38 -10.5t-34 -6.5t-39 -1t-34.5 1t-37 2.5t-33 2.5q6 -82 17 -250q2 -25 4 -62q57 66 155.5 101.5t202.5 38.5q129 2 235.5 -47.5t141.5 -155.5q43 -129 -62 -193q-76 -47 -200 -41q-117 8 -185 54q-45 29 -51 69q-6 47 39 84 q12 12 27.5 19.5t29 10.5t31 4t28.5 1t29.5 -3t25.5 -5t24.5 -6t19.5 -7q16 -4 24.5 -18t4.5 -30.5t-18.5 -24.5t-30.5 -4q-43 10 -60.5 13t-42 2t-39.5 -13q-8 -7 -10 -13q2 -4 15 -12q49 -33 143 -39q100 -6 153 29q49 31 27 98q-23 70 -104.5 109t-192 37t-201 -42 t-120.5 -104q-53 -104 39 -225q41 -55 98 -93t112 -48q102 -23 234.5 -7.5t220.5 64.5q168 90 174 293q4 184 -112 358q-147 221 -385 365q-236 145 -492 162z" />
<glyph unicode="&#xd1;" horiz-adv-x="1632" d="M74 92q-31 61 4 133q29 57 84 92q63 41 114 17q61 -31 54 -129q-2 -16 -14.5 -27.5t-30 -9.5t-28.5 14.5t-9 30.5q4 39 -6 47q-10 4 -37 -12q-35 -23 -53 -60q-16 -35 -5 -59q10 -23 42 -43t67 -27q72 -10 83 40.5t21 107.5l19 100q6 41 11 110.5t8 100.5t7.5 114 t5.5 101.5t4 114.5t3 106q6 188 2 271q-2 23 -5 61.5t-3 52.5q0 2 -1 5.5t-2 10.5t-3 11q-2 14 -1 22.5t3 14.5q10 25 36 27q16 0 29 -11l8 -8q16 -23 33 -74q10 -37 25 -96q6 -23 14 -61.5t14 -65.5t11 -41q63 -215 183 -427t267 -357q96 -94 133 -127q49 -45 82 -68 q-6 27 -20 78l-35 115q-31 102 -41 149q-29 109 -46.5 198t-32.5 200.5t-14 218t17 200.5q33 172 148 213q96 35 208 -36q102 -68 146 -173q51 -125 -19 -219q-49 -66 -118 -71q-59 -4 -119 37q-53 37 -88 94t-37 114q-2 49 20 74q27 31 70 17q49 -14 78 -68q8 -14 3 -30.5 t-20.5 -25t-32 -3t-24.5 21.5q-4 8 -12 16q2 -37 26.5 -77.5t61.5 -65t68 -22.5q33 2 59 38q41 57 8 138q-35 84 -115 135q-78 51 -137 29q-70 -25 -92 -152q-51 -279 72 -780q12 -47 42.5 -147.5t35.5 -114.5q20 -72 26 -109q2 -27 0 -45q-6 -39 -39 -47q-23 -6 -51 6 q-18 8 -41 27q-37 25 -92 73q-39 35 -135 131q-154 150 -278 368t-191 439q0 -23 -2 -88q0 -12 -3 -104t-3 -113l-7 -104q-4 -82 -6 -117l-10 -102q-6 -70 -14 -115l-17 -102q-8 -59 -22 -113q-14 -63 -64.5 -87t-109.5 -13q-53 8 -101.5 38.5t-68.5 73.5zM537.5 1581.5 q5.5 16.5 19.5 24.5q127 70 221 63q61 -4 135 -51q61 -37 93 -41q57 -8 143 39q14 8 30.5 4t24.5 -18.5t4 -31t-18 -24.5q-113 -63 -197 -51q-47 6 -123 55q-57 35 -98 37q-68 4 -174 -55q-16 -8 -32.5 -3t-25 20.5t-3 32z" />
<glyph unicode="&#xd2;" horiz-adv-x="1452" d="M154 833q51 295 182 470q158 209 360 143q7 -2 11 -4q41 -6 88 -49q39 -37 88 -105q84 -115 118 -194q8 -18 17 -35q10 -2 18 -6q178 -39 271 39q37 33 43 87t-21 101q-25 47 -63 63q-41 16 -88 -8q-20 -12 -34 -45t-7 -63q4 -25 24 -35q29 -12 86 6q16 6 30.5 -2 t21 -24.5t-2 -31t-24.5 -20.5q-88 -29 -148 -2q-55 27 -67 94q-10 53 12.5 110.5t67.5 82.5q82 47 159 14q68 -29 107 -102q37 -61 28.5 -147.5t-71.5 -139.5q-115 -96 -313 -61q20 -74 20 -146q2 -125 -37 -282q-37 -158 -106 -289q-82 -154 -205 -232q-125 -80 -285 -34 q-199 53 -270 323q-61 229 -10 524zM233 819q-47 -274 11 -489q59 -223 211 -267q240 -66 397 228q66 119 100.5 267.5t32.5 264.5q0 82 -31 168q-145 47 -239 131q-72 63 -111 150q-29 59 -14 102v4q-100 -10 -189 -125q-121 -160 -168 -434zM360 1644.5q2 16.5 16 27.5 t30 9q182 -18 380 -84q16 -6 24.5 -20t2.5 -30.5t-20.5 -25t-30.5 -1.5q-190 63 -365 79q-16 2 -27.5 15.5t-9.5 30zM668 1350q-4 -12 10 -45q33 -70 90 -121q55 -49 141 -88q-39 74 -92 145q-43 59 -78 90q-33 31 -43 29q-31 -2 -28 -10z" />
<glyph unicode="&#xd3;" horiz-adv-x="1452" d="M154 833q51 295 182 470q158 209 360 143q7 -2 11 -4q41 -6 88 -49q39 -37 88 -105q84 -115 118 -194q8 -18 17 -35q10 -2 18 -6q178 -39 271 39q37 33 43 87t-21 101q-25 47 -63 63q-41 16 -88 -8q-20 -12 -34 -45t-7 -63q4 -25 24 -35q29 -12 86 6q16 6 30.5 -2 t21 -24.5t-2 -31t-24.5 -20.5q-88 -29 -148 -2q-55 27 -67 94q-10 53 12.5 110.5t67.5 82.5q82 47 159 14q68 -29 107 -102q37 -61 28.5 -147.5t-71.5 -139.5q-115 -96 -313 -61q20 -74 20 -146q2 -125 -37 -282q-37 -158 -106 -289q-82 -154 -205 -232q-125 -80 -285 -34 q-199 53 -270 323q-61 229 -10 524zM233 819q-47 -274 11 -489q59 -223 211 -267q240 -66 397 228q66 119 100.5 267.5t32.5 264.5q0 82 -31 168q-145 47 -239 131q-72 63 -111 150q-29 59 -14 102v4q-100 -10 -189 -125q-121 -160 -168 -434zM378 1549.5q3 17.5 17 25.5 q125 78 332 160q14 6 30.5 -1.5t22.5 -22.5t-1 -31.5t-23 -22.5q-199 -78 -316 -152q-14 -8 -31.5 -5t-25.5 17.5t-5 32zM668 1350q-4 -12 10 -45q33 -70 90 -121q55 -49 141 -88q-39 74 -92 145q-43 59 -78 90q-33 31 -43 29q-31 -2 -28 -10z" />
<glyph unicode="&#xd4;" horiz-adv-x="1452" d="M154 833q51 295 182 470q158 209 360 143q7 -2 11 -4q41 -6 88 -49q39 -37 88 -105q84 -115 118 -194q8 -18 17 -35q10 -2 18 -6q178 -39 271 39q37 33 43 87t-21 101q-25 47 -63 63q-41 16 -88 -8q-20 -12 -34 -45t-7 -63q4 -25 24 -35q29 -12 86 6q16 6 30.5 -2 t21 -24.5t-2 -31t-24.5 -20.5q-88 -29 -148 -2q-55 27 -67 94q-10 53 12.5 110.5t67.5 82.5q82 47 159 14q68 -29 107 -102q37 -61 28.5 -147.5t-71.5 -139.5q-115 -96 -313 -61q20 -74 20 -146q2 -125 -37 -282q-37 -158 -106 -289q-82 -154 -205 -232q-125 -80 -285 -34 q-199 53 -270 323q-61 229 -10 524zM233 819q-47 -274 11 -489q59 -223 211 -267q240 -66 397 228q66 119 100.5 267.5t32.5 264.5q0 82 -31 168q-145 47 -239 131q-72 63 -111 150q-29 59 -14 102v4q-100 -10 -189 -125q-121 -160 -168 -434zM313.5 1534.5 q0.5 16.5 12.5 28.5l120 123l74 71q18 16 29 25q8 4 14 8q20 10 37 4q12 -4 31 -18q10 -8 24 -25q27 -25 64 -68l100 -116q12 -14 10 -30.5t-15 -28t-29.5 -9.5t-26.5 14l-101 115q-35 41 -59 66l-12 12l-11 -10l-71 -70l-121 -121q-12 -12 -28.5 -12t-29 12.5t-12 29z M668 1350q-4 -12 10 -45q33 -70 90 -121q55 -49 141 -88q-39 74 -92 145q-43 59 -78 90q-33 31 -43 29q-31 -2 -28 -10z" />
<glyph unicode="&#xd5;" horiz-adv-x="1452" d="M154 833q51 295 182 470q158 209 360 143q7 -2 11 -4q41 -6 88 -49q39 -37 88 -105q84 -115 118 -194q8 -18 17 -35q10 -2 18 -6q178 -39 271 39q37 33 43 87t-21 101q-25 47 -63 63q-41 16 -88 -8q-20 -12 -34 -45t-7 -63q4 -25 24 -35q29 -12 86 6q16 6 30.5 -2 t21 -24.5t-2 -31t-24.5 -20.5q-88 -29 -148 -2q-55 27 -67 94q-10 53 12.5 110.5t67.5 82.5q82 47 159 14q68 -29 107 -102q37 -61 28.5 -147.5t-71.5 -139.5q-115 -96 -313 -61q20 -74 20 -146q2 -125 -37 -282q-37 -158 -106 -289q-82 -154 -205 -232q-125 -80 -285 -34 q-199 53 -270 323q-61 229 -10 524zM227.5 1514.5q-1.5 17.5 10.5 29.5q115 135 202 166q78 27 152 -20q16 -10 49 -39q29 -25 41 -33q35 -25 72 -10q10 4 43 37q49 47 61 57q14 10 30.5 8t27 -16.5t8.5 -30.5t-17 -27q-8 -6 -53 -51q-43 -45 -72 -55q-76 -29 -145 20 q-18 10 -49 37q-27 25 -41 33q-39 27 -80 12q-68 -25 -168 -141q-10 -12 -27.5 -14t-30 9t-14 28.5zM233 819q-47 -274 11 -489q59 -223 211 -267q240 -66 397 228q66 119 100.5 267.5t32.5 264.5q0 82 -31 168q-145 47 -239 131q-72 63 -111 150q-29 59 -14 102v4 q-100 -10 -189 -125q-121 -160 -168 -434zM668 1350q-4 -12 10 -45q33 -70 90 -121q55 -49 141 -88q-39 74 -92 145q-43 59 -78 90q-33 31 -43 29q-31 -2 -28 -10z" />
<glyph unicode="&#xd6;" horiz-adv-x="1452" d="M154 833q51 295 182 470q158 209 360 143q7 -2 11 -4q41 -6 88 -49q39 -37 88 -105q84 -115 118 -194q8 -18 17 -35q10 -2 18 -6q178 -39 271 39q37 33 43 87t-21 101q-25 47 -63 63q-41 16 -88 -8q-20 -12 -34 -45t-7 -63q4 -25 24 -35q29 -12 86 6q16 6 30.5 -2 t21 -24.5t-2 -31t-24.5 -20.5q-88 -29 -148 -2q-55 27 -67 94q-10 53 12.5 110.5t67.5 82.5q82 47 159 14q68 -29 107 -102q37 -61 28.5 -147.5t-71.5 -139.5q-115 -96 -313 -61q20 -74 20 -146q2 -125 -37 -282q-37 -158 -106 -289q-82 -154 -205 -232q-125 -80 -285 -34 q-199 53 -270 323q-61 229 -10 524zM233 819q-47 -274 11 -489q59 -223 211 -267q240 -66 397 228q66 119 100.5 267.5t32.5 264.5q0 82 -31 168q-145 47 -239 131q-72 63 -111 150q-29 59 -14 102v4q-100 -10 -189 -125q-121 -160 -168 -434zM426 1636.5q0 16.5 12.5 28.5 t28.5 12t28.5 -12t12.5 -28.5t-12.5 -29t-28.5 -12.5t-28.5 12.5t-12.5 29zM659 1636.5q0 16.5 12.5 28.5t29 12t28.5 -12t12 -28.5t-12 -29t-28.5 -12.5t-29 12.5t-12.5 29zM668 1350q-4 -12 10 -45q33 -70 90 -121q55 -49 141 -88q-39 74 -92 145q-43 59 -78 90 q-33 31 -43 29q-31 -2 -28 -10z" />
<glyph unicode="&#xd7;" horiz-adv-x="1091" d="M43 324l426 436l-410 405l58 58l407 -404l359 367l57 -58l-356 -366l436 -432l-57 -58l-437 430l-426 -436z" />
<glyph unicode="&#xd8;" horiz-adv-x="1452" d="M154 833q51 295 182 470q158 209 360 143q7 -2 11 -4q41 -6 88 -49q39 -37 88 -105q84 -115 118 -194q8 -18 17 -35q10 -2 18 -6q178 -39 271 39q37 33 43 87t-21 101q-25 47 -63 63q-41 16 -88 -8q-20 -12 -34 -45t-7 -63q4 -25 24 -35q29 -12 86 6q16 6 30.5 -2 t21 -24.5t-2 -31t-24.5 -20.5q-88 -29 -148 -2q-55 27 -67 94q-10 53 12.5 110.5t67.5 82.5q82 47 159 14q68 -29 107 -102q37 -61 28.5 -147.5t-71.5 -139.5q-115 -96 -313 -61q20 -74 20 -146q2 -125 -37 -282q-37 -158 -106 -289q-82 -154 -205 -232q-125 -80 -285 -34 q-199 53 -270 323q-61 229 -10 524zM221 453l688 555q-119 47 -194 114q-72 63 -111 150q-29 59 -14 102v4q-100 -10 -189 -125q-121 -160 -168 -434q-33 -193 -12 -366zM236 360q4 -14 8 -30q59 -223 211 -267q240 -66 397 228q66 119 100.5 267.5t32.5 264.5q0 62 -18 125 zM668 1350q-4 -12 10 -45q33 -70 90 -121q55 -49 141 -88q-39 74 -92 145q-43 59 -78 90q-33 31 -43 29q-31 -2 -28 -10z" />
<glyph unicode="&#xd9;" horiz-adv-x="1642" d="M100 928q-27 74 17 178q16 43 41 76q31 39 61 49q53 16 84 -33q23 -35 27 -104q2 -16 -9.5 -28.5t-29 -14.5t-29.5 9t-14 30q-2 39 -10 57l-15 -14q-18 -25 -30 -58q-31 -76 -17 -119q6 -16 19 -20q23 -10 63 0q63 16 127 133q51 96 76 197l26 125l5 28l2 8v3q2 2 2 4 q2 4 2 8q4 4 8 10q18 16 43 8q18 -8 29 -26q4 -10 6 -25q4 -18 2 -49q-2 -41 -13 -125q-6 -55 -18 -125q-12 -72 -12 -80q-4 -27 -17 -108l-16 -127q-27 -197 -29 -326q-6 -184 27 -291q37 -117 117 -137q90 -20 166 65q72 82 129 252q20 57 37.5 122t31.5 132l21 111 l20 108q10 63 10 72q25 141 33 215v17q-6 104 -4 168v4q-2 12 -4 16q0 16 4 29q8 29 37 34q18 2 33 -6q14 -6 20 -22q4 -12 4 -29q0 -4 -2 -18v-6q6 -84 -6 -189q6 -94 6 -143q0 -8 -10 -228q-8 -176 0 -292q8 -166 45 -265q41 -109 115 -133q41 -14 84 9.5t78 78.5 q33 55 42 114.5t-10 94.5q-14 29 -43.5 39t-54.5 0q-23 -12 -29 -39q-10 -39 19 -96q8 -16 2 -31.5t-21.5 -23.5t-31 -2t-23.5 20q-41 86 -25 154q14 63 76 92q51 27 113.5 5.5t91.5 -81.5q29 -68 16.5 -143.5t-53.5 -143.5q-45 -74 -112.5 -112.5t-147.5 -12.5 q-109 39 -164 183q-41 111 -49 289q-4 59 -4 133q-31 -141 -68 -250q-63 -184 -145 -279q-109 -125 -248 -90q-125 29 -174 191q-37 121 -31 317q2 139 29 334q6 45 18 125q13 81 15 108l-4 -8q-80 -150 -178 -172q-68 -18 -115 2q-47 18 -64 68zM570 1681.5q5 16.5 21 24.5 t32 2q49 -14 107 -42t83 -41t104.5 -61t81.5 -51q14 -8 18.5 -24t-3.5 -30.5t-24.5 -18.5t-31.5 4l-71 43l-74 43l-65 37q-41 23 -77 37t-73 26q-16 4 -24.5 19.5t-3.5 32z" />
<glyph unicode="&#xda;" horiz-adv-x="1642" d="M100 928q-27 74 17 178q16 43 41 76q31 39 61 49q53 16 84 -33q23 -35 27 -104q2 -16 -9.5 -28.5t-29 -14.5t-29.5 9t-14 30q-2 39 -10 57l-15 -14q-18 -25 -30 -58q-31 -76 -17 -119q6 -16 19 -20q23 -10 63 0q63 16 127 133q51 96 76 197l26 125l5 28l2 8v3q2 2 2 4 q2 4 2 8q4 4 8 10q18 16 43 8q18 -8 29 -26q4 -10 6 -25q4 -18 2 -49q-2 -41 -13 -125q-6 -55 -18 -125q-12 -72 -12 -80q-4 -27 -17 -108l-16 -127q-27 -197 -29 -326q-6 -184 27 -291q37 -117 117 -137q90 -20 166 65q72 82 129 252q20 57 37.5 122t31.5 132l21 111 l20 108q10 63 10 72q25 141 33 215v17q-6 104 -4 168v4q-2 12 -4 16q0 16 4 29q8 29 37 34q18 2 33 -6q14 -6 20 -22q4 -12 4 -29q0 -4 -2 -18v-6q6 -84 -6 -189q6 -94 6 -143q0 -8 -10 -228q-8 -176 0 -292q8 -166 45 -265q41 -109 115 -133q41 -14 84 9.5t78 78.5 q33 55 42 114.5t-10 94.5q-14 29 -43.5 39t-54.5 0q-23 -12 -29 -39q-10 -39 19 -96q8 -16 2 -31.5t-21.5 -23.5t-31 -2t-23.5 20q-41 86 -25 154q14 63 76 92q51 27 113.5 5.5t91.5 -81.5q29 -68 16.5 -143.5t-53.5 -143.5q-45 -74 -112.5 -112.5t-147.5 -12.5 q-109 39 -164 183q-41 111 -49 289q-4 59 -4 133q-31 -141 -68 -250q-63 -184 -145 -279q-109 -125 -248 -90q-125 29 -174 191q-37 121 -31 317q2 139 29 334q6 45 18 125q13 81 15 108l-4 -8q-80 -150 -178 -172q-68 -18 -115 2q-47 18 -64 68zM659.5 1532q4.5 16 18.5 24 q225 129 395 185q16 6 31.5 -2t20.5 -24.5t-3 -32t-24 -19.5q-164 -53 -379 -176q-14 -8 -30.5 -4t-25 18.5t-4 30.5z" />
<glyph unicode="&#xdb;" horiz-adv-x="1642" d="M100 928q-27 74 17 178q16 43 41 76q31 39 61 49q53 16 84 -33q23 -35 27 -104q2 -16 -9.5 -28.5t-29 -14.5t-29.5 9t-14 30q-2 39 -10 57l-15 -14q-18 -25 -30 -58q-31 -76 -17 -119q6 -16 19 -20q23 -10 63 0q63 16 127 133q51 96 76 197l26 125l5 28l2 8v3q2 2 2 4 q2 4 2 8q4 4 8 10q18 16 43 8q18 -8 29 -26q4 -10 6 -25q4 -18 2 -49q-2 -41 -13 -125q-6 -55 -18 -125q-12 -72 -12 -80q-4 -27 -17 -108l-16 -127q-27 -197 -29 -326q-6 -184 27 -291q37 -117 117 -137q90 -20 166 65q72 82 129 252q20 57 37.5 122t31.5 132l21 111 l20 108q10 63 10 72q25 141 33 215v17q-6 104 -4 168v4q-2 12 -4 16q0 16 4 29q8 29 37 34q18 2 33 -6q14 -6 20 -22q4 -12 4 -29q0 -4 -2 -18v-6q6 -84 -6 -189q6 -94 6 -143q0 -8 -10 -228q-8 -176 0 -292q8 -166 45 -265q41 -109 115 -133q41 -14 84 9.5t78 78.5 q33 55 42 114.5t-10 94.5q-14 29 -43.5 39t-54.5 0q-23 -12 -29 -39q-10 -39 19 -96q8 -16 2 -31.5t-21.5 -23.5t-31 -2t-23.5 20q-41 86 -25 154q14 63 76 92q51 27 113.5 5.5t91.5 -81.5q29 -68 16.5 -143.5t-53.5 -143.5q-45 -74 -112.5 -112.5t-147.5 -12.5 q-109 39 -164 183q-41 111 -49 289q-4 59 -4 133q-31 -141 -68 -250q-63 -184 -145 -279q-109 -125 -248 -90q-125 29 -174 191q-37 121 -31 317q2 139 29 334q6 45 18 125q13 81 15 108l-4 -8q-80 -150 -178 -172q-68 -18 -115 2q-47 18 -64 68zM636 1493.5q-3 16.5 7 30.5 q31 43 102 127q41 47 68 73q16 16 29 27q8 6 16 10q18 8 37 2q10 -4 25 -18l20 -21l49 -59q72 -86 84 -97.5t14.5 -28.5t-9 -29.5t-29 -14.5t-29.5 10q-18 14 -94 107l-47 57l-2 2l-7 -4q-25 -25 -63 -70q-70 -82 -98 -122q-10 -12 -26.5 -15.5t-30 7t-16.5 27z" />
<glyph unicode="&#xdc;" horiz-adv-x="1642" d="M100 928q-27 74 17 178q16 43 41 76q31 39 61 49q53 16 84 -33q23 -35 27 -104q2 -16 -9.5 -28.5t-29 -14.5t-29.5 9t-14 30q-2 39 -10 57l-15 -14q-18 -25 -30 -58q-31 -76 -17 -119q6 -16 19 -20q23 -10 63 0q63 16 127 133q51 96 76 197l26 125l5 28l2 8v3q2 2 2 4 q2 4 2 8q4 4 8 10q18 16 43 8q18 -8 29 -26q4 -10 6 -25q4 -18 2 -49q-2 -41 -13 -125q-6 -55 -18 -125q-12 -72 -12 -80q-4 -27 -17 -108l-16 -127q-27 -197 -29 -326q-6 -184 27 -291q37 -117 117 -137q90 -20 166 65q72 82 129 252q20 57 37.5 122t31.5 132l21 111 l20 108q10 63 10 72q25 141 33 215v17q-6 104 -4 168v4q-2 12 -4 16q0 16 4 29q8 29 37 34q18 2 33 -6q14 -6 20 -22q4 -12 4 -29q0 -4 -2 -18v-6q6 -84 -6 -189q6 -94 6 -143q0 -8 -10 -228q-8 -176 0 -292q8 -166 45 -265q41 -109 115 -133q41 -14 84 9.5t78 78.5 q33 55 42 114.5t-10 94.5q-14 29 -43.5 39t-54.5 0q-23 -12 -29 -39q-10 -39 19 -96q8 -16 2 -31.5t-21.5 -23.5t-31 -2t-23.5 20q-41 86 -25 154q14 63 76 92q51 27 113.5 5.5t91.5 -81.5q29 -68 16.5 -143.5t-53.5 -143.5q-45 -74 -112.5 -112.5t-147.5 -12.5 q-109 39 -164 183q-41 111 -49 289q-4 59 -4 133q-31 -141 -68 -250q-63 -184 -145 -279q-109 -125 -248 -90q-125 29 -174 191q-37 121 -31 317q2 139 29 334q6 45 18 125q13 81 15 108l-4 -8q-80 -150 -178 -172q-68 -18 -115 2q-47 18 -64 68zM686 1568.5q0 16.5 12.5 29 t28.5 12.5t28.5 -12.5t12.5 -29t-12.5 -28.5t-28.5 -12t-28.5 12t-12.5 28.5zM897 1556.5q0 16.5 12.5 28.5t28.5 12t28.5 -12t12.5 -28.5t-12.5 -28.5t-28.5 -12t-28.5 12t-12.5 28.5z" />
<glyph unicode="&#xdd;" horiz-adv-x="1054" d="M138.5 312q-11.5 83 37.5 161q35 57 90.5 79.5t107.5 15.5t101 -33q47 -25 81 -65t46 -92t-20 -104q-27 -45 -69 -68.5t-87 -21.5q-49 4 -83 37t-38 88q-2 18 9.5 30.5t28.5 14.5t29.5 -9t14.5 -28q4 -49 43 -51q49 -2 82 49q18 33 -1 76t-75 72q-53 31 -106.5 23.5 t-83.5 -54.5q-45 -80 -11.5 -171t127.5 -159q98 -70 205 -76t199 68q131 117 145 465q2 49 2 103q-55 -35 -108 -48q-68 -14 -174 7q-135 27 -209 121t-94 227q-16 115 2 239q20 127 65 232q6 14 21.5 21t31 0t22.5 -22.5t-1 -31.5q-39 -94 -56.5 -209t-2.5 -217 q35 -240 237 -279q90 -18 141 -8q51 12 121 64l2 2q-2 41 -4 94q-2 33 -5 87t-5 94t-2 71q-2 55 14 289q2 18 14.5 29.5t30 9.5t28.5 -14.5t9 -28.5q-16 -231 -14 -285q0 -29 2 -68l6 -92q2 -55 4 -88q8 -180 4 -301q-16 -385 -174 -524q-74 -66 -168 -82.5t-178 8.5 t-158 76q-72 53 -118.5 123.5t-58 153.5zM572.5 1512.5q-7.5 15.5 0 31t21.5 21.5l135 65q88 45 143 66q16 6 32 -1t22 -23.5t-1 -32t-24 -21.5q-53 -18 -135 -59q-102 -53 -139 -68q-16 -8 -31.5 -1t-23 22.5z" />
<glyph unicode="&#xde;" horiz-adv-x="905" d="M-7 -214q-9 60 25 132q8 14 24.5 18.5t31 -4t18.5 -25t-4 -30.5q-20 -43 -15 -79t29 -60q18 -20 37 -23q14 0 25 19q23 41 16 178q-2 41 -8 113.5t-6 95.5q-6 203 -35 571q-4 45 -6 172q-4 125 -8 195q-14 242 -66 321q-8 14 -5 32t17.5 26t32 5t25.5 -18q59 -94 76 -335 q92 78 207.5 97t211.5 -22q119 -47 182.5 -158.5t39.5 -263.5q-12 -76 -74 -169t-143 -168q-57 -51 -117 -85t-131.5 -47.5t-130.5 19.5q4 -88 6 -168q0 -25 6 -96.5t8 -112.5q8 -160 -29 -223q-33 -61 -96 -60q-53 2 -94 47.5t-50 105.5zM203 981q2 -41 3 -101.5t3 -104.5 t4 -75q10 -124 14 -200q53 39 140 22q16 -4 25 -18.5t6 -30.5t-17 -25.5t-31 -7.5q-72 16 -84 -24q-4 -20 0 -33.5t10 -15.5q55 -27 132 2q78 27 157 98q76 68 129.5 149.5t61.5 139.5q20 123 -29 210t-141 124q-84 37 -190.5 12t-182.5 -113q-4 -6 -10 -8z" />
<glyph unicode="&#xdf;" horiz-adv-x="997" d="M13 90q3 16 17.5 25.5t30.5 7.5q45 -10 66 6q18 12 25 49q10 59 -17 187q-33 168 -49 417q-18 311 29 420t135 162q74 39 143.5 30.5t132.5 -53.5q59 -43 94 -109.5t29 -139.5q-10 -102 -106 -185q18 -2 39 -4q76 -14 146.5 -56t120.5 -104.5t70.5 -141.5t-6.5 -165 q-25 -78 -108 -153q-84 -74 -180 -109q-111 -41 -193 -12q-100 35 -121 160q-10 66 25 108.5t92 54.5q51 12 105.5 -4t84.5 -61q8 -14 5.5 -30.5t-17 -26t-31 -6.5t-26.5 18q-12 20 -42 29.5t-61 1.5q-63 -12 -53 -72q12 -76 66 -96q53 -18 137 12q82 31 151.5 92t88.5 119 q37 119 -49.5 227.5t-221.5 132.5q-115 23 -164 -18q-6 -6 -12 -15q-12 -12 -20 -16q-12 -8 -27 -8q-16 2 -29 12q-12 8 -22 29q-16 33 10 59q10 8 29 15q2 0 18 6h6q51 29 79 46t61.5 45t51 58.5t21.5 65.5q4 47 -20.5 95t-69.5 81q-98 72 -186 18q-66 -41 -103 -125 q-39 -88 -20 -383q14 -244 49 -405q29 -143 14 -217q-10 -68 -55 -101q-49 -37 -131 -22q-16 4 -25.5 18.5t-6.5 30.5z" />
<glyph unicode="&#xe0;" horiz-adv-x="1009" d="M68 514q20 117 69 225q47 109 111 185q80 96 188 110q106 14 190.5 -54.5t102.5 -193.5q2 -16 -8 -30.5t-27 -16.5q-12 -2 -22 4q-2 -12 -4 -32.5t-2 -30.5q-8 -96 -9 -102q-8 -121 -4 -205q4 -133 33 -207q33 -74 92 -80q31 -4 59.5 14.5t49.5 51.5q41 74 -4 124 q-23 25 -49 -4q-29 -31 16 -65q14 -10 16 -27.5t-8 -31t-27.5 -15.5t-29.5 8q-53 41 -58.5 96.5t29.5 88.5q33 37 81 42t91 -38q41 -47 42 -110.5t-30 -106.5q-29 -51 -79 -83t-107 -26q-109 12 -158 131q-23 51 -32 125q-35 -84 -78 -145q-72 -106 -154 -127 q-104 -25 -196 88q-131 160 -84 438zM150 502q-43 -244 63 -373q61 -74 117 -61q51 12 104 92q49 74 85 173t46 165q6 37 10 84q2 18 3 39q12 162 12 180v4v4q0 2 2 6q0 6 4 10q6 10 16 15q8 4 15 4q-43 98 -141.5 108.5t-176.5 -82.5q-55 -66 -98 -165t-61 -203z M249 1349.5q-3 16.5 6 31t25.5 17.5t30.5 -5q43 -29 129 -97q80 -61 125 -90q14 -10 17.5 -26.5t-6 -30.5t-25.5 -17.5t-31 5.5q-47 31 -129 96q-84 63 -125 90q-14 10 -17 26.5z" />
<glyph unicode="&#xe1;" horiz-adv-x="1009" d="M68 514q20 117 69 225q47 109 111 185q80 96 188 110q106 14 190.5 -54.5t102.5 -193.5q2 -16 -8 -30.5t-27 -16.5q-12 -2 -22 4q-2 -12 -4 -32.5t-2 -30.5q-8 -96 -9 -102q-8 -121 -4 -205q4 -133 33 -207q33 -74 92 -80q31 -4 59.5 14.5t49.5 51.5q41 74 -4 124 q-23 25 -49 -4q-29 -31 16 -65q14 -10 16 -27.5t-8 -31t-27.5 -15.5t-29.5 8q-53 41 -58.5 96.5t29.5 88.5q33 37 81 42t91 -38q41 -47 42 -110.5t-30 -106.5q-29 -51 -79 -83t-107 -26q-109 12 -158 131q-23 51 -32 125q-35 -84 -78 -145q-72 -106 -154 -127 q-104 -25 -196 88q-131 160 -84 438zM150 502q-43 -244 63 -373q61 -74 117 -61q51 12 104 92q49 74 85 173t46 165q6 37 10 84q2 18 3 39q12 162 12 180v4v4q0 2 2 6q0 6 4 10q6 10 16 15q8 4 15 4q-43 98 -141.5 108.5t-176.5 -82.5q-55 -66 -98 -165t-61 -203z M352 1149.5q-4 16.5 4 30.5q94 166 289 260q16 8 31.5 2t24 -21.5t2 -31t-20.5 -23.5q-172 -84 -256 -227q-8 -14 -24.5 -18.5t-31 4t-18.5 25z" />
<glyph unicode="&#xe2;" horiz-adv-x="1009" d="M68 514q20 117 69 225q47 109 111 185q80 96 188 110q106 14 190.5 -54.5t102.5 -193.5q2 -16 -8 -30.5t-27 -16.5q-12 -2 -22 4q-2 -12 -4 -32.5t-2 -30.5q-8 -96 -9 -102q-8 -121 -4 -205q4 -133 33 -207q33 -74 92 -80q31 -4 59.5 14.5t49.5 51.5q41 74 -4 124 q-23 25 -49 -4q-29 -31 16 -65q14 -10 16 -27.5t-8 -31t-27.5 -15.5t-29.5 8q-53 41 -58.5 96.5t29.5 88.5q33 37 81 42t91 -38q41 -47 42 -110.5t-30 -106.5q-29 -51 -79 -83t-107 -26q-109 12 -158 131q-23 51 -32 125q-35 -84 -78 -145q-72 -106 -154 -127 q-104 -25 -196 88q-131 160 -84 438zM139 1151.5q-2 16.5 8 30.5q86 117 121 153q57 61 110.5 67.5t119.5 -44.5q39 -31 137 -129q12 -12 12 -28.5t-12 -29t-28.5 -12.5t-28.5 12q-94 94 -129 121q-41 31 -62 29q-23 -2 -59 -41q-31 -35 -115 -147q-10 -14 -26.5 -16.5 t-31 8t-16.5 27zM150 502q-43 -244 63 -373q61 -74 117 -61q51 12 104 92q49 74 85 173t46 165q6 37 10 84q2 18 3 39q12 162 12 180v4v4q0 2 2 6q0 6 4 10q6 10 16 15q8 4 15 4q-43 98 -141.5 108.5t-176.5 -82.5q-55 -66 -98 -165t-61 -203z" />
<glyph unicode="&#xe3;" horiz-adv-x="1009" d="M68 514q20 117 69 225q47 109 111 185q80 96 188 110q106 14 190.5 -54.5t102.5 -193.5q2 -16 -8 -30.5t-27 -16.5q-12 -2 -22 4q-2 -12 -4 -32.5t-2 -30.5q-8 -96 -9 -102q-8 -121 -4 -205q4 -133 33 -207q33 -74 92 -80q31 -4 59.5 14.5t49.5 51.5q41 74 -4 124 q-23 25 -49 -4q-29 -31 16 -65q14 -10 16 -27.5t-8 -31t-27.5 -15.5t-29.5 8q-53 41 -58.5 96.5t29.5 88.5q33 37 81 42t91 -38q41 -47 42 -110.5t-30 -106.5q-29 -51 -79 -83t-107 -26q-109 12 -158 131q-23 51 -32 125q-35 -84 -78 -145q-72 -106 -154 -127 q-104 -25 -196 88q-131 160 -84 438zM111 1175.5q2 16.5 14 26.5q10 8 37 39l53 55q37 35 68 50q45 25 86 10q14 -6 32 -25l23 -28l29 -39q37 -35 108 -2q63 29 123 86q12 12 28.5 12t29 -12.5t12.5 -28.5t-13 -29q-70 -70 -145 -104q-121 -53 -197 16q-8 6 -41 51 q-12 14 -18 23q-2 2 -2 4q-8 0 -19 -6q-20 -10 -47 -37l-51 -51q-31 -35 -44 -46.5t-29.5 -9t-27.5 15.5t-9 29.5zM150 502q-43 -244 63 -373q61 -74 117 -61q51 12 104 92q49 74 85 173t46 165q6 37 10 84q2 18 3 39q12 162 12 180v4v4q0 2 2 6q0 6 4 10q6 10 16 15 q8 4 15 4q-43 98 -141.5 108.5t-176.5 -82.5q-55 -66 -98 -165t-61 -203z" />
<glyph unicode="&#xe4;" horiz-adv-x="1009" d="M68 514q20 117 69 225q47 109 111 185q80 96 188 110q106 14 190.5 -54.5t102.5 -193.5q2 -16 -8 -30.5t-27 -16.5q-12 -2 -22 4q-2 -12 -4 -32.5t-2 -30.5q-8 -96 -9 -102q-8 -121 -4 -205q4 -133 33 -207q33 -74 92 -80q31 -4 59.5 14.5t49.5 51.5q41 74 -4 124 q-23 25 -49 -4q-29 -31 16 -65q14 -10 16 -27.5t-8 -31t-27.5 -15.5t-29.5 8q-53 41 -58.5 96.5t29.5 88.5q33 37 81 42t91 -38q41 -47 42 -110.5t-30 -106.5q-29 -51 -79 -83t-107 -26q-109 12 -158 131q-23 51 -32 125q-35 -84 -78 -145q-72 -106 -154 -127 q-104 -25 -196 88q-131 160 -84 438zM150 502q-43 -244 63 -373q61 -74 117 -61q51 12 104 92q49 74 85 173t46 165q6 37 10 84q2 18 3 39q12 162 12 180v4v4q0 2 2 6q0 6 4 10q6 10 16 15q8 4 15 4q-43 98 -141.5 108.5t-176.5 -82.5q-55 -66 -98 -165t-61 -203z M274 1185.5q0 16.5 12.5 29t29 12.5t28.5 -12.5t12 -29t-12 -28.5t-28.5 -12t-29 12t-12.5 28.5zM467 1185.5q0 16.5 12.5 29t28.5 12.5t28.5 -12.5t12.5 -29t-12.5 -28.5t-28.5 -12t-28.5 12t-12.5 28.5z" />
<glyph unicode="&#xe5;" horiz-adv-x="1009" d="M68 514q20 117 69 225q47 109 111 185q80 96 188 110q106 14 190.5 -54.5t102.5 -193.5q2 -16 -8 -30.5t-27 -16.5q-12 -2 -22 4q-2 -12 -4 -32.5t-2 -30.5q-8 -96 -9 -102q-8 -121 -4 -205q4 -133 33 -207q33 -74 92 -80q31 -4 59.5 14.5t49.5 51.5q41 74 -4 124 q-23 25 -49 -4q-29 -31 16 -65q14 -10 16 -27.5t-8 -31t-27.5 -15.5t-29.5 8q-53 41 -58.5 96.5t29.5 88.5q33 37 81 42t91 -38q41 -47 42 -110.5t-30 -106.5q-29 -51 -79 -83t-107 -26q-109 12 -158 131q-23 51 -32 125q-35 -84 -78 -145q-72 -106 -154 -127 q-104 -25 -196 88q-131 160 -84 438zM150 502q-43 -244 63 -373q61 -74 117 -61q51 12 104 92q49 74 85 173t46 165q6 37 10 84q2 18 3 39q12 162 12 180v4v4q0 2 2 6q0 6 4 10q6 10 16 15q8 4 15 4q-43 98 -141.5 108.5t-176.5 -82.5q-55 -66 -98 -165t-61 -203zM281 1206 q6 49 51 103q33 37 74 65q2 14 13 24.5t25 10.5h45q33 8 64 2q15 -4 25 -16q37 -14 57 -39q47 -61 -14 -142q-45 -61 -123 -98q-90 -39 -160 -10q-68 27 -57 100zM360 1196q0 -10 11 -16q35 -14 94 12q57 27 90 70q23 33 14 45q-14 16 -71 20q-55 -16 -103 -72 q-31 -35 -35 -59z" />
<glyph unicode="&#xe6;" horiz-adv-x="1361" d="M45 319q-14 143 43 310.5t156 275.5q117 127 243 125q74 -2 115 -26q29 -16 55 -52q23 0 33 -18q109 98 229.5 115.5t198.5 -43.5q109 -80 84 -224q-27 -150 -203 -301q-184 -158 -333 -155q49 -178 208 -228q55 -16 129 -9t131.5 38t77.5 78q23 51 -6 119q-18 49 -67 55 q-45 6 -62 -37q-8 -16 -23.5 -23.5t-30.5 0t-22.5 22.5t-1.5 30q20 49 61.5 71.5t86.5 18.5q43 -6 81 -34t56 -71q41 -100 4 -184q-31 -72 -114 -117q-72 -39 -162 -47q-90 -10 -162 12q-227 68 -277 338l-8 56q-41 -92 -80 -162q-66 -113 -133 -160q-94 -68 -186 -10 q-106 70 -121 237zM125 326q12 -127 86 -174q43 -29 94 6q51 39 109 137q57 94 145 328l6 16q8 76 23 158q2 2 3 11t3 23.5t4 24.5q2 20 6 33q-25 33 -43 45q-25 12 -74 14q-92 2 -182 -98q-88 -98 -139 -248t-41 -276zM647 623q-10 -119 2 -215q125 -12 297 135 q154 133 174 254q16 94 -51 143q-39 29 -99.5 32t-137 -37t-144.5 -124v-6q-6 -86 -41 -182z" />
<glyph unicode="&#xe7;" horiz-adv-x="706" d="M-10 -186q-14 66 57 125q14 12 30.5 10t28 -15.5t9.5 -30t-15 -26.5q-35 -29 -30 -45q4 -10 22 -12q33 -2 80 37t84 135q-96 33 -158 153q-53 104 -67 234q-12 131 31.5 271.5t146.5 236.5q100 92 203 86q94 -6 153 -84q35 -47 47.5 -105.5t-6 -119t-71.5 -103.5 q-45 -37 -93.5 -26.5t-66.5 57.5q-16 45 6 91t78 75q14 8 30.5 2t24.5 -20.5t2 -31t-20 -24.5q-23 -10 -34 -24.5t-11 -22.5v-14q4 -6 8 -9q10 -2 26 13q47 37 50.5 101.5t-35.5 111.5q-37 47 -92 51q-68 4 -142 -66q-88 -80 -126 -201.5t-27.5 -236.5t57.5 -205 q70 -129 164 -116q119 16 237 253q8 14 24.5 20.5t31 -1.5t20.5 -24.5t-2 -30.5q-139 -276 -301 -299h-4q-45 -125 -113.5 -187.5t-140.5 -58.5q-35 2 -61.5 21.5t-34.5 54.5z" />
<glyph unicode="&#xe8;" horiz-adv-x="899" d="M49.5 542q26.5 124 89.5 228q68 115 121 170q115 117 221 64q74 -37 49 -150q-18 -84 -86 -176q-70 -96 -151 -148q-88 -53 -168 -41q-35 -238 104 -364q59 -53 132 -65.5t139.5 11t128.5 72.5q92 74 129 166q35 86 -2 137q-20 31 -58.5 32t-85.5 -27q-45 -31 -70.5 -73 t-17.5 -75q8 -49 26.5 -53t41.5 16q25 23 26 43v2q0 10 -24 17q-16 2 -24.5 17t-5.5 31.5t18.5 25t31.5 4.5q41 -8 63.5 -35t22.5 -64q-2 -55 -53 -102q-57 -49 -115 -35q-70 16 -90 117q-12 66 27 129t100 102q39 27 83 37t91.5 -3t77.5 -56q63 -90 13 -217 q-45 -113 -154 -199q-72 -57 -154 -86t-177 -14.5t-173 83.5q-96 88 -124.5 221.5t-2 257.5zM141 569q49 -6 109 31q70 43 129 125q57 80 72 147q12 49 -7 58q-53 27 -125 -47q-47 -47 -110 -154q-43 -74 -68 -160zM178.5 1376.5q-4.5 16.5 3.5 30.5t25 18t31 -4 q164 -94 227 -235q8 -14 2 -30.5t-21.5 -24t-32 -1t-22.5 22.5q-53 117 -194 199q-14 8 -18.5 24.5z" />
<glyph unicode="&#xe9;" horiz-adv-x="899" d="M49.5 542q26.5 124 89.5 228q68 115 121 170q115 117 221 64q74 -37 49 -150q-18 -84 -86 -176q-70 -96 -151 -148q-88 -53 -168 -41q-35 -238 104 -364q59 -53 132 -65.5t139.5 11t128.5 72.5q92 74 129 166q35 86 -2 137q-20 31 -58.5 32t-85.5 -27q-45 -31 -70.5 -73 t-17.5 -75q8 -49 26.5 -53t41.5 16q25 23 26 43v2q0 10 -24 17q-16 2 -24.5 17t-5.5 31.5t18.5 25t31.5 4.5q41 -8 63.5 -35t22.5 -64q-2 -55 -53 -102q-57 -49 -115 -35q-70 16 -90 117q-12 66 27 129t100 102q39 27 83 37t91.5 -3t77.5 -56q63 -90 13 -217 q-45 -113 -154 -199q-72 -57 -154 -86t-177 -14.5t-173 83.5q-96 88 -124.5 221.5t-2 257.5zM141 569q49 -6 109 31q70 43 129 125q57 80 72 147q12 49 -7 58q-53 27 -125 -47q-47 -47 -110 -154q-43 -74 -68 -160zM238 1103q-2 18 10 30q156 182 350 210q16 2 30.5 -8 t16.5 -26.5t-8 -30.5t-27 -16q-164 -25 -301 -183q-10 -12 -27.5 -14t-29.5 9t-14 29z" />
<glyph unicode="&#xea;" horiz-adv-x="899" d="M49.5 542q26.5 124 89.5 228q68 115 121 170q115 117 221 64q74 -37 49 -150q-18 -84 -86 -176q-70 -96 -151 -148q-88 -53 -168 -41q-35 -238 104 -364q59 -53 132 -65.5t139.5 11t128.5 72.5q92 74 129 166q35 86 -2 137q-20 31 -58.5 32t-85.5 -27q-45 -31 -70.5 -73 t-17.5 -75q8 -49 26.5 -53t41.5 16q25 23 26 43v2q0 10 -24 17q-16 2 -24.5 17t-5.5 31.5t18.5 25t31.5 4.5q41 -8 63.5 -35t22.5 -64q-2 -55 -53 -102q-57 -49 -115 -35q-70 16 -90 117q-12 66 27 129t100 102q39 27 83 37t91.5 -3t77.5 -56q63 -90 13 -217 q-45 -113 -154 -199q-72 -57 -154 -86t-177 -14.5t-173 83.5q-96 88 -124.5 221.5t-2 257.5zM141 569q49 -6 109 31q70 43 129 125q57 80 72 147q12 49 -7 58q-53 27 -125 -47q-47 -47 -110 -154q-43 -74 -68 -160zM177 1145q-3 17 5 31q31 47 86 118q35 47 62 74 q16 16 28 27q23 16 43 16q12 0 25 -8q6 -4 12 -10q8 -6 25 -21l61 -65l103 -109q10 -12 10 -29.5t-12.5 -29t-29.5 -11.5t-30 13l-100 110l-59 62l-9 8l-8 -10q-23 -23 -55 -66q-53 -70 -82 -115q-10 -14 -26.5 -17t-31 6t-17.5 26z" />
<glyph unicode="&#xeb;" horiz-adv-x="899" d="M49.5 542q26.5 124 89.5 228q68 115 121 170q115 117 221 64q74 -37 49 -150q-18 -84 -86 -176q-70 -96 -151 -148q-88 -53 -168 -41q-35 -238 104 -364q59 -53 132 -65.5t139.5 11t128.5 72.5q92 74 129 166q35 86 -2 137q-20 31 -58.5 32t-85.5 -27q-45 -31 -70.5 -73 t-17.5 -75q8 -49 26.5 -53t41.5 16q25 23 26 43v2q0 10 -24 17q-16 2 -24.5 17t-5.5 31.5t18.5 25t31.5 4.5q41 -8 63.5 -35t22.5 -64q-2 -55 -53 -102q-57 -49 -115 -35q-70 16 -90 117q-12 66 27 129t100 102q39 27 83 37t91.5 -3t77.5 -56q63 -90 13 -217 q-45 -113 -154 -199q-72 -57 -154 -86t-177 -14.5t-173 83.5q-96 88 -124.5 221.5t-2 257.5zM141 569q49 -6 109 31q70 43 129 125q57 80 72 147q12 49 -7 58q-53 27 -125 -47q-47 -47 -110 -154q-43 -74 -68 -160zM203 1233q0 16 12 28.5t28.5 12.5t29 -12.5t12.5 -28.5 t-12.5 -28.5t-29 -12.5t-28.5 12.5t-12 28.5zM477 1237q0 16 12.5 28.5t29 12.5t28.5 -12.5t12 -28.5t-12 -28.5t-28.5 -12.5t-29 12.5t-12.5 28.5z" />
<glyph unicode="&#xec;" horiz-adv-x="354" d="M32 1359.5q3 16.5 16 27t29.5 7t26.5 -15.5q20 -27 54 -75l61 -89q27 -37 55 -69q10 -12 10.5 -28.5t-13 -28t-30 -11.5t-28.5 15q-31 33 -59 71l-64 92l-51 74q-10 14 -7 30.5zM96 463q2 111 16.5 291t16.5 215q0 16 13.5 27.5t29.5 11.5t27.5 -13.5t11.5 -29.5 q-2 -35 -16.5 -215.5t-16.5 -288.5q-10 -338 55 -453q8 -14 4 -30.5t-18 -24.5t-30.5 -4t-24.5 18q-80 135 -68 496z" />
<glyph unicode="&#xed;" horiz-adv-x="454" d="M67 1118.5q-3 16.5 7 30.5q55 76 111.5 121t142.5 80q16 8 31.5 0.5t22.5 -22.5t0 -30.5t-22 -21.5q-80 -35 -124 -72q-47 -37 -97 -104q-10 -12 -26.5 -15.5t-29.5 7t-16 27zM102 473q2 72 11.5 233.5t9.5 231.5q0 16 12 28.5t28.5 12.5t29 -12.5t12.5 -28.5 q0 -70 -9.5 -232.5t-11.5 -234.5q-8 -301 41 -434q6 -16 -1 -31.5t-23.5 -22t-31.5 1t-22 23.5q-53 150 -45 465z" />
<glyph unicode="&#xee;" horiz-adv-x="643" d="M29 1221.5q0 17.5 12 29.5q109 113 158 148q68 49 125 24q33 -12 96 -80q74 -78 135 -124q14 -10 16 -27.5t-8 -31t-27.5 -15.5t-29.5 8q-63 49 -146 135q-51 53 -67 60q-14 6 -47 -17q-43 -29 -148 -137q-10 -12 -27.5 -12t-29.5 11t-12 28.5zM258 343q-2 157 7 339 t7 283q0 16 11.5 28.5t29 12.5t29.5 -11.5t12 -29.5q2 -109 -7 -289t-8 -328.5t26 -277.5q2 -18 -7.5 -31.5t-27 -17t-30.5 6t-17 25.5q-23 133 -25 290z" />
<glyph unicode="&#xef;" horiz-adv-x="419" d="M31 1192q0 16 12 28.5t28.5 12.5t29 -12.5t12.5 -28.5t-12.5 -28.5t-29 -12.5t-28.5 12.5t-12 28.5zM161 341.5q-7 147.5 2 354.5t9 275q0 16 12.5 28.5t28.5 12.5t28.5 -12.5t12.5 -28.5q0 -80 -9 -282t-3 -341q6 -135 39 -266q4 -16 -4.5 -30.5t-24.5 -18.5t-30.5 4 t-18.5 24q-35 133 -42 280.5zM266 1185.5q0 16.5 12.5 29t29 12.5t28.5 -12.5t12 -29t-12 -28.5t-28.5 -12t-29 12t-12.5 28.5z" />
<glyph unicode="&#xf0;" horiz-adv-x="768" d="M39 850q6 16 22 22q111 51 222 123q-104 86 -222 138q-14 6 -21 21t0 30.5t22.5 22.5t31.5 -1q137 -57 258 -164q113 80 201 168q12 12 28.5 12.5t29 -12t12.5 -29t-13 -28.5q-88 -88 -198 -168q88 -90 145 -192q47 16 94 28q16 4 30.5 -4t19 -24.5t-4 -30.5t-24.5 -19 q-39 -12 -80 -26q70 -182 29 -367q-27 -115 -99.5 -193.5t-195.5 -90.5q-70 -8 -123 23.5t-82 88.5q-57 113 -15 236q39 113 140.5 200.5t232.5 147.5q-53 92 -135 176q-123 -82 -250 -139q-14 -8 -30.5 -2t-23.5 21.5t-1 31.5zM184.5 389q-30.5 -92 10.5 -174 q39 -78 122 -68q178 18 224 222q34 157 -25 317q-121 -53 -211 -129t-120.5 -168z" />
<glyph unicode="&#xf1;" horiz-adv-x="1030" d="M25 987q0 16 12 28.5t28.5 12.5t28.5 -12.5t12 -28.5q0 -66 11 -170l2 -18q90 121 221 178q109 47 197 20q104 -29 151 -153q16 -47 20.5 -110.5t3.5 -106.5t-19.5 -134.5t-24.5 -115.5l-31 -131q-49 -199 -57 -293q-12 -137 32 -205q23 -35 66 -46t90 3q49 16 79 50 t30 75q0 31 -43 57q-45 29 -80 19q-27 -8 -25 -39q2 -35 27 -47q16 -6 22 -22.5t-1 -32t-23.5 -21.5t-30.5 2q-33 14 -53.5 47t-22.5 68q-2 41 18.5 74.5t63.5 48.5q70 23 148 -27q82 -51 81 -127q0 -74 -48 -127t-117 -76q-59 -25 -134 -6t-116 82q-59 92 -45 258 q10 94 59 305q27 113 38 164t25.5 136t11.5 143.5t-22 105.5q-31 86 -96 105q-59 18 -141 -19q-80 -35 -147.5 -103.5t-88.5 -133.5l-4 -9q2 -8 2 -16q16 -240 17 -651q0 -16 -12.5 -28.5t-29 -12.5t-28.5 12t-12 29q0 406 -17 647q-2 33 -16 172q-12 121 -12 180zM127 1189 q-2 18 8 30q88 113 158 135q63 23 123 -27q12 -10 37 -35q18 -20 28 -28q23 -18 47 -9q12 4 43 33q8 8 17.5 18.5t17.5 20.5l15 12q10 12 27.5 12.5t29.5 -11t12 -29t-12 -29.5l-49 -51q-43 -41 -72 -53q-68 -25 -127 22q-14 10 -37 35l-31 31q-23 18 -45 12 q-45 -16 -116 -109q-10 -14 -27.5 -16t-31 8t-15.5 28z" />
<glyph unicode="&#xf2;" horiz-adv-x="751" d="M-2 545q10 199 102 332q106 158 273 151q123 -4 209 -90q12 -12 12 -28.5t-12.5 -29t-29 -12t-28.5 12.5q-63 63 -155 65q-121 4 -201 -114.5t-88 -290.5q-10 -178 59.5 -312.5t204.5 -156.5q90 -16 162 65q72 84 94 223q23 145 -24.5 274.5t-161.5 186.5q-57 29 -101 6 q-39 -20 -61 -82q-25 -63 -18.5 -132.5t38.5 -108.5q27 -35 60 -21q49 23 66.5 57.5t9.5 59.5q-4 10 -9 10q-25 0 -59 -45q-12 -14 -28.5 -16t-30 9t-15.5 27.5t8 28.5q61 76 121 78q35 0 58.5 -18.5t31.5 -48.5q18 -55 -13.5 -119t-106.5 -96q-90 -41 -158 41 q-47 61 -55.5 155t22.5 168q35 90 100 125q80 43 177 -4q143 -72 199.5 -226.5t29.5 -320.5q-25 -164 -113 -264q-100 -119 -239 -94q-119 23 -199 113t-109.5 203.5t-21.5 238.5zM182.5 1341.5q-6.5 16.5 2 30.5t25 20.5t30.5 -1.5q49 -25 118 -86q76 -68 103 -84 q14 -10 17 -26.5t-6 -31t-25.5 -17.5t-30.5 5q-35 23 -113 92q-59 53 -100 74q-14 8 -20.5 24.5z" />
<glyph unicode="&#xf3;" horiz-adv-x="751" d="M-2 545q10 199 102 332q106 158 273 151q123 -4 209 -90q12 -12 12 -28.5t-12.5 -29t-29 -12t-28.5 12.5q-63 63 -155 65q-121 4 -201 -114.5t-88 -290.5q-10 -178 59.5 -312.5t204.5 -156.5q90 -16 162 65q72 84 94 223q23 145 -24.5 274.5t-161.5 186.5q-57 29 -101 6 q-39 -20 -61 -82q-25 -63 -18.5 -132.5t38.5 -108.5q27 -35 60 -21q49 23 66.5 57.5t9.5 59.5q-4 10 -9 10q-25 0 -59 -45q-12 -14 -28.5 -16t-30 9t-15.5 27.5t8 28.5q61 76 121 78q35 0 58.5 -18.5t31.5 -48.5q18 -55 -13.5 -119t-106.5 -96q-90 -41 -158 41 q-47 61 -55.5 155t22.5 168q35 90 100 125q80 43 177 -4q143 -72 199.5 -226.5t29.5 -320.5q-25 -164 -113 -264q-100 -119 -239 -94q-119 23 -199 113t-109.5 203.5t-21.5 238.5zM231.5 1177.5q0.5 16.5 12.5 28.5q119 121 194 170q14 8 30.5 5t26 -17t6.5 -30.5t-18 -26.5 q-70 -47 -182 -158q-12 -12 -28.5 -12t-29 12t-12 28.5z" />
<glyph unicode="&#xf4;" horiz-adv-x="751" d="M-2 545q10 199 102 332q106 158 273 151q123 -4 209 -90q12 -12 12 -28.5t-12.5 -29t-29 -12t-28.5 12.5q-63 63 -155 65q-121 4 -201 -114.5t-88 -290.5q-10 -178 59.5 -312.5t204.5 -156.5q90 -16 162 65q72 84 94 223q23 145 -24.5 274.5t-161.5 186.5q-57 29 -101 6 q-39 -20 -61 -82q-25 -63 -18.5 -132.5t38.5 -108.5q27 -35 60 -21q49 23 66.5 57.5t9.5 59.5q-4 10 -9 10q-25 0 -59 -45q-12 -14 -28.5 -16t-30 9t-15.5 27.5t8 28.5q61 76 121 78q35 0 58.5 -18.5t31.5 -48.5q18 -55 -13.5 -119t-106.5 -96q-90 -41 -158 41 q-47 61 -55.5 155t22.5 168q35 90 100 125q80 43 177 -4q143 -72 199.5 -226.5t29.5 -320.5q-25 -164 -113 -264q-100 -119 -239 -94q-119 23 -199 113t-109.5 203.5t-21.5 238.5zM133 1125.5q-2 17.5 8 29.5q117 154 142 180q63 68 116 58q37 -6 103 -74q100 -104 149 -145 q12 -10 14.5 -28t-9 -30t-29 -14t-29.5 10q-57 49 -154 150q-47 49 -59 51q-10 0 -41 -33q-23 -25 -137 -174q-10 -14 -27.5 -16.5t-31 8t-15.5 28z" />
<glyph unicode="&#xf5;" horiz-adv-x="780" d="M-2 545q10 199 102 332q106 158 273 151q123 -4 209 -90q12 -12 12 -28.5t-12.5 -29t-29 -12t-28.5 12.5q-63 63 -155 65q-121 4 -201 -114.5t-88 -290.5q-10 -178 59.5 -312.5t204.5 -156.5q90 -16 162 65q72 84 94 223q23 145 -24.5 274.5t-161.5 186.5q-57 29 -101 6 q-39 -20 -61 -82q-25 -63 -18.5 -132.5t38.5 -108.5q27 -35 60 -21q49 23 66.5 57.5t9.5 59.5q-4 10 -9 10q-25 0 -59 -45q-12 -14 -28.5 -16t-30 9t-15.5 27.5t8 28.5q61 76 121 78q35 0 58.5 -18.5t31.5 -48.5q18 -55 -13.5 -119t-106.5 -96q-90 -41 -158 41 q-47 61 -55.5 155t22.5 168q35 90 100 125q80 43 177 -4q143 -72 199.5 -226.5t29.5 -320.5q-25 -164 -113 -264q-100 -119 -239 -94q-119 23 -199 113t-109.5 203.5t-21.5 238.5zM89 1186q-3 17 5 31q78 121 162 120q10 0 21.5 -2t22.5 -7t19.5 -8t20.5 -9l16 -13 q4 -2 16.5 -10t14.5 -10q63 -43 102 -41q68 4 156 100q12 14 28.5 14.5t30 -11t13.5 -28t-10 -28.5q-111 -123 -213 -129q-68 -2 -152 55q-68 45 -88 45q-37 0 -90 -84q-10 -14 -26.5 -17t-31 6t-17.5 26z" />
<glyph unicode="&#xf6;" horiz-adv-x="751" d="M-2 545q10 199 102 332q106 158 273 151q123 -4 209 -90q12 -12 12 -28.5t-12.5 -29t-29 -12t-28.5 12.5q-63 63 -155 65q-121 4 -201 -114.5t-88 -290.5q-10 -178 59.5 -312.5t204.5 -156.5q90 -16 162 65q72 84 94 223q23 145 -24.5 274.5t-161.5 186.5q-57 29 -101 6 q-39 -20 -61 -82q-25 -63 -18.5 -132.5t38.5 -108.5q27 -35 60 -21q49 23 66.5 57.5t9.5 59.5q-4 10 -9 10q-25 0 -59 -45q-12 -14 -28.5 -16t-30 9t-15.5 27.5t8 28.5q61 76 121 78q35 0 58.5 -18.5t31.5 -48.5q18 -55 -13.5 -119t-106.5 -96q-90 -41 -158 41 q-47 61 -55.5 155t22.5 168q35 90 100 125q80 43 177 -4q143 -72 199.5 -226.5t29.5 -320.5q-25 -164 -113 -264q-100 -119 -239 -94q-119 23 -199 113t-109.5 203.5t-21.5 238.5zM197 1181.5q0 16.5 12 29t28.5 12.5t29 -12.5t12.5 -29t-12.5 -28.5t-29 -12t-28.5 12 t-12 28.5zM434 1169.5q0 16.5 12.5 28.5t29 12t28.5 -12t12 -28.5t-12 -29t-28.5 -12.5t-29 12.5t-12.5 29z" />
<glyph unicode="&#xf7;" horiz-adv-x="684" d="M16 610.5q0 16.5 11.5 29.5t27.5 13q96 4 250 45q205 57 258 68q18 2 31.5 -7t16.5 -26.5t-6 -31t-25 -17.5q-51 -8 -254 -63q-166 -45 -267 -50q-16 0 -29.5 11.5t-13.5 28zM272 368.5q0 16.5 12.5 29t29 12.5t28.5 -12.5t12 -29t-12 -28.5t-28.5 -12t-29 12t-12.5 28.5 zM291 1009.5q0 16.5 12 29t28.5 12.5t29 -12.5t12.5 -29t-12.5 -28.5t-29 -12t-28.5 12t-12 28.5z" />
<glyph unicode="&#xf8;" horiz-adv-x="772" d="M63 365q-14 158 33 315q49 158 152 252q8 18 24 22q20 16 43 29q14 8 30.5 4t25.5 -18q2 -2 4 -6q119 -8 205 -99q102 -109 129 -295q25 -176 -29 -327q-59 -172 -191 -219q-188 -66 -309 51q-100 98 -117 291zM145 371q165 221 433 352q-25 49 -58 84q-84 90 -211 72 q-88 -80 -132 -221.5t-32 -284.5v-2zM166 258q25 -80 72 -127q84 -80 223 -31q94 33 141 168q47 133 25 291q-7 45 -19 88q-285 -141 -442 -389z" />
<glyph unicode="&#xf9;" horiz-adv-x="1001" d="M51 451q10 152 55.5 305t96.5 231q10 14 26.5 17.5t30.5 -6t17 -26t-5 -30.5q-45 -68 -87 -211t-52 -287q-10 -160 27 -260q39 -104 129 -121q43 -10 84 39q41 51 73 154q43 133 66 324q2 168 23 315q0 4 2 6q0 6 4 14q2 6 8 11q16 16 39 10q18 -4 26 -21q2 -4 2 -10 l2 -8v-6q-2 -8 -4 -35q-6 -80 -6 -90q-8 -133 -12 -174l-2 -17q0 -72 2 -135q10 -141 39 -229q33 -94 86 -117q45 -18 79 2.5t50 69.5q18 49 8 102.5t-47 81.5q-18 14 -29 15q-4 0 -10 -7q-20 -23 -22 -75q-2 -27 4 -47q10 10 20 24q10 12 26.5 15.5t30 -7t16.5 -27 t-7 -30.5q-31 -43 -62 -55q-43 -20 -76 10q-39 35 -34 121q4 82 45 127q29 31 67 32q39 0 80 -30q61 -47 77.5 -130t-9.5 -147q-27 -78 -86 -112q-70 -41 -154 -7q-86 35 -129 164q-14 39 -22 84l-13 -37q-41 -121 -88 -180q-72 -86 -164 -69q-135 27 -190 174 q-43 117 -31 295zM176 1337.5q-2 16.5 9.5 29.5t28 15t30.5 -8q152 -125 211 -266q8 -16 1 -31.5t-22.5 -22.5t-31 0t-21.5 21q-53 123 -191 234q-12 12 -14 28.5z" />
<glyph unicode="&#xfa;" horiz-adv-x="1001" d="M51 451q10 152 55.5 305t96.5 231q10 14 26.5 17.5t30.5 -6t17 -26t-5 -30.5q-45 -68 -87 -211t-52 -287q-10 -160 27 -260q39 -104 129 -121q43 -10 84 39q41 51 73 154q43 133 66 324q2 168 23 315q0 4 2 6q0 6 4 14q2 6 8 11q16 16 39 10q18 -4 26 -21q2 -4 2 -10 l2 -8v-6q-2 -8 -4 -35q-6 -80 -6 -90q-8 -133 -12 -174l-2 -17q0 -72 2 -135q10 -141 39 -229q33 -94 86 -117q45 -18 79 2.5t50 69.5q18 49 8 102.5t-47 81.5q-18 14 -29 15q-4 0 -10 -7q-20 -23 -22 -75q-2 -27 4 -47q10 10 20 24q10 12 26.5 15.5t30 -7t16.5 -27 t-7 -30.5q-31 -43 -62 -55q-43 -20 -76 10q-39 35 -34 121q4 82 45 127q29 31 67 32q39 0 80 -30q61 -47 77.5 -130t-9.5 -147q-27 -78 -86 -112q-70 -41 -154 -7q-86 35 -129 164q-14 39 -22 84l-13 -37q-41 -121 -88 -180q-72 -86 -164 -69q-135 27 -190 174 q-43 117 -31 295zM346 1099.5q-6 16.5 2 30.5q86 184 277 256q16 6 31.5 -1t21.5 -23t-1 -31.5t-24 -21.5q-160 -57 -231 -211q-6 -16 -22.5 -22.5t-32 0.5t-21.5 23.5z" />
<glyph unicode="&#xfb;" horiz-adv-x="1001" d="M51 451q10 152 55.5 305t96.5 231q10 14 26.5 17.5t30.5 -6t17 -26t-5 -30.5q-45 -68 -87 -211t-52 -287q-10 -160 27 -260q39 -104 129 -121q43 -10 84 39q41 51 73 154q43 133 66 324q2 168 23 315q0 4 2 6q0 6 4 14q2 6 8 11q16 16 39 10q18 -4 26 -21q2 -4 2 -10 l2 -8v-6q-2 -8 -4 -35q-6 -80 -6 -90q-8 -133 -12 -174l-2 -17q0 -72 2 -135q10 -141 39 -229q33 -94 86 -117q45 -18 79 2.5t50 69.5q18 49 8 102.5t-47 81.5q-18 14 -29 15q-4 0 -10 -7q-20 -23 -22 -75q-2 -27 4 -47q10 10 20 24q10 12 26.5 15.5t30 -7t16.5 -27 t-7 -30.5q-31 -43 -62 -55q-43 -20 -76 10q-39 35 -34 121q4 82 45 127q29 31 67 32q39 0 80 -30q61 -47 77.5 -130t-9.5 -147q-27 -78 -86 -112q-70 -41 -154 -7q-86 35 -129 164q-14 39 -22 84l-13 -37q-41 -121 -88 -180q-72 -86 -164 -69q-135 27 -190 174 q-43 117 -31 295zM162 1198.5q0 16.5 12 28.5l39 41l39 41q18 20 24 28q49 53 84 60q47 10 101 -35q29 -27 108 -119q12 -12 10.5 -29.5t-14 -28.5t-30 -9t-27.5 14q-78 88 -102 110q-16 14 -27 17q-12 -2 -41 -35q-8 -8 -27 -29l-41 -43l-39 -41q-12 -12 -28.5 -12 t-28.5 12.5t-12 29z" />
<glyph unicode="&#xfc;" horiz-adv-x="1001" d="M51 451q10 152 55.5 305t96.5 231q10 14 26.5 17.5t30.5 -6t17 -26t-5 -30.5q-45 -68 -87 -211t-52 -287q-10 -160 27 -260q39 -104 129 -121q43 -10 84 39q41 51 73 154q43 133 66 324q2 168 23 315q0 4 2 6q0 6 4 14q2 6 8 11q16 16 39 10q18 -4 26 -21q2 -4 2 -10 l2 -8v-6q-2 -8 -4 -35q-6 -80 -6 -90q-8 -133 -12 -174l-2 -17q0 -72 2 -135q10 -141 39 -229q33 -94 86 -117q45 -18 79 2.5t50 69.5q18 49 8 102.5t-47 81.5q-18 14 -29 15q-4 0 -10 -7q-20 -23 -22 -75q-2 -27 4 -47q10 10 20 24q10 12 26.5 15.5t30 -7t16.5 -27 t-7 -30.5q-31 -43 -62 -55q-43 -20 -76 10q-39 35 -34 121q4 82 45 127q29 31 67 32q39 0 80 -30q61 -47 77.5 -130t-9.5 -147q-27 -78 -86 -112q-70 -41 -154 -7q-86 35 -129 164q-14 39 -22 84l-13 -37q-41 -121 -88 -180q-72 -86 -164 -69q-135 27 -190 174 q-43 117 -31 295zM262 1175.5q0 16.5 12.5 29t28.5 12.5t28.5 -12.5t12.5 -29t-12.5 -28.5t-28.5 -12t-28.5 12t-12.5 28.5zM479 1175.5q0 16.5 12.5 29t29 12.5t28.5 -12.5t12 -29t-12 -28.5t-28.5 -12t-29 12t-12.5 28.5z" />
<glyph unicode="&#xfd;" horiz-adv-x="749" d="M85.5 -199.5q-50.5 99.5 2.5 211.5q23 51 74 93t110 63q43 12 84 13t82 -21.5t66 -67.5q25 -49 17.5 -103.5t-34.5 -101.5q-31 -51 -82 -77.5t-110 2.5q-55 25 -66 67q-10 39 21 78q45 55 121 72q16 2 30.5 -7.5t17.5 -25.5t-6.5 -30.5t-25.5 -18.5q-47 -8 -74 -41 q-4 -4 -4 -8q4 -6 19 -13q49 -23 88 45q20 33 24 69t-6 52q-41 70 -135 39q-45 -14 -83 -46t-54 -64q-33 -82 0 -150t114 -109q80 -43 168 -34.5t138 71.5q72 88 63 250q-2 49 -16 150q-16 113 -21 145q-6 68 -14 313q-33 -113 -70 -186q-98 -195 -248 -184q-96 6 -133 125 q-25 84 -20 223q4 106 23.5 221t37.5 168q6 16 20.5 24.5t31 2.5t24.5 -21t2 -31q-16 -49 -34.5 -157.5t-22.5 -210.5q-4 -125 16 -195q20 -66 60 -67q96 -6 170 139q39 78 92 266q8 33 20 88q12 66 21 94v5v6q0 6 2 14q2 16 8 29q10 18 31 20q20 4 37 -10q27 -20 18 -61 q0 -4 -2 -17q-2 -6 -2 -8q-6 -111 -2 -199q0 -23 4 -165t12 -218q2 -31 21 -141q14 -96 16 -158q10 -193 -80 -307q-49 -59 -122.5 -83.5t-146.5 -15.5t-138 42q-104 53 -154.5 152.5zM359.5 1107.5q-2.5 17.5 7.5 31.5q119 168 286 276q14 8 30.5 5t26 -17t6.5 -30.5 t-18 -26.5q-158 -100 -266 -256q-8 -12 -25.5 -15.5t-31 6t-16 27z" />
<glyph unicode="&#xfe;" horiz-adv-x="817" d="M41 -313.5q0 16.5 12.5 29t28.5 12.5q14 0 27 28q16 39 20 115q4 57 0 143l-4 111v170v182q0 51 -1 164t-5 181.5t-10.5 161.5t-16.5 177q-2 25 -8 91.5t-12 109.5t-19 82q-6 16 2 31.5t24.5 20.5t32 -3.5t19.5 -24.5q14 -45 21.5 -93t13.5 -117.5t8 -88.5 q16 -154 25 -303q86 92 217 92q145 0 227 -106q84 -106 100 -258q16 -145 -30 -283q-49 -139 -154 -205q-57 -37 -117.5 -34.5t-110.5 28t-89 70.5q-18 23 -35 49v-94q0 -10 1 -26.5t2 -41t1 -41.5q4 -88 0 -149q-4 -90 -27 -141q-33 -80 -102 -80q-16 0 -28.5 12 t-12.5 28.5zM203 735q4 -117 4 -266q6 10 14 18q41 47 98.5 55.5t98.5 -20.5q45 -29 60.5 -80t-13.5 -112q-8 -16 -24.5 -21.5t-32 2.5t-20.5 24.5t3 31.5q31 55 -18 85.5t-90 -18.5q-37 -47 -30 -103.5t51 -107.5t100.5 -64.5t109.5 17.5q80 49 121 166t27 244 q-12 129 -77 210t-169 81q-72 0 -121 -34t-92 -108z" />
<glyph unicode="&#xff;" horiz-adv-x="749" d="M85.5 -199.5q-50.5 99.5 2.5 211.5q23 51 74 93t110 63q43 12 84 13t82 -21.5t66 -67.5q25 -49 17.5 -103.5t-34.5 -101.5q-31 -51 -82 -77.5t-110 2.5q-55 25 -66 67q-10 39 21 78q45 55 121 72q16 2 30.5 -7.5t17.5 -25.5t-6.5 -30.5t-25.5 -18.5q-47 -8 -74 -41 q-4 -4 -4 -8q4 -6 19 -13q49 -23 88 45q20 33 24 69t-6 52q-41 70 -135 39q-45 -14 -83 -46t-54 -64q-33 -82 0 -150t114 -109q80 -43 168 -34.5t138 71.5q72 88 63 250q-2 49 -16 150q-16 113 -21 145q-6 68 -14 313q-33 -113 -70 -186q-98 -195 -248 -184q-96 6 -133 125 q-25 84 -20 223q4 106 23.5 221t37.5 168q6 16 20.5 24.5t31 2.5t24.5 -21t2 -31q-16 -49 -34.5 -157.5t-22.5 -210.5q-4 -125 16 -195q20 -66 60 -67q96 -6 170 139q39 78 92 266q8 33 20 88q12 66 21 94v5v6q0 6 2 14q2 16 8 29q10 18 31 20q20 4 37 -10q27 -20 18 -61 q0 -4 -2 -17q-2 -6 -2 -8q-6 -111 -2 -199q0 -23 4 -165t12 -218q2 -31 21 -141q14 -96 16 -158q10 -193 -80 -307q-49 -59 -122.5 -83.5t-146.5 -15.5t-138 42q-104 53 -154.5 152.5zM270 1214.5q0 16.5 12.5 28.5t29 12t28.5 -12t12 -28.5t-12 -28.5t-28.5 -12t-29 12 t-12.5 28.5zM506 1216.5q0 16.5 12 28.5t28.5 12t29 -12t12.5 -28.5t-12.5 -28.5t-29 -12t-28.5 12t-12 28.5z" />
<glyph unicode="&#x2000;" horiz-adv-x="910" />
<glyph unicode="&#x2001;" horiz-adv-x="1821" />
<glyph unicode="&#x2002;" horiz-adv-x="910" />
<glyph unicode="&#x2003;" horiz-adv-x="1821" />
<glyph unicode="&#x2004;" horiz-adv-x="607" />
<glyph unicode="&#x2005;" horiz-adv-x="455" />
<glyph unicode="&#x2006;" horiz-adv-x="303" />
<glyph unicode="&#x2007;" horiz-adv-x="303" />
<glyph unicode="&#x2008;" horiz-adv-x="227" />
<glyph unicode="&#x2009;" horiz-adv-x="364" />
<glyph unicode="&#x200a;" horiz-adv-x="101" />
<glyph unicode="&#x2010;" horiz-adv-x="671" d="M28 605.5q-3 17.5 6 30.5t25 17q100 16 250 33q225 23 248 25q16 2 29.5 -8.5t15.5 -28t-8 -30.5t-29 -15q-23 -2 -248 -25q-152 -14 -241 -33q-18 -2 -31.5 7.5t-16.5 27z" />
<glyph unicode="&#x2011;" horiz-adv-x="671" d="M28 605.5q-3 17.5 6 30.5t25 17q100 16 250 33q225 23 248 25q16 2 29.5 -8.5t15.5 -28t-8 -30.5t-29 -15q-23 -2 -248 -25q-152 -14 -241 -33q-18 -2 -31.5 7.5t-16.5 27z" />
<glyph unicode="&#x2012;" horiz-adv-x="671" d="M28 605.5q-3 17.5 6 30.5t25 17q100 16 250 33q225 23 248 25q16 2 29.5 -8.5t15.5 -28t-8 -30.5t-29 -15q-23 -2 -248 -25q-152 -14 -241 -33q-18 -2 -31.5 7.5t-16.5 27z" />
<glyph unicode="&#x2013;" horiz-adv-x="1119" d="M28.5 605.5q-5.5 17.5 10.5 30.5t45 17q178 16 445 33q400 23 441 25q29 2 53 -8.5t27.5 -28t-14.5 -30.5t-51 -15q-41 -2 -442 -25q-271 -14 -429 -33q-32 -2 -56 7.5t-29.5 27z" />
<glyph unicode="&#x2014;" horiz-adv-x="2142" d="M29.5 605.5q-10.5 17.5 21.5 30.5t89 17q356 16 890 33q802 23 884 25q57 2 105 -8.5t55 -28t-28.5 -30.5t-103.5 -15q-82 -2 -883 -25q-541 -14 -858 -33q-64 -2 -112.5 7.5t-59 27z" />
<glyph unicode="&#x2018;" horiz-adv-x="403" d="M59.5 1223.5q-6.5 15.5 1.5 31.5l39 84q12 29 39 70t59.5 70.5t77.5 56.5q14 8 31 4t25 -18.5t3.5 -31t-18.5 -24.5q-68 -41 -102.5 -91t-79.5 -152q-6 -16 -21.5 -22.5t-31.5 0.5t-22.5 22.5z" />
<glyph unicode="&#x2019;" horiz-adv-x="419" d="M34 1183.5q3 16.5 15 26.5q92 68 145.5 133.5t75.5 159.5q4 16 18.5 24.5t31 4.5t24.5 -18.5t4 -30.5q-27 -111 -88 -189q-61 -76 -162 -149q-14 -10 -30.5 -7t-26.5 16t-7 29.5z" />
<glyph unicode="&#x201c;" horiz-adv-x="602" d="M86 1176q0 115 44 208t126 187q10 12 27.5 14t30 -9t14 -28.5t-10.5 -29.5q-74 -86 -111.5 -166t-37.5 -176q0 -16 -12.5 -28.5t-28.5 -12.5t-28.5 12t-12.5 29zM281 1208q14 123 55 205q39 86 129 150q14 10 30.5 7t26.5 -16.5t7 -30t-15 -26.5q-74 -53 -106.5 -121.5 t-45.5 -175.5q-2 -18 -15 -28.5t-30.5 -8.5t-27.5 15.5t-8 29.5z" />
<glyph unicode="&#x201d;" horiz-adv-x="667" d="M92 1199.5q0 17.5 10 29.5q68 70 97.5 133t29.5 149q0 16 12.5 28.5t29 12.5t28.5 -12.5t12 -28.5q0 -104 -35.5 -181t-111.5 -159q-12 -12 -29.5 -12t-30 11.5t-12.5 29zM377 1180.5q0 17.5 10 29.5q68 70 97.5 133.5t29.5 149.5q0 16 12.5 28.5t28.5 12.5t28.5 -12.5 t12.5 -28.5q0 -104 -36 -181t-111 -159q-12 -12 -30 -12t-30 11t-12 28.5z" />
<glyph unicode="&#x202f;" horiz-adv-x="364" />
<glyph unicode="&#x205f;" horiz-adv-x="455" />
<glyph unicode="&#x20ac;" horiz-adv-x="1310" d="M25 492.5q2 17.5 15 27.5t30 8q170 -20 190 -22q-14 59 -18 121q-4 66 4 135q-25 2 -68 7t-57 7q-16 2 -27.5 15.5t-9.5 30t15.5 27.5t29.5 9q10 -2 57 -7t72 -7q35 193 133 348q86 137 211 219t279 80q111 -2 174 -35q57 -33 88 -85t22 -105q-10 -57 -61 -87t-129 -20 q-16 2 -26.5 16.5t-8.5 31t16.5 26.5t30.5 8q88 -12 98 39q2 23 -14 52.5t-57 49.5q-43 25 -133 27q-131 2 -237.5 -67.5t-182.5 -192.5q-88 -139 -121 -313q117 -6 211 11t186 75q14 8 31.5 5t26 -17.5t5.5 -32t-18 -25.5q-106 -66 -215.5 -86.5t-238.5 -9.5 q-8 -66 -4 -125q4 -66 24 -131q135 -6 240.5 23.5t189.5 117.5q10 12 27.5 12t30 -11t12.5 -28.5t-12 -29.5q-164 -170 -455 -168q72 -143 203 -226q72 -45 150.5 -60t163.5 5.5t163 81.5q98 78 98 203q0 16 12.5 28.5t29 12.5t28.5 -12.5t12 -28.5q0 -164 -131 -268 q-90 -72 -193.5 -96.5t-196.5 -6t-179 71.5q-172 106 -252 299q-31 4 -228 26q-18 2 -28 15.5t-8 31z" />
<glyph unicode="&#x25fc;" horiz-adv-x="1044" d="M0 0v1044h1044v-1044h-1044z" />
</font>
</defs>
</svg>
