<?xml version="1.0" encoding="utf-8"?>
<!-- Generator: Adobe Illustrator 16.0.0, SVG Export Plug-In . SVG Version: 6.00 Build 0)  -->
<!DOCTYPE svg PUBLIC "-//W3C//DTD SVG 1.1//EN" "http://www.w3.org/Graphics/SVG/1.1/DTD/svg11.dtd">
<svg version="1.1" id="Capa_1" xmlns="http://www.w3.org/2000/svg" xmlns:xlink="http://www.w3.org/1999/xlink" x="0px" y="0px"
	 width="64px" height="64px" viewBox="0 0 64 64" enable-background="new 0 0 64 64" xml:space="preserve">
<g>
	<g>
		<path d="M41.512,41.511c-2.177,0.737-4.449,1.11-6.772,1.11c-3.559,0-7-0.875-10.048-2.544c-2.415,2.112-5.524,3.298-8.753,3.298
			c-1.113,0-2.189-0.152-3.223-0.411l3.201,17.286h32.543l2.975-16.062c-0.67,0.114-1.355,0.188-2.059,0.188
			C46.46,44.375,43.713,43.367,41.512,41.511z M25.769,57.07c-0.048,0.007-0.097,0.01-0.145,0.01c-0.489,0-0.916-0.359-0.988-0.857
			l-1.252-8.66c-0.079-0.545,0.3-1.054,0.847-1.133c0.542-0.072,1.054,0.301,1.133,0.848l1.252,8.66
			C26.695,56.482,26.315,56.991,25.769,57.07z M34,56.125c0,0.552-0.448,1-1,1s-1-0.448-1-1v-8.75c0-0.552,0.448-1,1-1s1,0.448,1,1
			V56.125z M41.364,56.223c-0.072,0.498-0.5,0.857-0.988,0.857c-0.048,0-0.097-0.003-0.146-0.01
			c-0.545-0.079-0.926-0.586-0.847-1.133l1.252-8.66c0.08-0.547,0.591-0.92,1.134-0.848c0.545,0.079,0.926,0.586,0.847,1.133
			L41.364,56.223z"/>
		<path d="M11.21,40.33c0.182,0.084,0.366,0.165,0.553,0.24c0.18,0.07,0.362,0.137,0.545,0.199c1.14,0.388,2.358,0.606,3.629,0.606
			c3.365,0,6.379-1.478,8.451-3.81c2.922,1.916,6.488,3.056,10.35,3.056c2.578,0,5.021-0.513,7.234-1.417
			c1.866,1.949,4.489,3.171,7.401,3.171c0.847,0,1.664-0.114,2.451-0.308c0.179-0.043,0.358-0.084,0.534-0.137
			c0.185-0.056,0.363-0.125,0.543-0.191c3.92-1.44,6.722-5.194,6.722-9.613c0-4.576-3-8.448-7.14-9.766
			C51.498,14.142,43.934,7.75,34.739,7.75c-7.862,0-14.523,4.679-16.911,11.17c-0.616-0.104-1.245-0.17-1.891-0.17
			c-6.248,0-11.312,5.065-11.312,11.312C4.625,34.62,7.326,38.538,11.21,40.33z"/>
	</g>
	<g>
		<path fill="#8B572A" d="M41.512,41.511c-2.177,0.737-4.449,1.11-6.772,1.11c-3.559,0-7-0.875-10.048-2.544
			c-2.415,2.112-5.524,3.298-8.753,3.298c-1.113,0-2.189-0.152-3.223-0.411l3.201,17.286h32.543l2.975-16.062
			c-0.67,0.114-1.355,0.188-2.059,0.188C46.46,44.375,43.713,43.367,41.512,41.511z M25.769,57.07
			c-0.048,0.007-0.097,0.01-0.145,0.01c-0.489,0-0.916-0.359-0.988-0.857l-1.252-8.66c-0.079-0.545,0.3-1.054,0.847-1.133
			c0.542-0.072,1.054,0.301,1.133,0.848l1.252,8.66C26.695,56.482,26.315,56.991,25.769,57.07z M34,56.125c0,0.552-0.448,1-1,1
			s-1-0.448-1-1v-8.75c0-0.552,0.448-1,1-1s1,0.448,1,1V56.125z M41.364,56.223c-0.072,0.498-0.5,0.857-0.988,0.857
			c-0.048,0-0.097-0.003-0.146-0.01c-0.545-0.079-0.926-0.586-0.847-1.133l1.252-8.66c0.08-0.547,0.591-0.92,1.134-0.848
			c0.545,0.079,0.926,0.586,0.847,1.133L41.364,56.223z"/>
		<path fill="#8B572A" d="M11.21,40.33c0.182,0.084,0.366,0.165,0.553,0.24c0.18,0.07,0.362,0.137,0.545,0.199
			c1.14,0.388,2.358,0.606,3.629,0.606c3.365,0,6.379-1.478,8.451-3.81c2.922,1.916,6.488,3.056,10.35,3.056
			c2.578,0,5.021-0.513,7.234-1.417c1.866,1.949,4.489,3.171,7.401,3.171c0.847,0,1.664-0.114,2.451-0.308
			c0.179-0.043,0.358-0.084,0.534-0.137c0.185-0.056,0.363-0.125,0.543-0.191c3.92-1.44,6.722-5.194,6.722-9.613
			c0-4.576-3-8.448-7.14-9.766C51.498,14.142,43.934,7.75,34.739,7.75c-7.862,0-14.523,4.679-16.911,11.17
			c-0.616-0.104-1.245-0.17-1.891-0.17c-6.248,0-11.312,5.065-11.312,11.312C4.625,34.62,7.326,38.538,11.21,40.33z"/>
	</g>
</g>
</svg>
